<?xml version="1.0" encoding="utf-8"?>
<!-- Generator: Adobe Illustrator 22.1.0, SVG Export Plug-In . SVG Version: 6.00 Build 0)  -->
<svg version="1.1" id="Capa_1" xmlns="http://www.w3.org/2000/svg" xmlns:xlink="http://www.w3.org/1999/xlink" x="0px" y="0px"
	 viewBox="0 0 314.7 314.7" style="enable-background:new 0 0 314.7 314.7;" xml:space="preserve">
<style type="text/css">
	.st0{fill:#333333;}
</style>
<g>
	<path class="st0" d="M157.3,0C70.6,0,0,70.6,0,157.3s70.6,157.3,157.3,157.3s157.3-70.6,157.3-157.3S244.1,0,157.3,0z M157.3,296.7
		C80.5,296.7,18,234.1,18,157.3S80.5,18,157.3,18s139.3,62.5,139.3,139.3S234.1,296.7,157.3,296.7z"/>
	<path class="st0" d="M214.6,80.3H100c-10.5,0-19,8.5-19,19v116c0,10.5,8.5,19,19,19h114.6c10.5,0,19-8.5,19-19v-116
		C233.6,88.8,225.1,80.3,214.6,80.3z M215.6,215.3c0,0.6-0.4,1-1,1H100c-0.6,0-1-0.4-1-1v-116c0-0.6,0.4-1,1-1h114.6
		c0.6,0,1,0.4,1,1V215.3z"/>
	<rect x="183.6" y="111.8" class="st0" width="20.6" height="18.9"/>
	<circle class="st0" cx="157.3" cy="164.9" r="20.3"/>
	<path class="st0" d="M189.7,164.9c0,17.9-14.5,32.4-32.4,32.4s-32.4-14.5-32.4-32.4l0-14.4h-14.5v53.8h93.7v-53.8h-14.4
		L189.7,164.9z"/>
</g>
</svg>
