<?xml version="1.0" encoding="utf-8"?>
<!-- Generator: Adobe Illustrator 22.1.0, SVG Export Plug-In . SVG Version: 6.00 Build 0)  -->
<svg version="1.1" xmlns="http://www.w3.org/2000/svg" xmlns:xlink="http://www.w3.org/1999/xlink" x="0px" y="0px"
	 viewBox="0 0 1200 800" style="enable-background:new 0 0 1200 800;" xml:space="preserve">
<style type="text/css">
	.st0{clip-path:url(#SVGID_2_);fill:none;stroke:#EEECD0;stroke-width:2;stroke-miterlimit:10;}
	.st1{clip-path:url(#SVGID_2_);fill:none;stroke:#DBDEC9;stroke-width:3;stroke-miterlimit:10;}
	.st2{clip-path:url(#SVGID_2_);fill:none;stroke:#52B2B2;stroke-width:5;stroke-miterlimit:10;}
	.st3{clip-path:url(#SVGID_2_);fill:none;stroke:#274B51;stroke-width:5;stroke-miterlimit:10;}
	.st4{clip-path:url(#SVGID_2_);fill:none;stroke:#D94328;stroke-width:5;stroke-miterlimit:10;}
	.st5{clip-path:url(#SVGID_2_);fill:none;stroke:#CFA06D;stroke-width:5;stroke-miterlimit:10;}
	.st6{clip-path:url(#SVGID_2_);fill:none;stroke:#D94328;stroke-width:2;stroke-miterlimit:10;}
	.st7{clip-path:url(#SVGID_2_);fill:#52B2B2;}
	.st8{clip-path:url(#SVGID_2_);fill:#FFFFFF;stroke:#52B2B2;stroke-width:5;stroke-miterlimit:10;}
	.st9{clip-path:url(#SVGID_2_);}
	.st10{fill:none;stroke:#DBDEC9;stroke-width:2;stroke-miterlimit:10;}
	.st11{fill:none;stroke:#EEECD0;stroke-width:2;stroke-miterlimit:10;}
	.st12{fill:#DBDEC9;}
	.st13{fill:none;stroke:#52B2B2;stroke-width:5;stroke-miterlimit:10;}
	.st14{fill:none;stroke:#274B51;stroke-width:5;stroke-miterlimit:10;}
	.st15{fill:none;stroke:#CFA06D;stroke-width:5;stroke-miterlimit:10;}
	.st16{fill:none;stroke:#D94328;stroke-width:5;stroke-miterlimit:10;}
	.st17{fill:#52B2B2;}
	.st18{fill:#FFFFFF;stroke:#274B51;stroke-width:5;stroke-miterlimit:10;}
	.st19{fill:#FFFFFF;stroke:#52B2B2;stroke-width:5;stroke-miterlimit:10;}
	.st20{fill:#FFFFFF;stroke:#D94328;stroke-width:5;stroke-miterlimit:10;}
	.st21{clip-path:url(#SVGID_2_);fill:#D94328;}
	.st22{clip-path:url(#SVGID_2_);fill:#FFFFFF;stroke:#07292E;stroke-width:5;stroke-miterlimit:10;}
	.st23{clip-path:url(#SVGID_2_);fill:none;stroke:#07292E;stroke-width:3;stroke-miterlimit:10;}
	.st24{clip-path:url(#SVGID_2_);fill:none;stroke:#274B51;stroke-width:3;stroke-miterlimit:10;}
	.st25{fill:#274B51;}
	.st26{font-family:'BasicSansSerif7';}
	.st27{font-size:60px;}
	.st28{fill:none;}
	.st29{clip-path:url(#SVGID_4_);fill:none;stroke:#EEECD0;stroke-width:2;stroke-miterlimit:10;}
	.st30{clip-path:url(#SVGID_4_);fill:none;stroke:#DBDEC9;stroke-width:3;stroke-miterlimit:10;}
	.st31{clip-path:url(#SVGID_4_);fill:none;stroke:#52B2B2;stroke-width:5;stroke-miterlimit:10;}
	.st32{clip-path:url(#SVGID_4_);fill:none;stroke:#274B51;stroke-width:5;stroke-miterlimit:10;}
	.st33{clip-path:url(#SVGID_4_);fill:none;stroke:#D94328;stroke-width:5;stroke-miterlimit:10;}
	.st34{clip-path:url(#SVGID_4_);fill:none;stroke:#CFA06D;stroke-width:5;stroke-miterlimit:10;}
	.st35{clip-path:url(#SVGID_4_);fill:none;stroke:#D94328;stroke-width:2;stroke-miterlimit:10;}
	.st36{clip-path:url(#SVGID_4_);fill:#52B2B2;}
	.st37{clip-path:url(#SVGID_4_);fill:#FFFFFF;stroke:#52B2B2;stroke-width:5;stroke-miterlimit:10;}
	.st38{clip-path:url(#SVGID_4_);}
	.st39{clip-path:url(#SVGID_4_);fill:#D94328;}
	.st40{clip-path:url(#SVGID_4_);fill:#FFFFFF;stroke:#07292E;stroke-width:5;stroke-miterlimit:10;}
	.st41{clip-path:url(#SVGID_4_);fill:none;stroke:#07292E;stroke-width:3;stroke-miterlimit:10;}
	.st42{clip-path:url(#SVGID_4_);fill:none;stroke:#274B51;stroke-width:3;stroke-miterlimit:10;}
	.st43{display:none;}
	.st44{display:inline;fill:#D94328;}
</style>
<g id="_x31_200x800">
	<g>
		<g>
			<defs>
				<rect id="SVGID_1_" width="1200" height="800"/>
			</defs>
			<clipPath id="SVGID_2_">
				<use xlink:href="#SVGID_1_"  style="overflow:visible;"/>
			</clipPath>
			<polygon class="st0" points="847,1134 478.2,776.3 680.3,659.7 965,776.9 			"/>
			<polygon class="st1" points="365.3,1000.6 197.3,609 153,618.1 237.6,1102.7 			"/>
			<polygon class="st0" points="925.9,826.9 2077.1,1395.3 1235,579.2 1032.4,551.9 			"/>
			<polygon class="st0" points="426.3,599.3 242,496.8 374.9,486.1 636.3,544.6 			"/>
			<polygon class="st2" points="483.9,575.5 636,636.7 317,786 234.6,636.7 			"/>
			<polygon class="st3" points="680.9,572.7 919.9,633.9 801,786 510.8,633.9 			"/>
			<polygon class="st4" points="587.9,571.8 450.6,529.9 360.9,544.3 482.3,602.4 			"/>
			<polygon class="st5" points="259.6,591.1 175.6,493.6 280.6,486.1 463,550.9 			"/>
			<polygon class="st4" points="1090.6,730.6 603.5,579.2 837.1,505.6 1083.6,531.9 			"/>
			<polygon class="st2" points="834.1,975.1 620.7,811.9 756.1,699.1 925.9,771.2 			"/>
			<polygon class="st4" points="105.1,1000.6 110.4,798.9 372.1,699.1 459.6,792.8 			"/>
			<polygon class="st6" points="16.4,703.8 67.3,568.8 267.7,541.1 363.8,614 			"/>
			<path class="st7" d="M268.2,575c-5.2,0.9-8.7,2.5-7.8,3.4c0.9,1,6,1,11.2,0c5.2-1,8.5-2.5,7.5-3.4
				C278.2,574.1,273.3,574.1,268.2,575z"/>
			<path class="st7" d="M261,567.9c-5,0.8-8.4,2.2-7.5,3.1c0.8,0.9,5.6,0.9,10.7,0c5-0.9,8.2-2.3,7.3-3.1
				C270.5,567.1,265.9,567.1,261,567.9z"/>
			<path class="st7" d="M254.4,561.4c-4.8,0.8-8.1,2-7.3,2.8c0.7,0.8,5.3,0.8,10.2,0c4.8-0.8,7.9-2,7.1-2.8
				C263.5,560.7,259.1,560.7,254.4,561.4z"/>
			<path class="st7" d="M248.4,555.5c-4.6,0.7-7.8,1.8-7.1,2.6c0.7,0.7,5.1,0.7,9.7,0c4.6-0.7,7.7-1.9,6.9-2.6
				C257.2,554.8,252.9,554.8,248.4,555.5z"/>
			<path class="st7" d="M242.9,550.1c-4.4,0.6-7.5,1.7-6.9,2.3c0.6,0.7,4.8,0.7,9.3,0c4.4-0.7,7.4-1.7,6.7-2.3
				C251.4,549.5,247.3,549.5,242.9,550.1z"/>
			<path class="st7" d="M237.9,545.2c-4.3,0.6-7.3,1.6-6.7,2.2c0.6,0.6,4.6,0.6,8.9,0c4.3-0.6,7.2-1.6,6.6-2.2
				C246,544.6,242.1,544.6,237.9,545.2z"/>
			<path class="st7" d="M233.3,540.6c-4.1,0.5-7,1.4-6.5,2c0.5,0.6,4.4,0.6,8.5,0c4.1-0.6,7-1.4,6.4-2
				C241.1,540.1,237.3,540.1,233.3,540.6z"/>
			<path class="st7" d="M229,536.4c-4,0.5-6.8,1.3-6.3,1.8c0.5,0.5,4.2,0.5,8.2,0c4-0.5,6.8-1.3,6.2-1.8
				C236.5,535.9,232.9,535.9,229,536.4z"/>
			<path class="st7" d="M225,532.5c-3.8,0.5-6.6,1.2-6.2,1.7c0.5,0.5,4,0.5,7.9,0c3.9-0.5,6.6-1.2,6.1-1.7
				C232.3,532,228.8,532,225,532.5z"/>
			<path class="st7" d="M221.3,528.8c-3.7,0.4-6.4,1.1-6,1.6c0.4,0.4,3.9,0.4,7.6,0c3.7-0.4,6.4-1.2,5.9-1.6
				C228.4,528.4,225,528.4,221.3,528.8z"/>
			<path class="st7" d="M217.9,525.4c-3.6,0.4-6.3,1.1-5.9,1.5c0.4,0.4,3.7,0.4,7.4,0c3.6-0.4,6.2-1.1,5.8-1.5
				C224.7,525,221.5,525,217.9,525.4z"/>
			<path class="st7" d="M214.7,522.3c-3.5,0.4-6.1,1-5.7,1.4c0.4,0.4,3.6,0.4,7.1,0c3.5-0.4,6-1,5.6-1.4
				C221.3,521.9,218.2,521.9,214.7,522.3z"/>
			<path class="st7" d="M211.7,519.3c-3.4,0.4-5.9,0.9-5.6,1.3c0.3,0.4,3.4,0.4,6.9,0c3.4-0.4,5.9-0.9,5.5-1.3
				C218.1,518.9,215,518.9,211.7,519.3z"/>
			<path class="st7" d="M208.8,516.5c-3.3,0.3-5.8,0.9-5.4,1.2c0.3,0.3,3.3,0.3,6.7,0c3.3-0.3,5.7-0.9,5.3-1.2
				C215.1,516.2,212.1,516.2,208.8,516.5z"/>
			<path class="st7" d="M206.2,513.9c-3.2,0.3-5.6,0.8-5.3,1.1c0.3,0.3,3.2,0.3,6.5,0c3.2-0.3,5.6-0.8,5.2-1.1
				C212.2,513.6,209.4,513.6,206.2,513.9z"/>
			<path class="st7" d="M203.7,511.4c-3.1,0.3-5.5,0.8-5.2,1.1c0.3,0.3,3.1,0.3,6.3,0c3.2-0.3,5.4-0.8,5.1-1.1
				C209.6,511.1,206.8,511.1,203.7,511.4z"/>
			<path class="st7" d="M201.3,509.1c-3.1,0.3-5.3,0.7-5.1,1c0.3,0.3,3,0.3,6.1,0c3.1-0.3,5.3-0.7,5-1
				C207,508.8,204.4,508.8,201.3,509.1z"/>
			<path class="st7" d="M199.1,506.9c-3,0.3-5.2,0.7-5,1c0.3,0.3,2.9,0.3,5.9,0c3-0.3,5.2-0.7,4.9-1
				C204.7,506.6,202,506.7,199.1,506.9z"/>
			<path class="st7" d="M197,504.8c-2.9,0.3-5.1,0.7-4.8,0.9c0.2,0.3,2.8,0.3,5.8,0c2.9-0.3,5-0.7,4.8-0.9
				C202.4,504.6,199.9,504.6,197,504.8z"/>
			<path class="st7" d="M195,502.9c-2.8,0.2-5,0.6-4.7,0.9c0.2,0.2,2.8,0.2,5.6,0c2.9-0.2,4.9-0.6,4.7-0.9
				C200.3,502.6,197.8,502.6,195,502.9z"/>
			<path class="st7" d="M193.1,501c-2.8,0.2-4.9,0.6-4.6,0.8c0.2,0.2,2.7,0.2,5.5,0c2.8-0.2,4.8-0.6,4.6-0.8
				C198.2,500.8,195.8,500.8,193.1,501z"/>
			<path class="st7" d="M191.3,499.2c-2.7,0.2-4.8,0.6-4.5,0.8c0.2,0.2,2.6,0.2,5.3,0c2.7-0.2,4.7-0.6,4.5-0.8
				C196.3,499,194,499,191.3,499.2z"/>
			<path class="st7" d="M189.5,497.5c-2.6,0.2-4.7,0.5-4.5,0.7c0.2,0.2,2.5,0.2,5.2,0c2.7-0.2,4.6-0.5,4.4-0.7
				C194.5,497.3,192.2,497.3,189.5,497.5z"/>
			<path class="st7" d="M703.9,758.1c3.9-3.5,12.1-3.5,18.4,0c6.5,3.5,8.7,9.4,4.9,13.1c-3.9,3.8-12.6,3.8-19.2,0
				C701.7,767.5,699.9,761.6,703.9,758.1z"/>
			<path class="st7" d="M736.9,776.6c3.8-3.8,12.4-3.8,19.5,0c7.2,3.9,10.3,10.5,6.6,14.7c-3.7,4.3-12.9,4.3-20.3,0
				C735.5,787.1,733,780.6,736.9,776.6z"/>
			<path class="st7" d="M773.8,797.4c3.6-4.3,12.7-4.3,20.6,0c8.1,4.4,12.1,11.8,8.7,16.5c-3.5,4.8-13.2,4.8-21.6,0
				C773.5,809.3,770.1,801.9,773.8,797.4z"/>
			<path class="st7" d="M815.4,820.9c3.3-4.9,13-4.9,21.9,0c9.2,5,14.4,13.4,11.4,18.8c-3.1,5.5-13.5,5.5-23,0
				C816.5,834.3,812,825.9,815.4,820.9z"/>
			<path class="st7" d="M862.7,847.5c2.9-5.6,13.2-5.6,23.4,0c10.5,5.7,17.2,15.3,14.7,21.5c-2.6,6.3-13.8,6.3-24.6,0
				C865.6,862.8,859.7,853.2,862.7,847.5z"/>
			<path class="st8" d="M746.6,695c2.7-2.2,9.1-2.2,14.4,0c5.3,2.2,7.6,5.9,5,8.2c-2.7,2.4-9.4,2.4-14.8,0
				C745.8,700.9,743.8,697.3,746.6,695z"/>
			<g class="st9">
				<polygon class="st10" points="495.9,-531.8 198.4,177.2 587.9,259.8 958.2,177.2 				"/>
				<polygon class="st11" points="1191.1,149.6 917.7,204.3 600,-108.4 2078.3,-1563.3 				"/>
				<polygon class="st11" points="451.5,82.7 520.4,24.2 373.6,-64.9 320.9,24.2 				"/>
				<polygon class="st10" points="764.5,168.7 436,268.3 687.1,305.6 943,279.2 				"/>
				<path class="st12" d="M711,194.2c-2.6-1.2-8-1.2-12,0c-4,1.2-5,3-2.4,4.2c2.6,1.1,7.8,1.1,11.7,0
					C712.3,197.2,713.6,195.3,711,194.2z"/>
				<path class="st12" d="M738,186.4c-2.5-1.3-8.2-1.3-12.6,0c-4.4,1.3-5.7,3.3-3.2,4.5c2.5,1.2,8,1.2,12.3,0
					C738.9,189.7,740.5,187.7,738,186.4z"/>
				<path class="st12" d="M767.7,177.9c-2.4-1.4-8.3-1.4-13.2,0c-4.8,1.4-6.6,3.6-4.1,5c2.4,1.3,8.1,1.3,12.8,0
					C768,181.5,770,179.3,767.7,177.9z"/>
				<path class="st12" d="M218.8,191.1c4.2,0.9,8.1,0.9,8.6,0c0.5-0.9-2.5-2.3-6.8-3.2c-4.3-0.9-8.3-0.9-8.8,0
					C211.4,188.8,214.5,190.2,218.8,191.1z"/>
				<path class="st12" d="M240,195.4c4,0.8,7.8,0.8,8.4,0c0.6-0.8-2.2-2.2-6.2-3c-4.1-0.8-8-0.8-8.5,0
					C233,193.2,235.9,194.5,240,195.4z"/>
				<path class="st12" d="M260.2,199.4c3.8,0.8,7.5,0.8,8.2,0c0.7-0.8-1.9-2.1-5.8-2.9c-3.9-0.8-7.7-0.8-8.3,0
					C253.7,197.4,256.3,198.6,260.2,199.4z"/>
				<path class="st12" d="M279.4,203.3c3.7,0.7,7.2,0.7,8,0c0.8-0.7-1.6-2-5.3-2.7c-3.7-0.8-7.4-0.8-8.1,0
					C273.3,201.3,275.7,202.5,279.4,203.3z"/>
				<path class="st12" d="M297.8,207c3.5,0.7,7,0.7,7.8,0c0.8-0.7-1.3-1.9-4.9-2.6c-3.6-0.7-7.1-0.7-7.9,0
					C292,205.1,294.3,206.3,297.8,207z"/>
				<path class="st12" d="M315.3,210.5c3.3,0.7,6.7,0.7,7.6,0c0.9-0.7-1.1-1.8-4.5-2.5c-3.4-0.7-6.9-0.7-7.8,0
					C309.9,208.7,312,209.8,315.3,210.5z"/>
				<path class="st12" d="M332.1,213.9c3.2,0.6,6.5,0.6,7.5,0c0.9-0.6-0.9-1.7-4.1-2.4c-3.3-0.7-6.7-0.7-7.6,0
					C327,212.2,328.9,213.2,332.1,213.9z"/>
				<path class="st12" d="M348.2,217.1c3.1,0.6,6.3,0.6,7.3,0c1-0.6-0.7-1.6-3.8-2.3c-3.1-0.6-6.5-0.6-7.4,0
					C343.3,215.4,345.1,216.5,348.2,217.1z"/>
				<path class="st12" d="M363.5,220.2c2.9,0.6,6.1,0.6,7.1,0c1-0.6-0.5-1.6-3.5-2.2c-3-0.6-6.3-0.6-7.3,0
					C359,218.6,360.6,219.6,363.5,220.2z"/>
				<path class="st12" d="M378.3,223.1c2.8,0.6,5.9,0.6,7,0c1.1-0.6-0.3-1.5-3.2-2.1c-2.9-0.6-6.1-0.6-7.1,0
					C374,221.6,375.5,222.6,378.3,223.1z"/>
				<path class="st12" d="M392.4,226c2.7,0.5,5.8,0.5,6.9,0c1.1-0.5-0.2-1.4-2.9-2c-2.7-0.6-5.9-0.6-7,0
					C388.4,224.5,389.7,225.4,392.4,226z"/>
				<path class="st12" d="M406,228.7c2.6,0.5,5.6,0.5,6.7,0c1.1-0.5,0-1.4-2.7-1.9c-2.6-0.5-5.7-0.5-6.8,0
					C402.2,227.3,403.4,228.2,406,228.7z"/>
				<path class="st12" d="M419.1,231.3c2.5,0.5,5.4,0.5,6.6,0c1.2-0.5,0.1-1.3-2.4-1.8c-2.5-0.5-5.5-0.5-6.7,0
					C415.4,230,416.6,230.8,419.1,231.3z"/>
				<path class="st12" d="M431.7,233.8c2.4,0.5,5.3,0.5,6.5,0c1.2-0.5,0.2-1.3-2.2-1.8c-2.4-0.5-5.4-0.5-6.6,0
					C428.2,232.6,429.2,233.4,431.7,233.8z"/>
				<path class="st12" d="M443.8,236.3c2.3,0.5,5.1,0.5,6.3,0c1.2-0.5,0.3-1.2-2-1.7c-2.3-0.5-5.2-0.5-6.4,0
					C440.5,235,441.4,235.8,443.8,236.3z"/>
				<path class="st12" d="M455.4,238.6c2.2,0.4,5,0.4,6.2,0c1.2-0.5,0.4-1.2-1.8-1.6c-2.3-0.5-5.1-0.5-6.3,0
					C452.3,237.4,453.2,238.2,455.4,238.6z"/>
				<path class="st12" d="M466.7,240.9c2.2,0.4,4.9,0.4,6.1,0c1.2-0.4,0.5-1.1-1.6-1.6c-2.2-0.4-5-0.4-6.2,0
					C463.7,239.7,464.5,240.4,466.7,240.9z"/>
				<path class="st12" d="M477.5,243c2.1,0.4,4.8,0.4,6,0c1.3-0.4,0.6-1.1-1.5-1.5c-2.1-0.4-4.8-0.4-6.1,0
					C474.7,241.9,475.4,242.6,477.5,243z"/>
				<path class="st12" d="M488,245.1c2,0.4,4.6,0.4,5.9,0c1.3-0.4,0.7-1.1-1.3-1.5c-2-0.4-4.7-0.4-6,0
					C485.3,244.1,485.9,244.7,488,245.1z"/>
				<polygon class="st13" points="655.6,-22.9 247.2,272.1 550.6,305.6 955.7,250.6 				"/>
				<polygon class="st14" points="610.6,-220.9 430.3,-6 633.5,109.7 807,23.8 				"/>
				<polygon class="st15" points="966.1,149.6 738.7,207.2 894.1,278.6 1026.8,263.9 				"/>
				<polygon class="st13" points="1054.6,16.1 914.7,68.2 823.6,-94.9 1036.3,-233.6 				"/>
				<polygon class="st16" points="255,313.8 541.3,207.2 343.6,149.6 177.3,309 				"/>
				<polygon class="st16" points="226.6,157.1 306.3,2.5 162.1,-64.9 142.3,136.7 				"/>
				<polygon class="st13" points="336.1,77.6 391.6,4.1 259.6,-64.9 226.9,35.6 				"/>
				<polygon class="st17" points="315.5,251.5 289.4,266.5 301.5,268 329,253.5 				"/>
				<polygon class="st17" points="371.6,219.2 330,243.1 344.2,245.4 387.6,222.5 				"/>
				<polygon class="st17" points="459.4,168.7 387.8,209.9 404.4,213.6 478.1,174.6 				"/>
				<polygon class="st17" points="624.8,73.5 481.2,156.1 500.4,162.8 644.9,86.4 				"/>
				<polygon class="st17" points="1063.9,-179.1 661.4,52.4 681.2,67.2 1065.2,-135.9 				"/>
				<path class="st18" d="M625.9,113.5c-3.7-2.1-3.4-5.5,0.8-7.6c4.3-2.2,10.9-2.2,14.6,0c3.7,2.2,3.1,5.6-1.2,7.6
					C635.9,115.5,629.6,115.5,625.9,113.5z"/>
				<path class="st18" d="M426.2-1c-4.9-2.7-7.1-7.2-4.8-10c2.3-2.9,8.3-2.9,13.2,0c4.9,2.8,6.8,7.3,4.4,10
					C436.7,1.7,431,1.7,426.2-1z"/>
				<path class="st19" d="M338.7,74.1c-5-2-10.2-2-11.6,0c-1.4,1.9,1.5,5,6.5,6.9c4.8,1.8,9.9,1.8,11.4,0
					C346.4,79.1,343.7,76.1,338.7,74.1z"/>
				<path class="st19" d="M394.3,0.5c-3.8-2-8.1-2-9.5,0c-1.4,2,0.5,5.2,4.2,7.1c3.7,1.9,7.9,1.9,9.3,0C399.8,5.7,398,2.5,394.3,0.5
					z"/>
				<path class="st20" d="M228.8,152.8c-9.9-2.5-19-2.5-20,0c-1,2.4,6.1,6.2,15.6,8.4c9.3,2.2,17.8,2.2,19.2,0
					C245.1,159,238.5,155.2,228.8,152.8z"/>
				<path class="st20" d="M308.8-2.3c-5.7-2.7-11.5-2.7-12.8,0c-1.3,2.7,2.3,6.9,7.9,9.5c5.5,2.5,11.1,2.5,12.5,0
					C317.7,4.6,314.4,0.3,308.8-2.3z"/>
			</g>
			<polygon class="st21" points="418,806 409.7,795.5 435.3,781.5 444,791.2 			"/>
			<polygon class="st21" points="381.3,826.9 373.6,815.2 402,799.7 410.2,810.5 			"/>
			<polygon class="st21" points="340.3,850.3 333.4,837.2 365.1,819.9 372.6,831.9 			"/>
			<polygon class="st21" points="294.1,876.5 288.4,861.8 323.9,842.4 330.5,855.8 			"/>
			<polygon class="st21" points="241.9,906.3 237.6,889.6 277.7,867.7 283.1,882.8 			"/>
			<polygon class="st21" points="182.1,940.3 179.8,921.2 225.4,896.3 229.3,913.5 			"/>
			<polyline class="st3" points="704.8,693.4 848.5,592.1 1239.5,679.1 			"/>
			<path class="st22" d="M696.3,689.5c-3.1,2.1-1.9,5.6,2.9,7.8c4.8,2.2,11.4,2.2,14.4,0c3-2.2,1.5-5.7-3.3-7.8
				C705.6,687.5,699.4,687.5,696.3,689.5z"/>
			<polygon class="st23" points="103.5,485.3 -1538.1,6090.1 812.1,1008.2 181.9,480.8 			"/>
			<polygon class="st0" points="215.5,11.4 -2586.8,-5112.5 -655.3,142.7 163.3,70 			"/>
			<polygon class="st24" points="684.6,579.2 890,633.9 781.3,751.1 540.7,633.9 			"/>
			<polygon class="st4" points="-8.9,720.1 58.7,567.4 271.6,538.6 379.2,616.3 			"/>
		</g>
		<text transform="matrix(1 0 0 1 271.541 416.6167)" class="st25 st26 st27">E-GeeK Incubator Plan</text>
	</g>
	<rect x="711" y="378" class="st28" width="30" height="2"/>
</g>
<g id="_x38_00x800">
	<g>
		<g>
			<defs>
				<rect id="SVGID_3_" x="-989" width="800" height="800"/>
			</defs>
			<clipPath id="SVGID_4_">
				<use xlink:href="#SVGID_3_"  style="overflow:visible;"/>
			</clipPath>
			<polygon class="st29" points="-342,1134 -710.9,776.3 -508.7,659.7 -224,776.9 			"/>
			<polygon class="st30" points="-823.7,1000.6 -991.7,609 -1036,618.1 -951.5,1102.7 			"/>
			<polygon class="st29" points="-263.1,826.9 888,1395.3 46,579.2 -156.6,551.9 			"/>
			<polygon class="st29" points="-762.7,599.3 -947,496.8 -814.1,486.1 -552.7,544.6 			"/>
			<polygon class="st31" points="-705.2,575.5 -553,636.7 -872,786 -954.4,636.7 			"/>
			<polygon class="st32" points="-508.2,572.7 -269.2,633.9 -388,786 -678.2,633.9 			"/>
			<polygon class="st33" points="-601.1,571.8 -738.4,529.9 -828.2,544.3 -706.7,602.4 			"/>
			<polygon class="st34" points="-929.4,591.1 -1013.4,493.6 -908.4,486.1 -726.1,550.9 			"/>
			<polygon class="st33" points="-98.5,730.6 -585.5,579.2 -352,505.6 -105.4,531.9 			"/>
			<polygon class="st31" points="-355,975.1 -568.3,811.9 -433,699.1 -263.1,771.2 			"/>
			<polygon class="st33" points="-1083.9,1000.6 -1078.7,798.9 -816.9,699.1 -729.5,792.8 			"/>
			<polygon class="st35" points="-1172.7,703.8 -1121.8,568.8 -921.3,541.1 -825.2,614 			"/>
			<path class="st36" d="M-920.8,575c-5.2,0.9-8.7,2.5-7.8,3.4c0.9,1,6,1,11.2,0c5.2-1,8.5-2.5,7.5-3.4
				C-910.8,574.1-915.7,574.1-920.8,575z"/>
			<path class="st36" d="M-928.1,567.9c-5,0.8-8.4,2.2-7.5,3.1c0.8,0.9,5.6,0.9,10.7,0c5-0.9,8.2-2.3,7.3-3.1
				C-918.5,567.1-923.2,567.1-928.1,567.9z"/>
			<path class="st36" d="M-934.6,561.4c-4.8,0.8-8.1,2-7.3,2.8c0.7,0.8,5.3,0.8,10.2,0c4.8-0.8,7.9-2,7.1-2.8
				C-925.5,560.7-929.9,560.7-934.6,561.4z"/>
			<path class="st36" d="M-940.6,555.5c-4.6,0.7-7.8,1.8-7.1,2.6c0.7,0.7,5.1,0.7,9.7,0c4.6-0.7,7.7-1.9,6.9-2.6
				C-931.9,554.8-936.1,554.8-940.6,555.5z"/>
			<path class="st36" d="M-946.1,550.1c-4.4,0.6-7.5,1.7-6.9,2.3c0.6,0.7,4.8,0.7,9.3,0c4.4-0.7,7.4-1.7,6.7-2.3
				C-937.7,549.5-941.7,549.5-946.1,550.1z"/>
			<path class="st36" d="M-951.1,545.2c-4.3,0.6-7.3,1.6-6.7,2.2c0.6,0.6,4.6,0.6,8.9,0c4.3-0.6,7.2-1.6,6.6-2.2
				C-943,544.6-946.9,544.6-951.1,545.2z"/>
			<path class="st36" d="M-955.8,540.6c-4.1,0.5-7,1.4-6.5,2c0.5,0.6,4.4,0.6,8.5,0c4.1-0.6,7-1.4,6.4-2
				C-947.9,540.1-951.7,540.1-955.8,540.6z"/>
			<path class="st36" d="M-960,536.4c-4,0.5-6.8,1.3-6.3,1.8c0.5,0.5,4.2,0.5,8.2,0c4-0.5,6.8-1.3,6.2-1.8
				C-952.5,535.9-956.1,535.9-960,536.4z"/>
			<path class="st36" d="M-964,532.5c-3.8,0.5-6.6,1.2-6.2,1.7c0.5,0.5,4,0.5,7.9,0c3.9-0.5,6.6-1.2,6.1-1.7
				C-956.7,532-960.2,532-964,532.5z"/>
			<path class="st36" d="M-967.7,528.8c-3.7,0.4-6.4,1.1-6,1.6c0.4,0.4,3.9,0.4,7.6,0c3.7-0.4,6.4-1.2,5.9-1.6
				C-960.7,528.4-964,528.4-967.7,528.8z"/>
			<path class="st36" d="M-971.1,525.4c-3.6,0.4-6.3,1.1-5.9,1.5c0.4,0.4,3.7,0.4,7.4,0c3.6-0.4,6.2-1.1,5.8-1.5
				C-964.3,525-967.6,525-971.1,525.4z"/>
			<path class="st36" d="M-974.4,522.3c-3.5,0.4-6.1,1-5.7,1.4c0.4,0.4,3.6,0.4,7.1,0c3.5-0.4,6-1,5.6-1.4
				C-967.8,521.9-970.9,521.9-974.4,522.3z"/>
			<path class="st36" d="M-977.4,519.3c-3.4,0.4-5.9,0.9-5.6,1.3c0.3,0.4,3.4,0.4,6.9,0c3.4-0.4,5.9-0.9,5.5-1.3
				C-971,518.9-974,518.9-977.4,519.3z"/>
			<path class="st36" d="M-980.2,516.5c-3.3,0.3-5.8,0.9-5.4,1.2c0.3,0.3,3.3,0.3,6.7,0c3.3-0.3,5.7-0.9,5.3-1.2
				C-974,516.2-976.9,516.2-980.2,516.5z"/>
			<path class="st36" d="M-982.9,513.9c-3.2,0.3-5.6,0.8-5.3,1.1c0.3,0.3,3.2,0.3,6.5,0c3.2-0.3,5.6-0.8,5.2-1.1
				C-976.8,513.6-979.7,513.6-982.9,513.9z"/>
			<path class="st36" d="M-985.4,511.4c-3.1,0.3-5.5,0.8-5.2,1.1c0.3,0.3,3.1,0.3,6.3,0c3.2-0.3,5.4-0.8,5.1-1.1
				C-979.5,511.1-982.2,511.1-985.4,511.4z"/>
			<path class="st36" d="M-987.7,509.1c-3.1,0.3-5.3,0.7-5.1,1c0.3,0.3,3,0.3,6.1,0c3.1-0.3,5.3-0.7,5-1
				C-982,508.8-984.7,508.8-987.7,509.1z"/>
			<path class="st36" d="M-989.9,506.9c-3,0.3-5.2,0.7-5,1c0.3,0.3,2.9,0.3,5.9,0c3-0.3,5.2-0.7,4.9-1
				C-984.4,506.6-987,506.7-989.9,506.9z"/>
			<path class="st36" d="M-992.1,504.8c-2.9,0.3-5.1,0.7-4.8,0.9c0.2,0.3,2.8,0.3,5.8,0c2.9-0.3,5-0.7,4.8-0.9
				C-986.6,504.6-989.2,504.6-992.1,504.8z"/>
			<path class="st36" d="M-994.1,502.9c-2.8,0.2-5,0.6-4.7,0.9c0.2,0.2,2.8,0.2,5.6,0c2.9-0.2,4.9-0.6,4.7-0.9
				C-988.8,502.6-991.2,502.6-994.1,502.9z"/>
			<path class="st36" d="M-996,501c-2.8,0.2-4.9,0.6-4.6,0.8c0.2,0.2,2.7,0.2,5.5,0c2.8-0.2,4.8-0.6,4.6-0.8
				C-990.8,500.8-993.2,500.8-996,501z"/>
			<path class="st36" d="M-997.8,499.2c-2.7,0.2-4.8,0.6-4.5,0.8c0.2,0.2,2.6,0.2,5.3,0c2.7-0.2,4.7-0.6,4.5-0.8
				C-992.7,499-995.1,499-997.8,499.2z"/>
			<path class="st36" d="M-999.5,497.5c-2.6,0.2-4.6,0.5-4.5,0.7c0.2,0.2,2.5,0.2,5.2,0c2.7-0.2,4.6-0.5,4.4-0.7
				C-994.6,497.3-996.9,497.3-999.5,497.5z"/>
			<path class="st36" d="M-485.1,758.1c3.9-3.5,12.1-3.5,18.4,0c6.5,3.5,8.7,9.4,4.9,13.1c-3.9,3.8-12.6,3.8-19.2,0
				C-487.4,767.5-489.1,761.6-485.1,758.1z"/>
			<path class="st36" d="M-452.1,776.6c3.8-3.8,12.4-3.8,19.5,0c7.2,3.9,10.3,10.5,6.6,14.7c-3.7,4.3-12.9,4.3-20.3,0
				C-453.5,787.1-456,780.6-452.1,776.6z"/>
			<path class="st36" d="M-415.2,797.4c3.6-4.3,12.7-4.3,20.6,0c8.1,4.4,12.1,11.8,8.7,16.5c-3.5,4.8-13.2,4.8-21.6,0
				C-415.5,809.3-418.9,801.9-415.2,797.4z"/>
			<path class="st36" d="M-373.6,820.9c3.3-4.9,13-4.9,21.9,0c9.2,5,14.4,13.4,11.4,18.8c-3.1,5.5-13.5,5.5-23,0
				C-372.5,834.3-377,825.9-373.6,820.9z"/>
			<path class="st36" d="M-326.4,847.5c2.9-5.6,13.2-5.6,23.4,0c10.5,5.7,17.2,15.3,14.7,21.5c-2.6,6.3-13.8,6.3-24.6,0
				C-323.5,862.8-329.3,853.2-326.4,847.5z"/>
			<path class="st37" d="M-442.5,695c2.7-2.2,9.1-2.2,14.4,0c5.3,2.2,7.6,5.9,5,8.2c-2.7,2.4-9.4,2.4-14.8,0
				C-443.3,700.9-445.2,697.3-442.5,695z"/>
			<g class="st38">
				<polygon class="st10" points="-693.1,-531.8 -990.7,177.2 -601.1,259.8 -230.8,177.2 				"/>
				<polygon class="st11" points="2,149.6 -271.3,204.3 -589,-108.4 889.3,-1563.3 				"/>
				<polygon class="st11" points="-737.5,82.7 -668.7,24.2 -815.4,-64.9 -868.1,24.2 				"/>
				<polygon class="st10" points="-424.5,168.7 -753.1,268.3 -502,305.6 -246,279.2 				"/>
				<path class="st12" d="M-478,194.2c-2.6-1.2-8-1.2-12,0c-4,1.2-5,3-2.4,4.2c2.6,1.1,7.8,1.1,11.7,0
					C-476.7,197.2-475.5,195.3-478,194.2z"/>
				<path class="st12" d="M-451,186.4c-2.5-1.3-8.2-1.3-12.6,0c-4.4,1.3-5.7,3.3-3.2,4.5c2.5,1.2,8,1.2,12.3,0
					C-450.2,189.7-448.5,187.7-451,186.4z"/>
				<path class="st12" d="M-421.4,177.9c-2.4-1.4-8.3-1.4-13.2,0c-4.8,1.4-6.6,3.6-4.1,5c2.4,1.3,8.1,1.3,12.8,0
					C-421.1,181.5-419,179.3-421.4,177.9z"/>
				<path class="st12" d="M-970.3,191.1c4.2,0.9,8.1,0.9,8.6,0c0.5-0.9-2.5-2.3-6.8-3.2c-4.3-0.9-8.3-0.9-8.8,0
					C-977.7,188.8-974.5,190.2-970.3,191.1z"/>
				<path class="st12" d="M-949,195.4c4,0.8,7.8,0.8,8.4,0c0.6-0.8-2.2-2.2-6.2-3c-4.1-0.8-8-0.8-8.5,0
					C-956,193.2-953.1,194.5-949,195.4z"/>
				<path class="st12" d="M-928.9,199.4c3.8,0.8,7.5,0.8,8.2,0c0.7-0.8-1.9-2.1-5.7-2.9c-3.9-0.8-7.7-0.8-8.3,0
					C-935.4,197.4-932.7,198.6-928.9,199.4z"/>
				<path class="st12" d="M-909.6,203.3c3.7,0.7,7.2,0.7,8,0c0.8-0.7-1.6-2-5.3-2.7c-3.7-0.8-7.4-0.8-8.1,0
					C-915.7,201.3-913.3,202.5-909.6,203.3z"/>
				<path class="st12" d="M-891.2,207c3.5,0.7,7,0.7,7.8,0c0.8-0.7-1.3-1.9-4.9-2.6c-3.6-0.7-7.1-0.7-7.9,0
					C-897,205.1-894.8,206.3-891.2,207z"/>
				<path class="st12" d="M-873.7,210.5c3.3,0.7,6.7,0.7,7.6,0c0.9-0.7-1.1-1.8-4.5-2.5c-3.4-0.7-6.9-0.7-7.8,0
					C-879.1,208.7-877.1,209.8-873.7,210.5z"/>
				<path class="st12" d="M-856.9,213.9c3.2,0.6,6.5,0.6,7.5,0c0.9-0.6-0.9-1.7-4.1-2.4c-3.3-0.7-6.7-0.7-7.6,0
					C-862.1,212.2-860.1,213.2-856.9,213.9z"/>
				<path class="st12" d="M-840.9,217.1c3.1,0.6,6.3,0.6,7.3,0c1-0.6-0.7-1.6-3.8-2.3c-3.1-0.6-6.5-0.6-7.4,0
					C-845.7,215.4-844,216.5-840.9,217.1z"/>
				<path class="st12" d="M-825.5,220.2c2.9,0.6,6.1,0.6,7.1,0c1-0.6-0.5-1.6-3.5-2.2c-3-0.6-6.3-0.6-7.3,0
					C-830.1,218.6-828.4,219.6-825.5,220.2z"/>
				<path class="st12" d="M-810.7,223.1c2.8,0.6,5.9,0.6,7,0c1.1-0.6-0.3-1.5-3.2-2.1c-2.9-0.6-6.1-0.6-7.1,0
					C-815.1,221.6-813.6,222.6-810.7,223.1z"/>
				<path class="st12" d="M-796.6,226c2.7,0.5,5.8,0.5,6.9,0c1.1-0.5-0.2-1.4-2.9-2c-2.7-0.6-5.9-0.6-7,0
					C-800.7,224.5-799.3,225.4-796.6,226z"/>
				<path class="st12" d="M-783,228.7c2.6,0.5,5.6,0.5,6.7,0c1.1-0.5,0-1.4-2.7-1.9c-2.6-0.5-5.7-0.5-6.8,0
					C-786.9,227.3-785.6,228.2-783,228.7z"/>
				<path class="st12" d="M-769.9,231.3c2.5,0.5,5.4,0.5,6.6,0c1.2-0.5,0.1-1.3-2.4-1.8c-2.5-0.5-5.5-0.5-6.7,0
					C-773.6,230-772.5,230.8-769.9,231.3z"/>
				<path class="st12" d="M-757.4,233.8c2.4,0.5,5.3,0.5,6.5,0c1.2-0.5,0.2-1.3-2.2-1.8c-2.4-0.5-5.4-0.5-6.6,0
					C-760.8,232.6-759.8,233.4-757.4,233.8z"/>
				<path class="st12" d="M-745.3,236.3c2.3,0.5,5.1,0.5,6.3,0c1.2-0.5,0.3-1.2-2-1.7c-2.3-0.5-5.2-0.5-6.4,0
					C-748.6,235-747.6,235.8-745.3,236.3z"/>
				<path class="st12" d="M-733.6,238.6c2.2,0.4,5,0.4,6.2,0c1.2-0.5,0.4-1.2-1.8-1.6c-2.3-0.5-5.1-0.5-6.3,0
					C-736.7,237.4-735.9,238.2-733.6,238.6z"/>
				<path class="st12" d="M-722.4,240.9c2.2,0.4,4.9,0.4,6.1,0c1.2-0.4,0.5-1.1-1.6-1.6c-2.2-0.4-5-0.4-6.2,0
					C-725.3,239.7-724.6,240.4-722.4,240.9z"/>
				<path class="st12" d="M-711.5,243c2.1,0.4,4.8,0.4,6,0c1.3-0.4,0.6-1.1-1.5-1.5c-2.1-0.4-4.8-0.4-6.1,0
					C-714.3,241.9-713.6,242.6-711.5,243z"/>
				<path class="st12" d="M-701.1,245.1c2,0.4,4.6,0.4,5.9,0c1.3-0.4,0.7-1.1-1.3-1.5c-2-0.4-4.7-0.4-6,0
					C-703.7,244.1-703.1,244.7-701.1,245.1z"/>
				<polygon class="st13" points="-533.4,-22.9 -941.8,272.1 -638.4,305.6 -233.4,250.6 				"/>
				<polygon class="st14" points="-578.4,-220.9 -758.7,-6 -555.5,109.7 -382,23.8 				"/>
				<polygon class="st15" points="-223,149.6 -450.3,207.2 -295,278.6 -162.2,263.9 				"/>
				<polygon class="st13" points="-134.5,16.1 -274.3,68.2 -365.5,-94.9 -152.7,-233.6 				"/>
				<polygon class="st16" points="-934.1,313.8 -647.7,207.2 -845.4,149.6 -1011.7,309 				"/>
				<polygon class="st16" points="-962.4,157.1 -882.8,2.5 -1026.9,-64.9 -1046.7,136.7 				"/>
				<polygon class="st13" points="-852.9,77.6 -797.5,4.1 -929.4,-64.9 -962.1,35.6 				"/>
				<polygon class="st17" points="-873.5,251.5 -899.6,266.5 -887.5,268 -860.1,253.5 				"/>
				<polygon class="st17" points="-817.4,219.2 -859,243.1 -844.9,245.4 -801.4,222.5 				"/>
				<polygon class="st17" points="-729.7,168.7 -801.2,209.9 -784.7,213.6 -711,174.6 				"/>
				<polygon class="st17" points="-564.2,73.5 -707.8,156.1 -688.7,162.8 -544.1,86.4 				"/>
				<polygon class="st17" points="-125.2,-179.1 -527.6,52.4 -507.8,67.2 -123.9,-135.9 				"/>
				<path class="st18" d="M-563.1,113.5c-3.7-2.1-3.4-5.5,0.8-7.6c4.3-2.2,10.9-2.2,14.6,0c3.7,2.2,3.1,5.6-1.2,7.6
					C-553.1,115.5-559.5,115.5-563.1,113.5z"/>
				<path class="st18" d="M-762.9-1c-4.9-2.7-7.1-7.2-4.8-10c2.3-2.9,8.3-2.9,13.2,0c4.9,2.8,6.8,7.3,4.4,10
					C-752.4,1.7-758.1,1.7-762.9-1z"/>
				<path class="st19" d="M-850.3,74.1c-5-2-10.2-2-11.6,0c-1.4,1.9,1.5,5,6.5,6.9c4.8,1.8,9.9,1.8,11.4,0
					C-842.7,79.1-845.4,76.1-850.3,74.1z"/>
				<path class="st19" d="M-794.8,0.5c-3.8-2-8.1-2-9.5,0c-1.4,2,0.5,5.2,4.2,7.1c3.7,1.9,7.9,1.9,9.3,0
					C-789.3,5.7-791,2.5-794.8,0.5z"/>
				<path class="st20" d="M-960.2,152.8c-9.9-2.5-19-2.5-20,0c-1,2.4,6.1,6.2,15.6,8.4c9.3,2.2,17.8,2.2,19.2,0
					C-944,159-950.5,155.2-960.2,152.8z"/>
				<path class="st20" d="M-880.3-2.3c-5.7-2.7-11.5-2.7-12.8,0c-1.3,2.7,2.3,6.9,7.9,9.5c5.5,2.5,11.1,2.5,12.5,0
					C-871.3,4.6-874.6,0.3-880.3-2.3z"/>
			</g>
			<polygon class="st39" points="-771,806 -779.3,795.5 -753.7,781.5 -745,791.2 			"/>
			<polygon class="st39" points="-807.7,826.9 -815.4,815.2 -787,799.7 -778.9,810.5 			"/>
			<polygon class="st39" points="-848.8,850.3 -855.6,837.2 -824,819.9 -816.5,831.9 			"/>
			<polygon class="st39" points="-894.9,876.5 -900.6,861.8 -865.1,842.4 -858.5,855.8 			"/>
			<polygon class="st39" points="-947.2,906.3 -951.4,889.6 -911.4,867.7 -905.9,882.8 			"/>
			<polygon class="st39" points="-1006.9,940.3 -1009.2,921.2 -963.6,896.3 -959.7,913.5 			"/>
			<polyline class="st32" points="-484.2,693.4 -340.5,592.1 -62.9,654.3 			"/>
			<path class="st40" d="M-492.7,689.5c-3.1,2.1-1.9,5.6,2.9,7.8c4.8,2.2,11.4,2.2,14.4,0c3-2.2,1.5-5.7-3.3-7.8
				C-483.4,687.5-489.7,687.5-492.7,689.5z"/>
			<polygon class="st41" points="-1085.5,485.3 -2727.1,6090.1 -376.9,1008.2 -1007.2,480.8 			"/>
			<polygon class="st42" points="-504.5,579.2 -299,633.9 -407.7,751.1 -648.4,633.9 			"/>
			<polygon class="st33" points="-1197.9,720.1 -1130.3,567.4 -917.4,538.6 -809.9,616.3 			"/>
		</g>
		<text transform="matrix(1 0 0 1 -827.496 397.6167)" class="st25" style="font-family:'Montserrat-Bold'; font-size:37.9353px;">CREATIVE TECHNOLOGY</text>
	</g>
</g>
<g id="Designed_by_Freepik" class="st43">
	<path id="Designed_By_Freepik_1_" class="st44" d="M-700.5,420.5v-0.3c-0.3,0.4-0.7,0.7-1,1c-0.3,0.3-0.7,0.4-1.1,0.6
		c-0.4,0.1-0.8,0.2-1.3,0.2c-0.6,0-1.2-0.1-1.7-0.4c-0.5-0.3-1-0.6-1.4-1.1c-0.4-0.5-0.7-1.1-0.9-1.7c-0.2-0.7-0.3-1.4-0.3-2.1
		c0-1.6,0.4-2.9,1.2-3.8c0.8-0.9,1.8-1.4,3.1-1.4c0.7,0,1.4,0.1,1.9,0.4c0.5,0.3,1,0.7,1.5,1.2v-3.8c0-0.5,0.1-0.9,0.3-1.2
		c0.2-0.3,0.5-0.4,0.9-0.4c0.4,0,0.7,0.1,0.9,0.4c0.2,0.3,0.3,0.6,0.3,1.1v11.4c0,0.5-0.1,0.9-0.3,1.1c-0.2,0.2-0.5,0.4-0.9,0.4
		c-0.4,0-0.6-0.1-0.9-0.4C-700.4,421.3-700.5,420.9-700.5,420.5 M-705.6,416.7c0,0.7,0.1,1.3,0.3,1.8c0.2,0.5,0.5,0.9,0.9,1.1
		c0.4,0.3,0.8,0.4,1.2,0.4c0.5,0,0.9-0.1,1.3-0.4c0.4-0.2,0.7-0.6,0.9-1.1c0.2-0.5,0.3-1.1,0.3-1.8c0-0.7-0.1-1.3-0.3-1.8
		c-0.2-0.5-0.5-0.9-0.9-1.1c-0.4-0.3-0.8-0.4-1.3-0.4c-0.5,0-0.9,0.1-1.3,0.4c-0.4,0.3-0.7,0.7-0.9,1.2
		C-705.5,415.4-705.6,416-705.6,416.7 M-689.1,417.3h-5.1c0,0.6,0.1,1.1,0.4,1.6c0.2,0.5,0.5,0.8,0.9,1c0.4,0.2,0.8,0.3,1.3,0.3
		c0.3,0,0.6,0,0.9-0.1c0.3-0.1,0.5-0.2,0.7-0.3c0.2-0.2,0.5-0.3,0.7-0.5c0.2-0.2,0.5-0.4,0.8-0.7c0.1-0.1,0.3-0.2,0.6-0.2
		c0.3,0,0.5,0.1,0.6,0.2c0.2,0.1,0.2,0.4,0.2,0.6c0,0.2-0.1,0.5-0.3,0.8c-0.2,0.3-0.5,0.6-0.8,0.9c-0.4,0.3-0.8,0.5-1.4,0.7
		c-0.6,0.2-1.2,0.3-1.9,0.3c-1.7,0-3-0.5-3.9-1.4c-0.9-0.9-1.4-2.2-1.4-3.9c0-0.8,0.1-1.5,0.3-2.1c0.2-0.7,0.6-1.2,1-1.7
		c0.4-0.5,1-0.8,1.6-1.1c0.6-0.3,1.3-0.4,2.1-0.4c1,0,1.9,0.2,2.6,0.6c0.7,0.4,1.3,1,1.6,1.7c0.4,0.7,0.5,1.4,0.5,2.1
		c0,0.7-0.2,1.1-0.6,1.3C-687.9,417.2-688.4,417.3-689.1,417.3 M-694.2,415.8h4.7c-0.1-0.9-0.3-1.6-0.7-2c-0.4-0.4-1-0.7-1.6-0.7
		c-0.6,0-1.2,0.2-1.6,0.7C-693.8,414.3-694.1,415-694.2,415.8 M-677.3,418.6c0-0.5-0.1-0.9-0.4-1.3c-0.3-0.4-0.7-0.7-1.2-1
		c-0.5-0.3-1.2-0.5-2-0.7c-0.7-0.2-1.2-0.3-1.6-0.4c-0.4-0.1-0.7-0.3-0.9-0.4c-0.2-0.2-0.3-0.4-0.3-0.7c0-0.3,0.2-0.5,0.5-0.7
		c0.3-0.2,0.7-0.3,1.2-0.3c0.5,0,0.8,0.1,1.1,0.2c0.3,0.2,0.5,0.4,0.7,0.6c0.2,0.3,0.5,0.5,0.6,0.7c0.2,0.2,0.4,0.2,0.7,0.2
		c0.4,0,0.7-0.1,0.9-0.3c0.2-0.2,0.3-0.4,0.3-0.7c0-0.3-0.1-0.6-0.3-0.8c-0.2-0.3-0.5-0.5-0.8-0.8c-0.4-0.2-0.8-0.4-1.3-0.6
		c-0.5-0.1-1.1-0.2-1.8-0.2c-0.9,0-1.6,0.1-2.2,0.4c-0.6,0.3-1.1,0.6-1.4,1.1c-0.3,0.5-0.5,1-0.5,1.5c0,0.6,0.2,1.1,0.5,1.5
		c0.3,0.4,0.8,0.7,1.3,1c0.6,0.2,1.3,0.5,2.2,0.7c0.8,0.2,1.4,0.4,1.7,0.6c0.3,0.2,0.5,0.5,0.5,1c0,0.3-0.2,0.6-0.5,0.8
		c-0.3,0.2-0.8,0.3-1.3,0.3c-0.6,0-1.1-0.1-1.5-0.3c-0.4-0.2-0.7-0.6-1-1c-0.1-0.2-0.3-0.4-0.4-0.6c-0.1-0.1-0.4-0.2-0.6-0.2
		c-0.3,0-0.6,0.1-0.8,0.3c-0.2,0.2-0.3,0.4-0.3,0.7c0,0.4,0.2,0.9,0.5,1.3c0.3,0.4,0.8,0.8,1.5,1.1c0.7,0.3,1.5,0.4,2.4,0.4
		c1,0,1.8-0.1,2.5-0.4c0.7-0.3,1.2-0.6,1.5-1.2C-677.5,419.9-677.3,419.3-677.3,418.6 M-674.6,410.2c-0.4,0-0.7-0.1-0.9-0.3
		c-0.3-0.2-0.4-0.5-0.4-0.9c0-0.4,0.1-0.7,0.4-0.9c0.3-0.2,0.6-0.4,0.9-0.4c0.3,0,0.6,0.1,0.9,0.3c0.3,0.2,0.4,0.5,0.4,0.9
		c0,0.4-0.1,0.7-0.4,0.9C-674,410.1-674.3,410.2-674.6,410.2 M-673.4,412.9v7.5c0,0.5-0.1,0.9-0.4,1.2c-0.2,0.3-0.6,0.4-0.9,0.4
		s-0.7-0.1-0.9-0.4c-0.2-0.3-0.4-0.7-0.4-1.2V413c0-0.5,0.1-0.9,0.4-1.2c0.2-0.3,0.5-0.4,0.9-0.4s0.7,0.1,0.9,0.4
		C-673.5,412.1-673.4,412.4-673.4,412.9 M-662,413.3v7.5c0,0.9-0.1,1.6-0.3,2.2c-0.2,0.6-0.5,1.1-0.9,1.5c-0.4,0.4-0.9,0.7-1.6,0.9
		c-0.7,0.2-1.5,0.3-2.4,0.3c-0.9,0-1.7-0.1-2.4-0.4c-0.7-0.3-1.2-0.6-1.6-1c-0.4-0.4-0.6-0.8-0.6-1.2c0-0.3,0.1-0.6,0.3-0.8
		c0.2-0.2,0.5-0.3,0.8-0.3c0.4,0,0.7,0.2,1,0.5c0.1,0.2,0.3,0.3,0.4,0.5c0.1,0.2,0.3,0.3,0.5,0.4c0.2,0.1,0.4,0.2,0.7,0.3
		c0.3,0.1,0.5,0.1,0.9,0.1c0.7,0,1.2-0.1,1.6-0.3c0.4-0.2,0.6-0.4,0.8-0.8c0.1-0.3,0.2-0.7,0.3-1.1c0-0.4,0-1,0.1-1.8
		c-0.4,0.6-0.9,1-1.4,1.3c-0.5,0.3-1.1,0.4-1.9,0.4c-0.9,0-1.6-0.2-2.3-0.7c-0.6-0.4-1.1-1.1-1.5-1.9c-0.3-0.8-0.5-1.7-0.5-2.8
		c0-0.8,0.1-1.5,0.3-2.1c0.2-0.6,0.5-1.2,0.9-1.6c0.4-0.4,0.8-0.8,1.4-1c0.5-0.2,1.1-0.3,1.7-0.3c0.7,0,1.4,0.1,1.9,0.4
		c0.5,0.3,1,0.7,1.5,1.3v-0.4c0-0.5,0.1-0.8,0.3-1c0.2-0.2,0.5-0.4,0.9-0.4c0.5,0,0.8,0.2,1,0.5C-662.1,412.2-662,412.7-662,413.3
		 M-669.5,416.6c0,1.1,0.2,1.8,0.7,2.4c0.5,0.5,1.1,0.8,1.8,0.8c0.4,0,0.8-0.1,1.2-0.3c0.4-0.2,0.7-0.6,0.9-1c0.2-0.5,0.4-1,0.4-1.7
		c0-1.1-0.2-1.9-0.7-2.5c-0.5-0.6-1.1-0.9-1.8-0.9c-0.7,0-1.3,0.3-1.8,0.8C-669.3,414.8-669.5,415.6-669.5,416.6 M-657.9,412.8
		c0-0.3-0.1-0.6-0.2-0.8c-0.1-0.2-0.3-0.4-0.4-0.5c-0.2-0.1-0.4-0.2-0.6-0.2c-0.4,0-0.7,0.1-0.9,0.4c-0.2,0.2-0.3,0.6-0.3,1.1v7.5
		c0,0.5,0.1,0.9,0.4,1.2c0.2,0.3,0.5,0.4,0.9,0.4c0.4,0,0.7-0.1,0.9-0.4c0.2-0.3,0.4-0.7,0.4-1.2v-3.2c0-1.1,0.1-1.8,0.2-2.2
		c0.2-0.5,0.5-0.9,0.8-1.1c0.4-0.3,0.8-0.4,1.3-0.4c0.7,0,1.2,0.2,1.4,0.7c0.2,0.5,0.4,1.1,0.4,2v4.3c0,0.5,0.1,0.9,0.4,1.2
		c0.2,0.3,0.6,0.4,0.9,0.4c0.4,0,0.7-0.1,0.9-0.4c0.2-0.3,0.4-0.7,0.4-1.2v-4.8c0-0.6,0-1-0.1-1.4c0-0.4-0.2-0.7-0.3-1
		c-0.3-0.5-0.7-1-1.2-1.3c-0.5-0.3-1.1-0.4-1.8-0.4c-0.7,0-1.3,0.1-1.9,0.4c-0.5,0.3-1,0.7-1.5,1.3V412.8 M-642.1,417.3h-5.1
		c0,0.6,0.1,1.1,0.4,1.6c0.2,0.5,0.5,0.8,0.9,1c0.4,0.2,0.8,0.3,1.3,0.3c0.3,0,0.6,0,0.9-0.1c0.3-0.1,0.5-0.2,0.7-0.3
		c0.2-0.2,0.5-0.3,0.7-0.5c0.2-0.2,0.5-0.4,0.8-0.7c0.1-0.1,0.3-0.2,0.6-0.2c0.3,0,0.5,0.1,0.6,0.2c0.2,0.1,0.2,0.4,0.2,0.6
		c0,0.2-0.1,0.5-0.3,0.8c-0.2,0.3-0.5,0.6-0.8,0.9c-0.4,0.3-0.8,0.5-1.4,0.7c-0.6,0.2-1.2,0.3-1.9,0.3c-1.7,0-3-0.5-3.9-1.4
		c-0.9-0.9-1.4-2.2-1.4-3.9c0-0.8,0.1-1.5,0.3-2.1c0.2-0.7,0.6-1.2,1-1.7c0.4-0.5,1-0.8,1.6-1.1c0.6-0.3,1.3-0.4,2.1-0.4
		c1,0,1.9,0.2,2.6,0.6c0.7,0.4,1.3,1,1.6,1.7c0.4,0.7,0.5,1.4,0.5,2.1c0,0.7-0.2,1.1-0.6,1.3C-640.9,417.2-641.4,417.3-642.1,417.3
		 M-647.2,415.8h4.7c-0.1-0.9-0.3-1.6-0.7-2c-0.4-0.4-1-0.7-1.6-0.7c-0.6,0-1.2,0.2-1.6,0.7C-646.8,414.3-647.1,415-647.2,415.8
		 M-631.5,420.5v-0.3c-0.3,0.4-0.7,0.7-1,1c-0.3,0.3-0.7,0.4-1.1,0.6c-0.4,0.1-0.8,0.2-1.3,0.2c-0.6,0-1.2-0.1-1.7-0.4
		c-0.5-0.3-1-0.6-1.4-1.1c-0.4-0.5-0.7-1.1-0.9-1.7c-0.2-0.7-0.3-1.4-0.3-2.1c0-1.6,0.4-2.9,1.2-3.8c0.8-0.9,1.8-1.4,3.1-1.4
		c0.7,0,1.4,0.1,1.9,0.4c0.5,0.3,1,0.7,1.5,1.2v-3.8c0-0.5,0.1-0.9,0.3-1.2c0.2-0.3,0.5-0.4,0.9-0.4c0.4,0,0.7,0.1,0.9,0.4
		s0.3,0.6,0.3,1.1v11.4c0,0.5-0.1,0.9-0.3,1.1c-0.2,0.2-0.5,0.4-0.9,0.4c-0.4,0-0.6-0.1-0.9-0.4
		C-631.4,421.3-631.5,420.9-631.5,420.5 M-636.6,416.7c0,0.7,0.1,1.3,0.3,1.8c0.2,0.5,0.5,0.9,0.9,1.1c0.4,0.3,0.8,0.4,1.2,0.4
		c0.5,0,0.9-0.1,1.2-0.4c0.4-0.2,0.7-0.6,0.9-1.1c0.2-0.5,0.3-1.1,0.3-1.8c0-0.7-0.1-1.3-0.3-1.8c-0.2-0.5-0.5-0.9-0.9-1.1
		c-0.4-0.3-0.8-0.4-1.3-0.4c-0.5,0-0.9,0.1-1.3,0.4c-0.4,0.3-0.7,0.7-0.9,1.2C-636.5,415.4-636.6,416-636.6,416.7 M-620.9,409v4
		c0.5-0.5,1-0.9,1.5-1.2c0.5-0.3,1.1-0.4,1.9-0.4c0.9,0,1.6,0.2,2.3,0.6c0.6,0.4,1.2,1,1.5,1.8c0.4,0.8,0.5,1.7,0.5,2.8
		c0,0.8-0.1,1.5-0.3,2.2c-0.2,0.7-0.5,1.2-0.9,1.7c-0.4,0.5-0.8,0.9-1.4,1.1c-0.5,0.3-1.1,0.4-1.8,0.4c-0.4,0-0.8,0-1.1-0.1
		c-0.4-0.1-0.7-0.2-0.9-0.4c-0.2-0.2-0.5-0.3-0.6-0.5c-0.2-0.2-0.4-0.4-0.7-0.7v0.3c0,0.5-0.1,0.9-0.4,1.1c-0.2,0.3-0.5,0.4-0.9,0.4
		c-0.4,0-0.7-0.1-0.9-0.4c-0.2-0.3-0.3-0.6-0.3-1.1v-11.3c0-0.5,0.1-0.9,0.3-1.2c0.2-0.3,0.5-0.4,0.9-0.4c0.4,0,0.7,0.1,0.9,0.4
		C-621.1,408.2-620.9,408.6-620.9,409 M-620.8,416.7c0,1,0.2,1.8,0.7,2.4c0.5,0.6,1.1,0.8,1.9,0.8c0.7,0,1.2-0.3,1.7-0.8
		c0.5-0.6,0.7-1.4,0.7-2.4c0-0.7-0.1-1.3-0.3-1.8c-0.2-0.5-0.5-0.9-0.8-1.1c-0.4-0.3-0.8-0.4-1.3-0.4c-0.5,0-0.9,0.1-1.3,0.4
		c-0.4,0.3-0.7,0.7-0.9,1.2C-620.7,415.4-620.8,416-620.8,416.7 M-609.9,422.3c-0.2,0.4-0.3,0.7-0.5,1c-0.1,0.2-0.3,0.4-0.5,0.5
		c-0.2,0.1-0.4,0.1-0.7,0.1c-0.1,0-0.3,0-0.4-0.1c-0.1,0-0.3-0.1-0.4-0.1c-0.4,0-0.6,0.1-0.8,0.2c-0.2,0.2-0.3,0.4-0.3,0.7
		c0,0.4,0.2,0.7,0.6,0.9c0.4,0.2,0.9,0.2,1.7,0.2c0.8,0,1.4-0.1,1.9-0.4c0.5-0.2,0.8-0.6,1.1-1c0.3-0.4,0.6-1.1,0.9-1.8l3.4-8.9
		c0.1-0.2,0.2-0.5,0.2-0.7c0.1-0.2,0.1-0.4,0.1-0.5c0-0.2,0-0.4-0.1-0.6c-0.1-0.2-0.2-0.3-0.4-0.4c-0.2-0.1-0.4-0.2-0.6-0.2
		c-0.3,0-0.5,0-0.6,0.1c-0.1,0.1-0.3,0.3-0.4,0.6c-0.1,0.3-0.3,0.7-0.4,1.1l-2.1,5.9l-2.2-6.4c-0.1-0.4-0.3-0.8-0.5-1
		c-0.2-0.2-0.5-0.4-0.8-0.4c-0.2,0-0.4,0.1-0.6,0.2c-0.2,0.1-0.4,0.3-0.5,0.5c-0.1,0.2-0.2,0.4-0.2,0.6c0,0.2,0.1,0.5,0.3,1l3.2,8
		L-609.9,422.3 M-572.3,411.6c-0.9,0-1.3,0.3-1.3,0.9c0,0.3,0.1,0.5,0.3,0.7c0.2,0.2,0.5,0.3,0.9,0.3h0.7v6.9c0,0.5,0.1,0.9,0.4,1.2
		c0.2,0.3,0.6,0.4,0.9,0.4c0.4,0,0.7-0.1,0.9-0.4c0.2-0.3,0.4-0.7,0.4-1.2v-6.9h0.6c0.5,0,0.8-0.1,1.1-0.2c0.3-0.1,0.4-0.4,0.4-0.8
		c0-0.6-0.5-0.9-1.5-0.9h-0.6V411c0-0.5,0.1-0.9,0.2-1.2c0.1-0.3,0.4-0.4,0.9-0.4c0.2,0,0.4,0,0.6,0.1c0.3,0,0.4,0.1,0.5,0.1
		c0.2,0,0.4-0.1,0.6-0.3c0.2-0.2,0.2-0.4,0.2-0.6c0-0.7-0.8-1.1-2.3-1.1c-0.9,0-1.5,0.1-2,0.3c-0.5,0.2-0.8,0.6-1,1
		c-0.2,0.5-0.3,1.1-0.3,1.9v0.8H-572.3 M-563.8,418.2c0-0.8,0-1.4,0.1-2c0.1-0.5,0.1-1,0.3-1.4c0.1-0.4,0.3-0.7,0.6-0.9
		c0.2-0.2,0.6-0.3,0.9-0.3c0.3,0,0.6,0.1,1,0.2c0.4,0.1,0.6,0.2,0.7,0.2c0.3,0,0.5-0.1,0.7-0.3c0.2-0.2,0.3-0.5,0.3-0.8
		c0-0.4-0.3-0.8-0.8-1.1c-0.5-0.3-1-0.4-1.6-0.4c-0.5,0-1,0.1-1.3,0.4c-0.3,0.3-0.6,0.7-0.9,1.2c0-0.5-0.1-0.9-0.3-1.2
		c-0.2-0.3-0.5-0.4-0.9-0.4c-0.8,0-1.3,0.6-1.3,1.8v7.2c0,0.5,0.1,0.9,0.4,1.2c0.2,0.3,0.5,0.4,0.9,0.4c0.4,0,0.7-0.1,0.9-0.4
		c0.2-0.3,0.4-0.7,0.4-1.2V418.2 M-551.9,417.3h-5.1c0,0.6,0.1,1.1,0.4,1.6c0.2,0.4,0.5,0.8,0.9,1c0.4,0.2,0.8,0.3,1.3,0.3
		c0.3,0,0.6,0,0.8-0.1c0.3-0.1,0.5-0.2,0.7-0.3c0.2-0.2,0.5-0.3,0.7-0.5c0.2-0.2,0.5-0.4,0.8-0.7c0.1-0.1,0.3-0.2,0.6-0.2
		c0.3,0,0.5,0.1,0.7,0.2c0.2,0.1,0.2,0.4,0.2,0.6c0,0.2-0.1,0.5-0.3,0.8c-0.2,0.3-0.5,0.6-0.8,0.9c-0.4,0.3-0.8,0.5-1.4,0.7
		c-0.6,0.2-1.2,0.3-1.9,0.3c-1.7,0-3-0.5-3.9-1.4c-0.9-1-1.4-2.2-1.4-3.9c0-0.8,0.1-1.5,0.3-2.1c0.2-0.7,0.6-1.2,1-1.7
		c0.4-0.5,1-0.8,1.6-1.1c0.6-0.2,1.3-0.4,2.1-0.4c1,0,1.9,0.2,2.6,0.6c0.7,0.4,1.3,1,1.6,1.7c0.4,0.7,0.5,1.4,0.5,2.1
		c0,0.6-0.2,1.1-0.6,1.3C-550.7,417.2-551.2,417.3-551.9,417.3 M-557,415.8h4.7c-0.1-0.9-0.3-1.6-0.7-2c-0.4-0.4-1-0.7-1.6-0.7
		c-0.6,0-1.2,0.2-1.6,0.7C-556.7,414.3-556.9,415-557,415.8 M-541.1,417.3h-5.1c0,0.6,0.1,1.1,0.4,1.6c0.2,0.4,0.5,0.8,0.9,1
		c0.4,0.2,0.8,0.3,1.3,0.3c0.3,0,0.6,0,0.8-0.1c0.3-0.1,0.5-0.2,0.8-0.3c0.2-0.2,0.5-0.3,0.7-0.5c0.2-0.2,0.5-0.4,0.8-0.7
		c0.1-0.1,0.3-0.2,0.6-0.2c0.3,0,0.5,0.1,0.7,0.2c0.2,0.1,0.2,0.4,0.2,0.6c0,0.2-0.1,0.5-0.3,0.8c-0.2,0.3-0.5,0.6-0.8,0.9
		c-0.4,0.3-0.8,0.5-1.4,0.7c-0.6,0.2-1.2,0.3-1.9,0.3c-1.7,0-3-0.5-3.9-1.4c-0.9-1-1.4-2.2-1.4-3.9c0-0.8,0.1-1.5,0.3-2.1
		c0.2-0.7,0.6-1.2,1-1.7c0.4-0.5,1-0.8,1.6-1.1c0.6-0.2,1.3-0.4,2.1-0.4c1,0,1.9,0.2,2.6,0.6c0.7,0.4,1.3,1,1.6,1.7
		c0.4,0.7,0.5,1.4,0.5,2.1c0,0.6-0.2,1.1-0.6,1.3C-539.9,417.2-540.5,417.3-541.1,417.3 M-546.2,415.8h4.7c-0.1-0.9-0.3-1.6-0.7-2
		c-0.4-0.4-1-0.7-1.6-0.7c-0.6,0-1.2,0.2-1.6,0.7C-545.9,414.3-546.1,415-546.2,415.8 M-535.5,412.9v0.3c0.5-0.6,1-1,1.5-1.3
		c0.5-0.3,1.1-0.4,1.8-0.4c0.8,0,1.5,0.2,2.2,0.6c0.7,0.4,1.2,1,1.6,1.8c0.4,0.8,0.6,1.7,0.6,2.8c0,0.8-0.1,1.5-0.3,2.2
		c-0.2,0.7-0.5,1.2-0.9,1.7c-0.4,0.5-0.9,0.8-1.4,1c-0.5,0.2-1.1,0.4-1.7,0.4c-0.7,0-1.4-0.1-1.9-0.4c-0.5-0.3-1-0.7-1.4-1.3v3.9
		c0,1.1-0.4,1.7-1.2,1.7c-0.5,0-0.8-0.1-1-0.4c-0.2-0.3-0.2-0.7-0.2-1.3v-11.2c0-0.5,0.1-0.9,0.3-1.1c0.2-0.2,0.5-0.4,0.9-0.4
		c0.4,0,0.7,0.1,0.9,0.4C-535.6,412-535.5,412.4-535.5,412.9 M-530.4,416.6c0-0.7-0.1-1.3-0.3-1.8c-0.2-0.5-0.5-0.9-0.9-1.1
		c-0.4-0.3-0.8-0.4-1.2-0.4c-0.7,0-1.3,0.3-1.8,0.8c-0.5,0.6-0.7,1.4-0.7,2.5c0,1,0.2,1.8,0.7,2.4c0.5,0.6,1.1,0.9,1.8,0.9
		c0.4,0,0.8-0.1,1.2-0.4c0.4-0.3,0.7-0.6,0.9-1.1C-530.5,417.9-530.4,417.3-530.4,416.6 M-525.2,410.2c-0.4,0-0.7-0.1-0.9-0.3
		c-0.3-0.2-0.4-0.5-0.4-0.9c0-0.4,0.1-0.7,0.4-0.9c0.3-0.2,0.6-0.4,0.9-0.4c0.3,0,0.6,0.1,0.9,0.3c0.3,0.2,0.4,0.5,0.4,0.9
		c0,0.4-0.1,0.7-0.4,0.9C-524.5,410.1-524.8,410.2-525.2,410.2 M-523.9,412.9v7.5c0,0.5-0.1,0.9-0.4,1.2c-0.3,0.3-0.6,0.4-0.9,0.4
		c-0.4,0-0.7-0.1-0.9-0.4c-0.2-0.3-0.4-0.7-0.4-1.2v-7.4c0-0.5,0.1-0.9,0.4-1.2c0.2-0.3,0.5-0.4,0.9-0.4c0.4,0,0.7,0.1,0.9,0.4
		C-524,412.1-523.9,412.4-523.9,412.9 M-515.5,420.8c0.3,0.4,0.5,0.8,0.7,0.9c0.2,0.2,0.4,0.3,0.7,0.3c0.4,0,0.7-0.1,0.9-0.4
		c0.2-0.2,0.3-0.6,0.3-1c0-0.1,0-0.3-0.1-0.5c-0.1-0.2-0.2-0.4-0.4-0.7l-2.7-4.2l1.4-1.3c0.7-0.6,1.1-1.1,1.1-1.5
		c0-0.3-0.1-0.6-0.3-0.8c-0.2-0.2-0.5-0.3-0.8-0.3c-0.3,0-0.5,0.1-0.7,0.2c-0.2,0.1-0.5,0.4-0.8,0.8l-2.9,3.1v-6.3
		c0-0.5-0.1-0.9-0.4-1.2c-0.2-0.3-0.5-0.4-0.9-0.4c-0.4,0-0.7,0.1-1,0.5c-0.2,0.3-0.3,0.7-0.3,1.3v11.1c0,0.5,0.1,0.9,0.3,1.2
		c0.2,0.3,0.5,0.4,0.9,0.4c0.3,0,0.6-0.1,0.9-0.4c0.3-0.3,0.4-0.7,0.4-1.2v-2.1l1.4-1.3L-515.5,420.8 M-509.9,421.9
		c0.4,0,0.7-0.1,1-0.4c0.3-0.3,0.4-0.6,0.4-1.1c0-0.4-0.1-0.7-0.4-1c-0.3-0.3-0.6-0.4-1-0.4c-0.4,0-0.7,0.1-1,0.4
		c-0.3,0.3-0.4,0.6-0.4,1c0,0.5,0.1,0.8,0.4,1.1C-510.6,421.8-510.3,421.9-509.9,421.9 M-497,418.7c0-0.3-0.1-0.5-0.3-0.8
		c-0.2-0.2-0.5-0.4-0.8-0.4c-0.3,0-0.5,0.1-0.7,0.2c-0.2,0.2-0.4,0.4-0.5,0.7c-0.3,0.5-0.6,0.9-1,1.1c-0.4,0.2-0.8,0.4-1.3,0.4
		c-0.4,0-0.7-0.1-1.1-0.2c-0.3-0.2-0.6-0.4-0.8-0.7c-0.2-0.3-0.4-0.6-0.5-1c-0.1-0.4-0.2-0.9-0.2-1.3c0-1,0.2-1.9,0.7-2.5
		c0.5-0.6,1.1-0.9,1.9-0.9c0.5,0,1,0.1,1.3,0.4c0.4,0.2,0.7,0.6,1,1.1c0.2,0.3,0.3,0.4,0.5,0.5c0.1,0.1,0.3,0.2,0.5,0.2
		c0.3,0,0.6-0.1,0.8-0.3c0.2-0.2,0.3-0.5,0.3-0.8c0-0.3-0.1-0.6-0.3-1c-0.2-0.3-0.5-0.7-0.9-1c-0.4-0.3-0.9-0.6-1.4-0.8
		c-0.6-0.2-1.2-0.3-1.9-0.3c-1.1,0-2,0.2-2.8,0.7c-0.8,0.4-1.4,1.1-1.8,1.9c-0.4,0.8-0.6,1.8-0.6,2.8c0,1.6,0.5,2.8,1.3,3.8
		c0.9,0.9,2.2,1.4,3.8,1.4c0.8,0,1.4-0.1,2-0.3c0.6-0.2,1.1-0.5,1.5-0.8c0.4-0.3,0.7-0.7,0.9-1C-497.1,419.4-497,419.1-497,418.7
		 M-485.8,416.7c0,0.8-0.1,1.5-0.4,2.1c-0.2,0.7-0.6,1.2-1.1,1.7c-0.5,0.5-1,0.8-1.6,1.1c-0.6,0.2-1.3,0.4-2.1,0.4
		c-0.8,0-1.5-0.1-2.1-0.4c-0.6-0.3-1.2-0.6-1.6-1.1c-0.5-0.5-0.8-1-1.1-1.7c-0.2-0.6-0.4-1.4-0.4-2.1c0-0.8,0.1-1.5,0.4-2.2
		c0.2-0.7,0.6-1.2,1-1.7c0.5-0.5,1-0.8,1.6-1.1c0.6-0.3,1.3-0.4,2.1-0.4c0.8,0,1.5,0.1,2.1,0.4c0.6,0.3,1.2,0.6,1.6,1.1
		c0.5,0.5,0.8,1,1,1.7C-485.9,415.2-485.8,415.9-485.8,416.7 M-488.4,416.7c0-1.1-0.2-1.9-0.7-2.5c-0.5-0.6-1.1-0.9-1.9-0.9
		c-0.5,0-1,0.1-1.3,0.4c-0.4,0.3-0.7,0.7-0.9,1.2c-0.2,0.5-0.3,1.1-0.3,1.8c0,0.7,0.1,1.3,0.3,1.8c0.2,0.5,0.5,0.9,0.9,1.2
		c0.4,0.3,0.8,0.4,1.4,0.4c0.8,0,1.4-0.3,1.9-0.9C-488.6,418.5-488.4,417.7-488.4,416.7 M-475.9,416.9c0-1.1,0.1-1.9,0.3-2.3
		c0.2-0.3,0.4-0.6,0.7-0.8c0.3-0.2,0.6-0.3,1-0.3c0.4,0,0.7,0.1,1,0.3c0.2,0.2,0.3,0.5,0.4,0.8c0,0.3,0.1,0.8,0.1,1.3v4.4
		c0,0.5,0.1,0.9,0.4,1.2c0.3,0.3,0.6,0.4,1,0.4c0.4,0,0.7-0.1,1-0.4c0.2-0.3,0.4-0.7,0.4-1.2v-5.1c0-1-0.1-1.7-0.3-2.2
		c-0.3-0.5-0.6-0.9-1.1-1.2c-0.5-0.3-1.1-0.4-1.8-0.4c-0.6,0-1.2,0.1-1.7,0.4c-0.5,0.3-1,0.7-1.4,1.2c-0.3-0.5-0.7-0.9-1.2-1.2
		c-0.5-0.3-1-0.4-1.7-0.4c-0.6,0-1.2,0.1-1.7,0.4c-0.5,0.3-1,0.6-1.4,1.2v-0.2c0-0.4-0.1-0.7-0.4-1c-0.2-0.2-0.5-0.4-0.9-0.4
		c-0.4,0-0.7,0.1-0.9,0.4c-0.2,0.3-0.3,0.6-0.3,1.1v7.4c0,0.5,0.1,0.9,0.4,1.2c0.3,0.3,0.6,0.4,1,0.4c0.4,0,0.7-0.1,1-0.4
		c0.2-0.3,0.4-0.7,0.4-1.2v-3.5c0-1.1,0.1-1.9,0.4-2.5c0.3-0.6,0.8-0.9,1.7-0.9c0.4,0,0.7,0.1,0.9,0.4c0.2,0.2,0.3,0.5,0.4,0.9
		c0,0.4,0.1,0.9,0.1,1.5v4.1c0,0.5,0.1,1,0.4,1.2c0.2,0.3,0.6,0.4,1,0.4c0.4,0,0.7-0.1,1-0.4c0.2-0.3,0.4-0.7,0.4-1.2V416.9
		 M-596.6,416C-596.6,416-596.6,416-596.6,416C-596.6,416-596.6,416-596.6,416 M-596.5,416.9L-596.5,416.9c0-0.2-0.1-0.5-0.1-0.7
		C-596.6,416.4-596.5,416.6-596.5,416.9 M-595.6,419.3C-595.6,419.3-595.6,419.3-595.6,419.3C-595.6,419.3-595.6,419.3-595.6,419.3
		 M-595.7,419.1c0,0,0-0.1-0.1-0.1C-595.7,419-595.7,419.1-595.7,419.1 M-596.2,417.8c0.1,0.4,0.3,0.8,0.5,1.2
		C-596,418.6-596.1,418.2-596.2,417.8L-596.2,417.8z M-586.6,406.1c0.5,0,0.9,0,1.3,0.1l0.1-0.8c0,0-1.2-0.4-2.7-0.2l-0.1-0.4
		c0.5-0.1,0.8-0.5,0.8-1c0-0.6-0.5-1.1-1.1-1.1c-0.6,0-1.1,0.5-1.1,1.1c0,0.5,0.4,0.9,0.8,1l0.1,0.5c-1.6,0.2-2.9,0.9-2.9,0.9
		l0.2,0.7c1-0.3,1.8-0.5,2.6-0.6C-587.6,406.1-587,406.1-586.6,406.1 M-595.6,410L-595.6,410c0-0.1,0.1-0.1,0.1-0.2l-0.3-0.2
		l-0.5-0.4c0,0-0.8,0.7-1.4,2c0,0-0.1-0.1-0.1-0.1c-0.2-0.2-0.4-0.3-0.8-0.3h0c-0.2,0-0.3-0.1-0.4-0.1c0.1-0.1,0.1-0.3,0.1-0.4
		c0-0.4-0.3-0.7-0.7-0.7c-0.4,0-0.7,0.3-0.7,0.7c0,0.4,0.3,0.7,0.7,0.7c0.1,0,0.1,0,0.2,0c0.2,0.2,0.4,0.3,0.8,0.3
		c0.2,0,0.3,0,0.4,0.2c0.1,0.1,0.1,0.3,0.2,0.4c0,0,0,0,0,0c-0.4,1.2-0.3,2.7-0.3,2.7l1.1,0c0-0.5,0.1-1.5,0.4-2.2
		C-596.3,410.9-595.7,410-595.6,410 M-577.4,407c-0.4,0-0.7,0.3-0.7,0.7c0,0.1,0,0.1,0,0.2c-0.2,0.2-0.3,0.4-0.3,0.8
		c0,0.2,0,0.3-0.2,0.4c-0.1,0.1-0.2,0.1-0.3,0.1c-0.8-1.1-1.8-1.8-1.8-1.8l-0.8,0.8c0.6,0.5,1.2,1.2,1.7,2c0.4,0.6,0.8,1.3,1.1,2
		l1-0.5c0,0-0.5-1.2-1.1-2.2c0.1,0,0.2-0.1,0.3-0.2c0.2-0.2,0.3-0.4,0.3-0.8c0-0.2,0.1-0.3,0.1-0.4c0.1,0.1,0.3,0.1,0.4,0.1
		c0.4,0,0.7-0.3,0.7-0.7C-576.7,407.3-577,407-577.4,407 M-580,416.2c-1.4,0.7-3.7,1.6-6.8,2c-1.2,0.2-2.4,0.2-3.4,0.2
		c-1.4,0-2.6-0.1-3.6-0.2c-1.1-0.1-1.9-0.3-2.4-0.4c0.1,0.4,0.3,0.8,0.5,1.2c0,0,0,0,0,0c0,0,0,0.1,0.1,0.1c0,0,0,0.1,0.1,0.1
		c0,0,0,0,0,0c0.3,0.6,0.7,1.1,1.1,1.5c1.4,1.6,2.9,1.8,2.9,1.8l0,0l0,0c0,0,1.3,0.4,3.3,0.4c1.9,0,3.9-0.4,5.7-1.2
		c1.3-0.7,2.6-1.7,3.3-2.7c0.5-0.7,0.8-1.5,1.1-2.3c0.1-0.4,0.2-1.1,0.1-1.8C-578.5,415.4-579.2,415.8-580,416.2 M-595.2,410.3
		c0,0.1-0.7,0.9-1.1,2.3c-0.4,1-0.3,2.4-0.3,2.5v0c0,0.3,0,0.7,0.1,1c0,0,0,0,0,0c0,0,0,0.1,0,0.1c0,0.2,0.1,0.5,0.1,0.7
		c0.7,0.2,4.9,1.2,9.5,0.5c2.9-0.4,5.1-1.3,6.5-1.9c1.1-0.5,1.8-1,2.1-1.2c-0.3-1-1-2.6-1.7-3.6c-2-2.9-4.2-3.6-5.3-3.8
		c-0.4-0.1-0.8-0.1-1.2-0.1c-0.4,0-1,0-1.7,0.1c-0.7,0.1-1.6,0.3-2.5,0.6c-1.3,0.5-2.6,1.2-3.5,2l0,0
		C-594.5,409.6-594.8,409.9-595.2,410.3 M-582.9,409.6c1,0,1.7,0.8,1.7,1.7c0,1-0.8,1.7-1.7,1.7c-1,0-1.7-0.8-1.7-1.7
		C-584.7,410.4-583.9,409.6-582.9,409.6 M-591.2,409.6c1.6,0,2.8,1.3,2.8,2.8c0,1.6-1.3,2.8-2.8,2.8c-1.6,0-2.8-1.3-2.8-2.8
		C-594,410.8-592.7,409.6-591.2,409.6"/>
	<path id="Designed_By_Freepik_2_" class="st44" d="M488.5,420.5v-0.3c-0.3,0.4-0.7,0.7-1,1c-0.3,0.3-0.7,0.4-1.1,0.6
		c-0.4,0.1-0.8,0.2-1.3,0.2c-0.6,0-1.2-0.1-1.7-0.4c-0.5-0.3-1-0.6-1.4-1.1c-0.4-0.5-0.7-1.1-0.9-1.7c-0.2-0.7-0.3-1.4-0.3-2.1
		c0-1.6,0.4-2.9,1.2-3.8c0.8-0.9,1.8-1.4,3.1-1.4c0.7,0,1.4,0.1,1.9,0.4c0.5,0.3,1,0.7,1.5,1.2v-3.8c0-0.5,0.1-0.9,0.3-1.2
		c0.2-0.3,0.5-0.4,0.9-0.4c0.4,0,0.7,0.1,0.9,0.4c0.2,0.3,0.3,0.6,0.3,1.1v11.4c0,0.5-0.1,0.9-0.3,1.1c-0.2,0.2-0.5,0.4-0.9,0.4
		c-0.4,0-0.6-0.1-0.9-0.4C488.6,421.3,488.5,420.9,488.5,420.5 M483.4,416.7c0,0.7,0.1,1.3,0.3,1.8c0.2,0.5,0.5,0.9,0.9,1.1
		c0.4,0.3,0.8,0.4,1.2,0.4c0.5,0,0.9-0.1,1.3-0.4c0.4-0.2,0.7-0.6,0.9-1.1c0.2-0.5,0.3-1.1,0.3-1.8c0-0.7-0.1-1.3-0.3-1.8
		c-0.2-0.5-0.5-0.9-0.9-1.1c-0.4-0.3-0.8-0.4-1.3-0.4c-0.5,0-0.9,0.1-1.3,0.4c-0.4,0.3-0.7,0.7-0.9,1.2
		C483.5,415.4,483.4,416,483.4,416.7 M499.9,417.3h-5.1c0,0.6,0.1,1.1,0.4,1.6c0.2,0.5,0.5,0.8,0.9,1c0.4,0.2,0.8,0.3,1.3,0.3
		c0.3,0,0.6,0,0.9-0.1c0.3-0.1,0.5-0.2,0.7-0.3c0.2-0.2,0.5-0.3,0.7-0.5c0.2-0.2,0.5-0.4,0.8-0.7c0.1-0.1,0.3-0.2,0.6-0.2
		c0.3,0,0.5,0.1,0.6,0.2c0.2,0.1,0.2,0.4,0.2,0.6c0,0.2-0.1,0.5-0.3,0.8c-0.2,0.3-0.5,0.6-0.8,0.9c-0.4,0.3-0.8,0.5-1.4,0.7
		c-0.6,0.2-1.2,0.3-1.9,0.3c-1.7,0-3-0.5-3.9-1.4c-0.9-0.9-1.4-2.2-1.4-3.9c0-0.8,0.1-1.5,0.3-2.1c0.2-0.7,0.6-1.2,1-1.7
		c0.4-0.5,1-0.8,1.6-1.1c0.6-0.3,1.3-0.4,2.1-0.4c1,0,1.9,0.2,2.6,0.6c0.7,0.4,1.3,1,1.6,1.7c0.4,0.7,0.5,1.4,0.5,2.1
		c0,0.7-0.2,1.1-0.6,1.3C501.1,417.2,500.6,417.3,499.9,417.3 M494.9,415.8h4.7c-0.1-0.9-0.3-1.6-0.7-2c-0.4-0.4-1-0.7-1.6-0.7
		c-0.6,0-1.2,0.2-1.6,0.7C495.2,414.3,494.9,415,494.9,415.8 M511.7,418.6c0-0.5-0.1-0.9-0.4-1.3c-0.3-0.4-0.7-0.7-1.2-1
		c-0.5-0.3-1.2-0.5-2-0.7c-0.7-0.2-1.2-0.3-1.6-0.4c-0.4-0.1-0.7-0.3-0.9-0.4c-0.2-0.2-0.3-0.4-0.3-0.7c0-0.3,0.2-0.5,0.5-0.7
		c0.3-0.2,0.7-0.3,1.2-0.3c0.5,0,0.8,0.1,1.1,0.2c0.3,0.2,0.5,0.4,0.7,0.6c0.2,0.3,0.5,0.5,0.6,0.7c0.2,0.2,0.4,0.2,0.7,0.2
		c0.4,0,0.7-0.1,0.9-0.3c0.2-0.2,0.3-0.4,0.3-0.7c0-0.3-0.1-0.6-0.3-0.8c-0.2-0.3-0.5-0.5-0.8-0.8c-0.4-0.2-0.8-0.4-1.3-0.6
		c-0.5-0.1-1.1-0.2-1.8-0.2c-0.9,0-1.6,0.1-2.2,0.4c-0.6,0.3-1.1,0.6-1.4,1.1c-0.3,0.5-0.5,1-0.5,1.5c0,0.6,0.2,1.1,0.5,1.5
		c0.3,0.4,0.8,0.7,1.3,1c0.6,0.2,1.3,0.5,2.2,0.7c0.8,0.2,1.4,0.4,1.7,0.6c0.3,0.2,0.5,0.5,0.5,1c0,0.3-0.2,0.6-0.5,0.8
		c-0.3,0.2-0.8,0.3-1.3,0.3c-0.6,0-1.1-0.1-1.5-0.3c-0.4-0.2-0.7-0.6-1-1c-0.1-0.2-0.3-0.4-0.4-0.6c-0.1-0.1-0.4-0.2-0.6-0.2
		c-0.3,0-0.6,0.1-0.8,0.3c-0.2,0.2-0.3,0.4-0.3,0.7c0,0.4,0.2,0.9,0.5,1.3c0.3,0.4,0.8,0.8,1.5,1.1c0.7,0.3,1.5,0.4,2.4,0.4
		c1,0,1.8-0.1,2.5-0.4c0.7-0.3,1.2-0.6,1.5-1.2C511.6,419.9,511.7,419.3,511.7,418.6 M514.4,410.2c-0.4,0-0.7-0.1-0.9-0.3
		c-0.3-0.2-0.4-0.5-0.4-0.9c0-0.4,0.1-0.7,0.4-0.9c0.3-0.2,0.6-0.4,0.9-0.4c0.3,0,0.6,0.1,0.9,0.3c0.3,0.2,0.4,0.5,0.4,0.9
		c0,0.4-0.1,0.7-0.4,0.9C515,410.1,514.7,410.2,514.4,410.2 M515.7,412.9v7.5c0,0.5-0.1,0.9-0.4,1.2c-0.2,0.3-0.6,0.4-0.9,0.4
		c-0.4,0-0.7-0.1-0.9-0.4c-0.2-0.3-0.4-0.7-0.4-1.2V413c0-0.5,0.1-0.9,0.4-1.2c0.2-0.3,0.5-0.4,0.9-0.4c0.4,0,0.7,0.1,0.9,0.4
		C515.5,412.1,515.7,412.4,515.7,412.9 M527,413.3v7.5c0,0.9-0.1,1.6-0.3,2.2c-0.2,0.6-0.5,1.1-0.9,1.5c-0.4,0.4-0.9,0.7-1.6,0.9
		c-0.7,0.2-1.5,0.3-2.4,0.3c-0.9,0-1.7-0.1-2.4-0.4c-0.7-0.3-1.2-0.6-1.6-1c-0.4-0.4-0.6-0.8-0.6-1.2c0-0.3,0.1-0.6,0.3-0.8
		c0.2-0.2,0.5-0.3,0.8-0.3c0.4,0,0.7,0.2,1,0.5c0.1,0.2,0.3,0.3,0.4,0.5c0.1,0.2,0.3,0.3,0.5,0.4c0.2,0.1,0.4,0.2,0.7,0.3
		c0.3,0.1,0.5,0.1,0.9,0.1c0.7,0,1.2-0.1,1.6-0.3c0.4-0.2,0.6-0.4,0.8-0.8c0.1-0.3,0.2-0.7,0.3-1.1c0-0.4,0-1,0.1-1.8
		c-0.4,0.6-0.9,1-1.4,1.3c-0.5,0.3-1.1,0.4-1.9,0.4c-0.9,0-1.6-0.2-2.3-0.7c-0.6-0.4-1.1-1.1-1.5-1.9c-0.3-0.8-0.5-1.7-0.5-2.8
		c0-0.8,0.1-1.5,0.3-2.1c0.2-0.6,0.5-1.2,0.9-1.6c0.4-0.4,0.8-0.8,1.4-1c0.5-0.2,1.1-0.3,1.7-0.3c0.7,0,1.4,0.1,1.9,0.4
		c0.5,0.3,1,0.7,1.5,1.3v-0.4c0-0.5,0.1-0.8,0.3-1c0.2-0.2,0.5-0.4,0.9-0.4c0.5,0,0.8,0.2,1,0.5C526.9,412.2,527,412.7,527,413.3
		 M519.5,416.6c0,1.1,0.2,1.8,0.7,2.4c0.5,0.5,1.1,0.8,1.8,0.8c0.4,0,0.8-0.1,1.2-0.3c0.4-0.2,0.7-0.6,0.9-1c0.2-0.5,0.4-1,0.4-1.7
		c0-1.1-0.2-1.9-0.7-2.5c-0.5-0.6-1.1-0.9-1.8-0.9c-0.7,0-1.3,0.3-1.8,0.8C519.7,414.8,519.5,415.6,519.5,416.6 M531.2,412.8
		c0-0.3-0.1-0.6-0.2-0.8c-0.1-0.2-0.3-0.4-0.4-0.5c-0.2-0.1-0.4-0.2-0.6-0.2c-0.4,0-0.7,0.1-0.9,0.4c-0.2,0.2-0.3,0.6-0.3,1.1v7.5
		c0,0.5,0.1,0.9,0.4,1.2c0.2,0.3,0.5,0.4,0.9,0.4c0.4,0,0.7-0.1,0.9-0.4c0.2-0.3,0.4-0.7,0.4-1.2v-3.2c0-1.1,0.1-1.8,0.2-2.2
		c0.2-0.5,0.5-0.9,0.8-1.1c0.4-0.3,0.8-0.4,1.3-0.4c0.7,0,1.2,0.2,1.4,0.7c0.2,0.5,0.4,1.1,0.4,2v4.3c0,0.5,0.1,0.9,0.4,1.2
		c0.2,0.3,0.6,0.4,0.9,0.4c0.4,0,0.7-0.1,0.9-0.4c0.2-0.3,0.4-0.7,0.4-1.2v-4.8c0-0.6,0-1-0.1-1.4c0-0.4-0.2-0.7-0.3-1
		c-0.3-0.5-0.7-1-1.2-1.3c-0.5-0.3-1.1-0.4-1.8-0.4c-0.7,0-1.3,0.1-1.9,0.4c-0.5,0.3-1,0.7-1.5,1.3V412.8 M546.9,417.3h-5.1
		c0,0.6,0.1,1.1,0.4,1.6c0.2,0.5,0.5,0.8,0.9,1c0.4,0.2,0.8,0.3,1.3,0.3c0.3,0,0.6,0,0.9-0.1c0.3-0.1,0.5-0.2,0.7-0.3
		c0.2-0.2,0.5-0.3,0.7-0.5c0.2-0.2,0.5-0.4,0.8-0.7c0.1-0.1,0.3-0.2,0.6-0.2c0.3,0,0.5,0.1,0.6,0.2c0.2,0.1,0.2,0.4,0.2,0.6
		c0,0.2-0.1,0.5-0.3,0.8c-0.2,0.3-0.5,0.6-0.8,0.9c-0.4,0.3-0.8,0.5-1.4,0.7c-0.6,0.2-1.2,0.3-1.9,0.3c-1.7,0-3-0.5-3.9-1.4
		c-0.9-0.9-1.4-2.2-1.4-3.9c0-0.8,0.1-1.5,0.3-2.1c0.2-0.7,0.6-1.2,1-1.7c0.4-0.5,1-0.8,1.6-1.1c0.6-0.3,1.3-0.4,2.1-0.4
		c1,0,1.9,0.2,2.6,0.6c0.7,0.4,1.3,1,1.6,1.7c0.4,0.7,0.5,1.4,0.5,2.1c0,0.7-0.2,1.1-0.6,1.3C548.1,417.2,547.6,417.3,546.9,417.3
		 M541.9,415.8h4.7c-0.1-0.9-0.3-1.6-0.7-2c-0.4-0.4-1-0.7-1.6-0.7c-0.6,0-1.2,0.2-1.6,0.7C542.2,414.3,541.9,415,541.9,415.8
		 M557.5,420.5v-0.3c-0.3,0.4-0.7,0.7-1,1c-0.3,0.3-0.7,0.4-1.1,0.6c-0.4,0.1-0.8,0.2-1.3,0.2c-0.6,0-1.2-0.1-1.7-0.4
		c-0.5-0.3-1-0.6-1.4-1.1c-0.4-0.5-0.7-1.1-0.9-1.7c-0.2-0.7-0.3-1.4-0.3-2.1c0-1.6,0.4-2.9,1.2-3.8c0.8-0.9,1.8-1.4,3.1-1.4
		c0.7,0,1.4,0.1,1.9,0.4c0.5,0.3,1,0.7,1.5,1.2v-3.8c0-0.5,0.1-0.9,0.3-1.2c0.2-0.3,0.5-0.4,0.9-0.4c0.4,0,0.7,0.1,0.9,0.4
		c0.2,0.3,0.3,0.6,0.3,1.1v11.4c0,0.5-0.1,0.9-0.3,1.1c-0.2,0.2-0.5,0.4-0.9,0.4c-0.4,0-0.6-0.1-0.9-0.4
		C557.6,421.3,557.5,420.9,557.5,420.5 M552.4,416.7c0,0.7,0.1,1.3,0.3,1.8c0.2,0.5,0.5,0.9,0.9,1.1c0.4,0.3,0.8,0.4,1.2,0.4
		c0.5,0,0.9-0.1,1.2-0.4c0.4-0.2,0.7-0.6,0.9-1.1c0.2-0.5,0.3-1.1,0.3-1.8c0-0.7-0.1-1.3-0.3-1.8c-0.2-0.5-0.5-0.9-0.9-1.1
		c-0.4-0.3-0.8-0.4-1.3-0.4c-0.5,0-0.9,0.1-1.3,0.4c-0.4,0.3-0.7,0.7-0.9,1.2C552.5,415.4,552.4,416,552.4,416.7 M568.1,409v4
		c0.5-0.5,1-0.9,1.5-1.2c0.5-0.3,1.1-0.4,1.9-0.4c0.9,0,1.6,0.2,2.3,0.6c0.6,0.4,1.2,1,1.5,1.8c0.4,0.8,0.5,1.7,0.5,2.8
		c0,0.8-0.1,1.5-0.3,2.2c-0.2,0.7-0.5,1.2-0.9,1.7c-0.4,0.5-0.8,0.9-1.4,1.1c-0.5,0.3-1.1,0.4-1.8,0.4c-0.4,0-0.8,0-1.1-0.1
		c-0.4-0.1-0.7-0.2-0.9-0.4c-0.2-0.2-0.5-0.3-0.6-0.5c-0.2-0.2-0.4-0.4-0.7-0.7v0.3c0,0.5-0.1,0.9-0.4,1.1c-0.2,0.3-0.5,0.4-0.9,0.4
		c-0.4,0-0.7-0.1-0.9-0.4c-0.2-0.3-0.3-0.6-0.3-1.1v-11.3c0-0.5,0.1-0.9,0.3-1.2c0.2-0.3,0.5-0.4,0.9-0.4c0.4,0,0.7,0.1,0.9,0.4
		C568,408.2,568.1,408.6,568.1,409 M568.2,416.7c0,1,0.2,1.8,0.7,2.4c0.5,0.6,1.1,0.8,1.9,0.8c0.7,0,1.2-0.3,1.7-0.8
		c0.5-0.6,0.7-1.4,0.7-2.4c0-0.7-0.1-1.3-0.3-1.8c-0.2-0.5-0.5-0.9-0.8-1.1c-0.4-0.3-0.8-0.4-1.3-0.4c-0.5,0-0.9,0.1-1.3,0.4
		c-0.4,0.3-0.7,0.7-0.9,1.2C568.3,415.4,568.2,416,568.2,416.7 M579.1,422.3c-0.2,0.4-0.3,0.7-0.5,1c-0.1,0.2-0.3,0.4-0.5,0.5
		c-0.2,0.1-0.4,0.1-0.7,0.1c-0.1,0-0.3,0-0.4-0.1c-0.1,0-0.3-0.1-0.4-0.1c-0.4,0-0.6,0.1-0.8,0.2c-0.2,0.2-0.3,0.4-0.3,0.7
		c0,0.4,0.2,0.7,0.6,0.9c0.4,0.2,0.9,0.2,1.7,0.2c0.8,0,1.4-0.1,1.9-0.4c0.5-0.2,0.8-0.6,1.1-1c0.3-0.4,0.6-1.1,0.9-1.8l3.4-8.9
		c0.1-0.2,0.2-0.5,0.2-0.7c0.1-0.2,0.1-0.4,0.1-0.5c0-0.2,0-0.4-0.1-0.6c-0.1-0.2-0.2-0.3-0.4-0.4c-0.2-0.1-0.4-0.2-0.6-0.2
		c-0.3,0-0.5,0-0.6,0.1c-0.1,0.1-0.3,0.3-0.4,0.6c-0.1,0.3-0.3,0.7-0.4,1.1l-2.1,5.9l-2.2-6.4c-0.1-0.4-0.3-0.8-0.5-1
		c-0.2-0.2-0.5-0.4-0.8-0.4c-0.2,0-0.4,0.1-0.6,0.2c-0.2,0.1-0.4,0.3-0.5,0.5c-0.1,0.2-0.2,0.4-0.2,0.6c0,0.2,0.1,0.5,0.3,1l3.2,8
		L579.1,422.3 M616.7,411.6c-0.9,0-1.3,0.3-1.3,0.9c0,0.3,0.1,0.5,0.3,0.7c0.2,0.2,0.5,0.3,0.9,0.3h0.7v6.9c0,0.5,0.1,0.9,0.4,1.2
		c0.2,0.3,0.6,0.4,0.9,0.4c0.4,0,0.7-0.1,0.9-0.4c0.2-0.3,0.4-0.7,0.4-1.2v-6.9h0.6c0.5,0,0.8-0.1,1.1-0.2c0.3-0.1,0.4-0.4,0.4-0.8
		c0-0.6-0.5-0.9-1.5-0.9h-0.6V411c0-0.5,0.1-0.9,0.2-1.2c0.1-0.3,0.4-0.4,0.9-0.4c0.2,0,0.4,0,0.6,0.1c0.3,0,0.4,0.1,0.5,0.1
		c0.2,0,0.4-0.1,0.6-0.3c0.2-0.2,0.2-0.4,0.2-0.6c0-0.7-0.8-1.1-2.3-1.1c-0.9,0-1.5,0.1-2,0.3c-0.5,0.2-0.8,0.6-1,1
		c-0.2,0.5-0.3,1.1-0.3,1.9v0.8H616.7 M625.2,418.2c0-0.8,0-1.4,0.1-2c0.1-0.5,0.1-1,0.3-1.4c0.1-0.4,0.3-0.7,0.6-0.9
		c0.2-0.2,0.6-0.3,0.9-0.3c0.3,0,0.6,0.1,1,0.2c0.4,0.1,0.6,0.2,0.7,0.2c0.3,0,0.5-0.1,0.7-0.3c0.2-0.2,0.3-0.5,0.3-0.8
		c0-0.4-0.3-0.8-0.8-1.1c-0.5-0.3-1-0.4-1.6-0.4c-0.5,0-1,0.1-1.3,0.4c-0.3,0.3-0.6,0.7-0.9,1.2c0-0.5-0.1-0.9-0.3-1.2
		c-0.2-0.3-0.5-0.4-0.9-0.4c-0.8,0-1.3,0.6-1.3,1.8v7.2c0,0.5,0.1,0.9,0.4,1.2c0.2,0.3,0.5,0.4,0.9,0.4c0.4,0,0.7-0.1,0.9-0.4
		c0.2-0.3,0.4-0.7,0.4-1.2V418.2 M637.1,417.3H632c0,0.6,0.1,1.1,0.4,1.6c0.2,0.4,0.5,0.8,0.9,1c0.4,0.2,0.8,0.3,1.3,0.3
		c0.3,0,0.6,0,0.8-0.1c0.3-0.1,0.5-0.2,0.7-0.3c0.2-0.2,0.5-0.3,0.7-0.5c0.2-0.2,0.5-0.4,0.8-0.7c0.1-0.1,0.3-0.2,0.6-0.2
		c0.3,0,0.5,0.1,0.7,0.2c0.2,0.1,0.2,0.4,0.2,0.6c0,0.2-0.1,0.5-0.3,0.8c-0.2,0.3-0.5,0.6-0.8,0.9c-0.4,0.3-0.8,0.5-1.4,0.7
		c-0.6,0.2-1.2,0.3-1.9,0.3c-1.7,0-3-0.5-3.9-1.4c-0.9-1-1.4-2.2-1.4-3.9c0-0.8,0.1-1.5,0.3-2.1c0.2-0.7,0.6-1.2,1-1.7
		c0.4-0.5,1-0.8,1.6-1.1c0.6-0.2,1.3-0.4,2.1-0.4c1,0,1.9,0.2,2.6,0.6c0.7,0.4,1.3,1,1.6,1.7c0.4,0.7,0.5,1.4,0.5,2.1
		c0,0.6-0.2,1.1-0.6,1.3C638.3,417.2,637.8,417.3,637.1,417.3 M632,415.8h4.7c-0.1-0.9-0.3-1.6-0.7-2c-0.4-0.4-1-0.7-1.6-0.7
		c-0.6,0-1.2,0.2-1.6,0.7C632.4,414.3,632.1,415,632,415.8 M647.9,417.3h-5.1c0,0.6,0.1,1.1,0.4,1.6c0.2,0.4,0.5,0.8,0.9,1
		c0.4,0.2,0.8,0.3,1.3,0.3c0.3,0,0.6,0,0.8-0.1c0.3-0.1,0.5-0.2,0.8-0.3c0.2-0.2,0.5-0.3,0.7-0.5c0.2-0.2,0.5-0.4,0.8-0.7
		c0.1-0.1,0.3-0.2,0.6-0.2c0.3,0,0.5,0.1,0.7,0.2c0.2,0.1,0.2,0.4,0.2,0.6c0,0.2-0.1,0.5-0.3,0.8c-0.2,0.3-0.5,0.6-0.8,0.9
		c-0.4,0.3-0.8,0.5-1.4,0.7c-0.6,0.2-1.2,0.3-1.9,0.3c-1.7,0-3-0.5-3.9-1.4c-0.9-1-1.4-2.2-1.4-3.9c0-0.8,0.1-1.5,0.3-2.1
		c0.2-0.7,0.6-1.2,1-1.7c0.4-0.5,1-0.8,1.6-1.1c0.6-0.2,1.3-0.4,2.1-0.4c1,0,1.9,0.2,2.6,0.6c0.7,0.4,1.3,1,1.6,1.7
		c0.4,0.7,0.5,1.4,0.5,2.1c0,0.6-0.2,1.1-0.6,1.3C649.1,417.2,648.6,417.3,647.9,417.3 M642.8,415.8h4.7c-0.1-0.9-0.3-1.6-0.7-2
		c-0.4-0.4-1-0.7-1.6-0.7c-0.6,0-1.2,0.2-1.6,0.7C643.2,414.3,642.9,415,642.8,415.8 M653.6,412.9v0.3c0.5-0.6,1-1,1.5-1.3
		c0.5-0.3,1.1-0.4,1.8-0.4c0.8,0,1.5,0.2,2.2,0.6c0.7,0.4,1.2,1,1.6,1.8c0.4,0.8,0.6,1.7,0.6,2.8c0,0.8-0.1,1.5-0.3,2.2
		c-0.2,0.7-0.5,1.2-0.9,1.7c-0.4,0.5-0.9,0.8-1.4,1c-0.5,0.2-1.1,0.4-1.7,0.4c-0.7,0-1.4-0.1-1.9-0.4c-0.5-0.3-1-0.7-1.4-1.3v3.9
		c0,1.1-0.4,1.7-1.2,1.7c-0.5,0-0.8-0.1-1-0.4c-0.2-0.3-0.2-0.7-0.2-1.3v-11.2c0-0.5,0.1-0.9,0.3-1.1c0.2-0.2,0.5-0.4,0.9-0.4
		c0.4,0,0.7,0.1,0.9,0.4C653.5,412,653.6,412.4,653.6,412.9 M658.7,416.6c0-0.7-0.1-1.3-0.3-1.8c-0.2-0.5-0.5-0.9-0.9-1.1
		c-0.4-0.3-0.8-0.4-1.2-0.4c-0.7,0-1.3,0.3-1.8,0.8c-0.5,0.6-0.7,1.4-0.7,2.5c0,1,0.2,1.8,0.7,2.4c0.5,0.6,1.1,0.9,1.8,0.9
		c0.4,0,0.8-0.1,1.2-0.4c0.4-0.3,0.7-0.6,0.9-1.1C658.6,417.9,658.7,417.3,658.7,416.6 M663.9,410.2c-0.4,0-0.7-0.1-0.9-0.3
		c-0.3-0.2-0.4-0.5-0.4-0.9c0-0.4,0.1-0.7,0.4-0.9c0.3-0.2,0.6-0.4,0.9-0.4c0.3,0,0.6,0.1,0.9,0.3c0.3,0.2,0.4,0.5,0.4,0.9
		c0,0.4-0.1,0.7-0.4,0.9C664.5,410.1,664.2,410.2,663.9,410.2 M665.2,412.9v7.5c0,0.5-0.1,0.9-0.4,1.2c-0.3,0.3-0.6,0.4-0.9,0.4
		c-0.4,0-0.7-0.1-0.9-0.4c-0.2-0.3-0.4-0.7-0.4-1.2v-7.4c0-0.5,0.1-0.9,0.4-1.2c0.2-0.3,0.5-0.4,0.9-0.4c0.4,0,0.7,0.1,0.9,0.4
		C665,412.1,665.2,412.4,665.2,412.9 M673.5,420.8c0.3,0.4,0.5,0.8,0.7,0.9c0.2,0.2,0.4,0.3,0.7,0.3c0.4,0,0.7-0.1,0.9-0.4
		c0.2-0.2,0.3-0.6,0.3-1c0-0.1,0-0.3-0.1-0.5c-0.1-0.2-0.2-0.4-0.4-0.7l-2.7-4.2l1.4-1.3c0.7-0.6,1.1-1.1,1.1-1.5
		c0-0.3-0.1-0.6-0.3-0.8c-0.2-0.2-0.5-0.3-0.8-0.3c-0.3,0-0.5,0.1-0.7,0.2c-0.2,0.1-0.5,0.4-0.8,0.8l-2.9,3.1v-6.3
		c0-0.5-0.1-0.9-0.4-1.2c-0.2-0.3-0.5-0.4-0.9-0.4c-0.4,0-0.7,0.1-1,0.5c-0.2,0.3-0.3,0.7-0.3,1.3v11.1c0,0.5,0.1,0.9,0.3,1.2
		c0.2,0.3,0.5,0.4,0.9,0.4c0.3,0,0.6-0.1,0.9-0.4c0.3-0.3,0.4-0.7,0.4-1.2v-2.1l1.4-1.3L673.5,420.8 M679.2,421.9
		c0.4,0,0.7-0.1,1-0.4c0.3-0.3,0.4-0.6,0.4-1.1c0-0.4-0.1-0.7-0.4-1c-0.3-0.3-0.6-0.4-1-0.4c-0.4,0-0.7,0.1-1,0.4
		c-0.3,0.3-0.4,0.6-0.4,1c0,0.5,0.1,0.8,0.4,1.1C678.4,421.8,678.8,421.9,679.2,421.9 M692.1,418.7c0-0.3-0.1-0.5-0.3-0.8
		c-0.2-0.2-0.5-0.4-0.8-0.4c-0.3,0-0.5,0.1-0.7,0.2c-0.2,0.2-0.4,0.4-0.5,0.7c-0.3,0.5-0.6,0.9-1,1.1c-0.4,0.2-0.8,0.4-1.3,0.4
		c-0.4,0-0.7-0.1-1.1-0.2c-0.3-0.2-0.6-0.4-0.8-0.7c-0.2-0.3-0.4-0.6-0.5-1c-0.1-0.4-0.2-0.9-0.2-1.3c0-1,0.2-1.9,0.7-2.5
		c0.5-0.6,1.1-0.9,1.9-0.9c0.5,0,1,0.1,1.3,0.4c0.4,0.2,0.7,0.6,1,1.1c0.2,0.3,0.3,0.4,0.5,0.5c0.1,0.1,0.3,0.2,0.5,0.2
		c0.3,0,0.6-0.1,0.8-0.3c0.2-0.2,0.3-0.5,0.3-0.8c0-0.3-0.1-0.6-0.3-1c-0.2-0.3-0.5-0.7-0.9-1c-0.4-0.3-0.9-0.6-1.4-0.8
		c-0.6-0.2-1.2-0.3-1.9-0.3c-1.1,0-2,0.2-2.8,0.7c-0.8,0.4-1.4,1.1-1.8,1.9c-0.4,0.8-0.6,1.8-0.6,2.8c0,1.6,0.5,2.8,1.3,3.8
		c0.9,0.9,2.2,1.4,3.8,1.4c0.8,0,1.4-0.1,2-0.3c0.6-0.2,1.1-0.5,1.5-0.8c0.4-0.3,0.7-0.7,0.9-1C692,419.4,692.1,419.1,692.1,418.7
		 M703.2,416.7c0,0.8-0.1,1.5-0.4,2.1c-0.2,0.7-0.6,1.2-1.1,1.7c-0.5,0.5-1,0.8-1.6,1.1c-0.6,0.2-1.3,0.4-2.1,0.4
		c-0.8,0-1.5-0.1-2.1-0.4c-0.6-0.3-1.2-0.6-1.6-1.1c-0.5-0.5-0.8-1-1.1-1.7c-0.2-0.6-0.4-1.4-0.4-2.1c0-0.8,0.1-1.5,0.4-2.2
		c0.2-0.7,0.6-1.2,1-1.7c0.5-0.5,1-0.8,1.6-1.1c0.6-0.3,1.3-0.4,2.1-0.4c0.8,0,1.5,0.1,2.1,0.4c0.6,0.3,1.2,0.6,1.6,1.1
		c0.5,0.5,0.8,1,1,1.7C703.1,415.2,703.2,415.9,703.2,416.7 M700.6,416.7c0-1.1-0.2-1.9-0.7-2.5c-0.5-0.6-1.1-0.9-1.9-0.9
		c-0.5,0-1,0.1-1.3,0.4c-0.4,0.3-0.7,0.7-0.9,1.2c-0.2,0.5-0.3,1.1-0.3,1.8c0,0.7,0.1,1.3,0.3,1.8c0.2,0.5,0.5,0.9,0.9,1.2
		c0.4,0.3,0.8,0.4,1.4,0.4c0.8,0,1.4-0.3,1.9-0.9C700.4,418.5,700.6,417.7,700.6,416.7 M713.1,416.9c0-1.1,0.1-1.9,0.3-2.3
		c0.2-0.3,0.4-0.6,0.7-0.8c0.3-0.2,0.6-0.3,1-0.3c0.4,0,0.7,0.1,1,0.3c0.2,0.2,0.3,0.5,0.4,0.8c0,0.3,0.1,0.8,0.1,1.3v4.4
		c0,0.5,0.1,0.9,0.4,1.2c0.3,0.3,0.6,0.4,1,0.4c0.4,0,0.7-0.1,1-0.4c0.2-0.3,0.4-0.7,0.4-1.2v-5.1c0-1-0.1-1.7-0.3-2.2
		c-0.3-0.5-0.6-0.9-1.1-1.2c-0.5-0.3-1.1-0.4-1.8-0.4c-0.6,0-1.2,0.1-1.7,0.4c-0.5,0.3-1,0.7-1.4,1.2c-0.3-0.5-0.7-0.9-1.2-1.2
		c-0.5-0.3-1-0.4-1.7-0.4c-0.6,0-1.2,0.1-1.7,0.4c-0.5,0.3-1,0.6-1.4,1.2v-0.2c0-0.4-0.1-0.7-0.4-1c-0.2-0.2-0.5-0.4-0.9-0.4
		c-0.4,0-0.7,0.1-0.9,0.4c-0.2,0.3-0.3,0.6-0.3,1.1v7.4c0,0.5,0.1,0.9,0.4,1.2c0.3,0.3,0.6,0.4,1,0.4c0.4,0,0.7-0.1,1-0.4
		c0.2-0.3,0.4-0.7,0.4-1.2v-3.5c0-1.1,0.1-1.9,0.4-2.5c0.3-0.6,0.8-0.9,1.7-0.9c0.4,0,0.7,0.1,0.9,0.4c0.2,0.2,0.3,0.5,0.4,0.9
		c0,0.4,0.1,0.9,0.1,1.5v4.1c0,0.5,0.1,1,0.4,1.2c0.2,0.3,0.6,0.4,1,0.4c0.4,0,0.7-0.1,1-0.4c0.2-0.3,0.4-0.7,0.4-1.2V416.9
		 M592.4,416C592.4,416,592.4,416,592.4,416C592.4,416,592.4,416,592.4,416 M592.6,416.9L592.6,416.9c0-0.2-0.1-0.5-0.1-0.7
		C592.5,416.4,592.5,416.6,592.6,416.9 M593.4,419.3C593.4,419.3,593.4,419.3,593.4,419.3C593.4,419.3,593.4,419.3,593.4,419.3
		 M593.3,419.1c0,0,0-0.1-0.1-0.1C593.3,419,593.3,419.1,593.3,419.1 M592.8,417.8c0.1,0.4,0.3,0.8,0.5,1.2
		C593.1,418.6,592.9,418.2,592.8,417.8L592.8,417.8z M602.5,406.1c0.5,0,0.9,0,1.3,0.1l0.1-0.8c0,0-1.2-0.4-2.7-0.2l-0.1-0.4
		c0.5-0.1,0.8-0.5,0.8-1c0-0.6-0.5-1.1-1.1-1.1c-0.6,0-1.1,0.5-1.1,1.1c0,0.5,0.4,0.9,0.8,1l0.1,0.5c-1.6,0.2-2.9,0.9-2.9,0.9
		l0.2,0.7c1-0.3,1.8-0.5,2.6-0.6C601.4,406.1,602,406.1,602.5,406.1 M593.4,410L593.4,410c0-0.1,0.1-0.1,0.1-0.2l-0.3-0.2l-0.5-0.4
		c0,0-0.8,0.7-1.4,2c0,0-0.1-0.1-0.1-0.1c-0.2-0.2-0.4-0.3-0.8-0.3h0c-0.2,0-0.3-0.1-0.4-0.1c0.1-0.1,0.1-0.3,0.1-0.4
		c0-0.4-0.3-0.7-0.7-0.7c-0.4,0-0.7,0.3-0.7,0.7c0,0.4,0.3,0.7,0.7,0.7c0.1,0,0.1,0,0.2,0c0.2,0.2,0.4,0.3,0.8,0.3
		c0.2,0,0.3,0,0.4,0.2c0.1,0.1,0.1,0.3,0.2,0.4c0,0,0,0,0,0c-0.4,1.2-0.3,2.7-0.3,2.7l1.1,0c0-0.5,0.1-1.5,0.4-2.2
		C592.7,410.9,593.4,410,593.4,410 M611.7,407c-0.4,0-0.7,0.3-0.7,0.7c0,0.1,0,0.1,0,0.2c-0.2,0.2-0.3,0.4-0.3,0.8
		c0,0.2,0,0.3-0.2,0.4c-0.1,0.1-0.2,0.1-0.3,0.1c-0.8-1.1-1.8-1.8-1.8-1.8l-0.8,0.8c0.6,0.5,1.2,1.2,1.7,2c0.4,0.6,0.8,1.3,1.1,2
		l1-0.5c0,0-0.5-1.2-1.1-2.2c0.1,0,0.2-0.1,0.3-0.2c0.2-0.2,0.3-0.4,0.3-0.8c0-0.2,0.1-0.3,0.1-0.4c0.1,0.1,0.3,0.1,0.4,0.1
		c0.4,0,0.7-0.3,0.7-0.7C612.3,407.3,612,407,611.7,407 M609,416.2c-1.4,0.7-3.7,1.6-6.8,2c-1.2,0.2-2.4,0.2-3.4,0.2
		c-1.4,0-2.6-0.1-3.6-0.2c-1.1-0.1-1.9-0.3-2.4-0.4c0.1,0.4,0.3,0.8,0.5,1.2c0,0,0,0,0,0c0,0,0,0.1,0.1,0.1c0,0,0,0.1,0.1,0.1
		c0,0,0,0,0,0c0.3,0.6,0.7,1.1,1.1,1.5c1.4,1.6,2.9,1.8,2.9,1.8l0,0l0,0c0,0,1.3,0.4,3.3,0.4c1.9,0,3.9-0.4,5.7-1.2
		c1.3-0.7,2.6-1.7,3.3-2.7c0.5-0.7,0.8-1.5,1.1-2.3c0.1-0.4,0.2-1.1,0.1-1.8C610.5,415.4,609.9,415.8,609,416.2 M593.9,410.3
		c0,0.1-0.7,0.9-1.1,2.3c-0.4,1-0.3,2.4-0.3,2.5v0c0,0.3,0,0.7,0.1,1c0,0,0,0,0,0c0,0,0,0.1,0,0.1c0,0.2,0.1,0.5,0.1,0.7
		c0.7,0.2,4.9,1.2,9.5,0.5c2.9-0.4,5.1-1.3,6.5-1.9c1.1-0.5,1.8-1,2.1-1.2c-0.3-1-1-2.6-1.7-3.6c-2-2.9-4.2-3.6-5.3-3.8
		c-0.4-0.1-0.8-0.1-1.2-0.1c-0.4,0-1,0-1.7,0.1c-0.7,0.1-1.6,0.3-2.5,0.6c-1.3,0.5-2.6,1.2-3.5,2l0,0
		C594.5,409.6,594.2,409.9,593.9,410.3 M606.1,409.6c1,0,1.7,0.8,1.7,1.7c0,1-0.8,1.7-1.7,1.7c-1,0-1.7-0.8-1.7-1.7
		C604.4,410.4,605.2,409.6,606.1,409.6 M597.9,409.6c1.6,0,2.8,1.3,2.8,2.8c0,1.6-1.3,2.8-2.8,2.8c-1.6,0-2.8-1.3-2.8-2.8
		C595.1,410.8,596.3,409.6,597.9,409.6"/>
</g>
</svg>
