<?xml version="1.0" encoding="utf-8"?>
<!-- Generator: Adobe Illustrator 22.1.0, SVG Export Plug-In . SVG Version: 6.00 Build 0)  -->
<svg version="1.1" id="Calque_1" xmlns="http://www.w3.org/2000/svg" xmlns:xlink="http://www.w3.org/1999/xlink" x="0px" y="0px"
	 viewBox="0 0 168.1 168.1" style="enable-background:new 0 0 168.1 168.1;" xml:space="preserve">
<style type="text/css">
	.st0{fill:#00A9D2;}
	.st1{fill:#BBF61C;}
</style>
<title>picto e-geek final</title>
<path class="st0" d="M112.6,149.2c-2-0.1-4.1-0.6-6-1.2c-2.6-0.9-5-2.3-7.5-3.4c-5-2.1-9.9-4.7-14.9-6.8c-2.4-1-4.7-2.3-7.2-3.3
	c-7.4-3.1-14.5-6.6-21.8-9.8c-2.5-1.1-4.8-2.3-7.3-3.4c-4.8-2.1-9.5-4.3-14.3-6.5c-5.3-2.4-10.6-4.6-15.7-7.3
	c-2.7-1.4-4.8-3.8-6-6.6c-1.2-2.7-0.6-5.3,0-7.9c0.7-3,2.4-5.5,3.5-8.2c0.2-0.4,0.3-0.7,0.9-0.5c6.8,3.1,13.7,6.3,20.5,9.4
	c6.5,2.9,13,5.8,19.4,8.7c3.8,1.7,7.5,3.5,11.3,5.2c5.9,2.7,11.7,5.3,17.6,7.9c6.4,2.9,12.9,5.8,19.3,8.7c3.8,1.7,7.5,3.4,11.2,5.1
	c3.4,1.5,6.8,3.1,10.2,4.6c0.7,0.3,0.9,0.5,0.5,1.3c-0.8,1.7-1.5,3.4-2.4,5.1c-1.8,3.2-3.8,6.3-7.2,8
	C115.5,149,114,149.3,112.6,149.2z"/>
<path class="st0" d="M34.2,91.1C28.5,88.6,22.8,86,17,83.4c-0.7-0.3-0.8-0.6-0.5-1.4c1.4-2.9,2.7-5.8,4-8.7
	c1.6-3.4,3.1-6.9,4.7-10.4c2.6-5.9,5.3-11.8,7.9-17.7c1.7-3.7,3.4-7.5,5.2-11.2c0.8-1.9,1.6-3.8,2.6-5.6c2.3-3.6,5.5-5.3,9.6-4.6
	c4.7,0.5,8.3,4.5,8.5,9.2c-0.1,2.6-0.8,5.1-2.1,7.4c-1.1,2.3-2.1,4.6-3.1,7c-1.2,2.6-2.3,5.1-3.5,7.7c-1.3,2.8-2.5,5.6-3.8,8.5
	c-1.6,3.5-3.2,7.1-4.8,10.7c-1.2,2.7-2.4,5.5-3.6,8.2s-2.5,5.4-3.7,8.1C34.3,90.7,34.3,90.9,34.2,91.1z"/>
<path class="st0" d="M126.9,133.1c-5.7-2.5-11.4-5.1-17.1-7.6c-0.7-0.3-1-0.6-0.6-1.4c1.4-2.9,2.7-5.8,4.1-8.7
	c1.6-3.4,3.1-6.9,4.7-10.4c2.6-5.9,5.3-11.8,7.9-17.7c1.7-3.9,3.5-7.7,5.3-11.5c0.7-1.8,1.6-3.6,2.5-5.2c2.3-3.5,5.5-5.2,9.6-4.6
	c4.7,0.5,8.3,4.5,8.5,9.2c-0.1,2.6-0.8,5.1-2.1,7.4c-1.4,2.9-2.6,5.8-3.9,8.7c-1.6,3.6-3.2,7.2-4.9,10.8c-1.3,2.9-2.5,5.7-3.8,8.6
	c-1.6,3.5-3.2,7-4.8,10.5C130.4,125,128.6,129.1,126.9,133.1z"/>
<path class="st1" d="M128.3,31.5c-4.9-1.9-8.7,0.5-9.8,4.6l-2.2-2.9c-5-6.2-12.7-9.5-20.6-8.9c-4.4,0.4-8.7,2.1-12.3,4.7
	c-4.8,3.4-8.1,8.5-9.3,14.2c-1.1,4.6-0.7,9.4,1.1,13.8c1.3,2.8,0.1,6.1-2.7,7.4c-0.3,0.1-0.5,0.2-0.8,0.3c-2.7,0.8-5.6-0.6-6.5-3.3
	c-1.2-2.9-1.9-5.9-2.2-9c-0.7-5.7,0-11.6,2.2-16.9c7.1-17.9,27.4-26.7,45.4-19.6c0.3,0.1,0.7,0.3,1,0.4c4.7,2,8.8,5,12.2,8.8
	C125.5,27.1,127,29.2,128.3,31.5z"/>
<path class="st0" d="M168,84.1c-0.1,1.8-0.2,3.5-0.2,5.3c0,0.9-0.5,1.7-1.4,2c-1.2,0.5-2.5,0.4-3.5-0.4c-0.6-0.4-0.9-1-0.8-1.7
	c1.2-20.8-4.7-39.4-18.1-55.4C132.1,19.4,115.4,9.9,97.1,6.9c-5.4-0.9-10.9-1.2-16.4-1c-1.6,0-2.6-1-2.7-2.7s0.9-2.9,2.5-3
	c46.4-1.9,85.6,34.2,87.5,80.6C168,81.9,168,83,168,84.1L168,84.1z"/>
<path class="st0" d="M77.4,162.1c-0.9,1.7-1,3.8-0.4,5.6c-2.6-0.1-5.1-0.4-7.6-0.9C45,162.1,26,149.3,12.7,128.3
	C5.3,116.7,1,103.3,0.2,89.5c-0.2-4.1-0.2-8.2,0.1-12.3c-0.1-1.3,0.8-2.4,2.1-2.5c1.3-0.3,2.6,0.1,3.5,1C6.1,76.1,6.1,76.5,6,77
	c-0.4,5.2-0.4,10.5,0.2,15.7c1.3,13.2,6.1,25.8,13.9,36.5c12.6,17.5,29.6,28.2,50.8,32.1C73,161.6,75.1,161.8,77.4,162.1z"/>
<path class="st0" d="M161.8,93.1c1.4,0.8,3.1,1,4.8,0.6c1-0.2,0.9,0.1,0.8,0.8c-1.3,11-4.8,21.7-10.5,31.2
	c-12.7,21.5-31.3,35-55.8,40.5c-6.6,1.4-13.3,2-20,1.7c-0.9,0-1.7-0.5-1.9-1.4c-0.7-1.5-0.1-3.3,1.4-4c0.5-0.2,1-0.3,1.5-0.3
	c40.2,1.1,74.7-28.6,79.7-68.5C161.8,93.6,161.8,93.4,161.8,93.1z"/>
<path class="st1" d="M102.8,52.2c0.2,1.5-0.8,3-1.5,4.4c-1.1,2.1-1.9,4.4-3,6.5c-0.6,1.1-1.2,2.2-1.7,3.4c-0.8,2-1.5,4-2.4,5.9
	c-0.9,1.7-1.8,3.4-2.5,5.2c-1.2,2.9-2.6,5.7-4.1,8.5s-2.3,5.9-4,8.6c-0.8,1.3-1,2.8-2.4,3.7C79.3,99.7,77,99.9,75,99
	c-2.3-1-3.6-3.5-3.1-5.9c0.4-1.2,0.8-2.4,1.4-3.5c0.9-2.2,2-4.4,3-6.5c1.5-3.3,2.7-6.7,4.5-9.9s3.3-6.7,4.9-10.1s3.3-6.9,4.8-10.5
	c0.5-1.1,1.1-2.2,1.6-3.3c1.1-2.5,4.9-3.3,7.4-2.3C101.6,47.8,102.9,49.9,102.8,52.2z"/>
<path class="st0" d="M6.4,73c-1.8-0.8-3.8-1-5.6-0.4c2.3-17.4,10.2-33.6,22.3-46.3c14.4-15.1,32.1-23.6,53-25.9
	c-0.7,1.7-0.7,3.5,0.1,5.2c0.4,0.9-0.5,0.6-0.8,0.7c-4,0.4-8,1.2-11.9,2.2c-28,7.4-50.4,31-56.1,59.3C7.1,69.4,6.8,71.2,6.4,73z"/>
<path class="st1" d="M132.8,48.4c-0.1,8-3,15.8-8,22.1c-3.5,4.3-8,7.7-13,10c-1.8,1-4,1-5.8,0c-1.6-0.9-2.6-2.6-2.6-4.5
	c0-2.1,0.6-3.9,2.6-4.8c3.5-1.5,6.6-3.6,9.3-6.3c6.3-6.8,8.2-16.6,4.8-25.2c-1.1-3.2-0.1-6.2,3.2-7.4c2-0.7,5-0.1,6.2,2.1
	c1.2,2.4,2,4.9,2.5,7.6C132.5,44.1,132.5,46.4,132.8,48.4z"/>
</svg>
