<svg xmlns="http://www.w3.org/2000/svg" xmlns:xlink="http://www.w3.org/1999/xlink" viewBox="0 0 572.66 791.44"><defs><style>.cls-1,.cls-73{fill:#c2e6ec;}.cls-1,.cls-2{clip-rule:evenodd;}.cls-2,.cls-79{fill:#13103a;}.cls-3{fill:#fcd4b3;}.cls-10,.cls-11,.cls-12,.cls-13,.cls-14,.cls-15,.cls-16,.cls-17,.cls-18,.cls-19,.cls-20,.cls-22,.cls-23,.cls-24,.cls-29,.cls-3,.cls-4,.cls-43,.cls-44,.cls-45,.cls-46,.cls-48,.cls-49,.cls-5,.cls-50,.cls-51,.cls-52,.cls-54,.cls-55,.cls-56,.cls-57,.cls-58,.cls-59,.cls-6,.cls-61,.cls-62,.cls-63,.cls-64,.cls-65,.cls-69,.cls-7,.cls-70,.cls-71,.cls-72,.cls-73,.cls-75,.cls-77,.cls-78,.cls-79,.cls-8,.cls-81,.cls-82,.cls-83,.cls-84,.cls-9,.cls-91,.cls-92,.cls-93{fill-rule:evenodd;}.cls-4{fill:#d3b297;}.cls-5{fill:#efc5a3;}.cls-6{fill:#414141;}.cls-7{fill:#59595c;}.cls-47,.cls-8{fill:#e7e6e6;}.cls-21,.cls-9{fill:#fff;}.cls-10{fill:#869777;}.cls-11{fill:#99d2ad;}.cls-12{fill:#acbb73;}.cls-13{fill:#a15742;}.cls-14{fill:#5a594c;}.cls-15{fill:#806b51;}.cls-16,.cls-41{fill:#47a4ad;}.cls-17,.cls-38{fill:#53a076;}.cls-18{fill:#c98d8f;}.cls-19{fill:#e6e7e8;}.cls-20{fill:#393939;}.cls-22{fill:#efc8a9;}.cls-23{fill:#d4d2d4;}.cls-24{fill:#e3e4e3;}.cls-25,.cls-51{fill:#919396;}.cls-26{fill:#67bee1;}.cls-27,.cls-48{fill:#bbbcbe;}.cls-28,.cls-82{fill:#8dd7f7;}.cls-29,.cls-76{fill:#647981;}.cls-30{fill:#f1f1f2;}.cls-31{fill:#f48659;}.cls-32,.cls-83{fill:#f8a771;}.cls-33{fill:#4da190;}.cls-34{fill:#3e5c73;}.cls-35{fill:#c2bec1;}.cls-36{fill:#c86e6c;}.cls-37{fill:#e8e8ea;}.cls-39{fill:#c86c37;}.cls-40{fill:#f8a98d;}.cls-42,.cls-43{fill:#44525a;}.cls-44,.cls-95{fill:#ffca07;}.cls-45,.cls-86,.cls-94{fill:#f48020;}.cls-46{fill:#d2743f;}.cls-49{fill:#231f20;}.cls-50{fill:#808283;}.cls-52,.cls-53{fill:#303b43;}.cls-54{fill:#f4c89e;}.cls-55{fill:#efcfb3;}.cls-56{fill:#845224;}.cls-57{fill:#b5dfed;}.cls-58{fill:#cf9e78;}.cls-59{fill:#d2edf4;}.cls-60{fill:#57c5cf;}.cls-61{fill:#3e8377;}.cls-62{fill:#cbe6d2;}.cls-63{fill:#a3cd39;}.cls-64{fill:#92b53e;}.cls-65{fill:#f1f1f1;}.cls-66,.cls-71{fill:#6cbac0;}.cls-67,.cls-69{fill:#ee6124;}.cls-68,.cls-70{fill:#efaf40;}.cls-72{fill:#bec0c2;}.cls-74{clip-path:url(#clip-path);}.cls-75{fill:#425747;}.cls-77{fill:#8a9fab;}.cls-78{fill:#354148;}.cls-80{clip-path:url(#clip-path-2);}.cls-81{fill:#e7e9ea;}.cls-84{fill:#e85028;}.cls-85{fill:#fbed1f;}.cls-87{fill:#e76b25;}.cls-88{fill:#ee3f45;}.cls-89{fill:#db303a;}.cls-90{fill:#ea2227;}.cls-91{fill:#f05a29;}.cls-92{fill:#faae40;}.cls-93{fill:#d6de26;}.cls-94{font-size:100px;font-family:BasicSansSerif7, Basic Sans Serif 7;}</style><clipPath id="clip-path" transform="translate(-116.19 -67.03)"><path class="cls-1" d="M627.51,255.12a51.65,51.65,0,1,1-51.35,51.65A51.5,51.5,0,0,1,627.51,255.12Z"/></clipPath><clipPath id="clip-path-2" transform="translate(-116.19 -67.03)"><path class="cls-2" d="M652.19,301.35a28.16,28.16,0,1,1-39.83,0A28.15,28.15,0,0,1,652.19,301.35Z"/></clipPath></defs><title>myGuitel</title><g id="objects"><path class="cls-3" d="M468.49,456.78a14.78,14.78,0,0,1,3,20.52L384.87,596.59a14.66,14.66,0,1,1-23.51-17.52L448,459.77A14.64,14.64,0,0,1,468.49,456.78Z" transform="translate(-116.19 -67.03)"/><polygon class="cls-3" points="199.76 604.12 280.74 607.54 283.43 543.91 326.62 455.65 206.24 450.56 199.76 604.12"/><path class="cls-3" d="M476.19,496.25a14.78,14.78,0,0,1,3,20.52l-86.62,119.3a14.66,14.66,0,0,1-23.51-17.53l86.61-119.29A14.64,14.64,0,0,1,476.19,496.25Z" transform="translate(-116.19 -67.03)"/><path class="cls-4" d="M340.35,511.22l-5.45,9.3s11,72.32,16.83,84.56,21.27,16.11,31.15,15.68,33.6-15.31,33.6-15.31Z" transform="translate(-116.19 -67.03)"/><path class="cls-5" d="M469.44,398.18a14.76,14.76,0,0,1,3,20.52L389,533.52A14.66,14.66,0,1,1,365.45,516l83.47-114.83A14.65,14.65,0,0,1,469.44,398.18Z" transform="translate(-116.19 -67.03)"/><path class="cls-6" d="M319.33,349.46l79-20.86c15.31-4,28.06-2.15,32.09,13.15l61.09,223.67c4,15.3-7.82,24.55-23.12,28.59l-79,20.86c-15.3,4-28.49,1.4-32.53-13.9L295.79,377.3C291.75,362,304,353.5,319.33,349.46Z" transform="translate(-116.19 -67.03)"/><path class="cls-7" d="M334.85,357.51l40.83-10.77a2.07,2.07,0,0,1,2.54,1.48h0a2.08,2.08,0,0,1-1.48,2.54l-40.82,10.78a2.1,2.1,0,0,1-2.55-1.48h0A2.09,2.09,0,0,1,334.85,357.51Z" transform="translate(-116.19 -67.03)"/><path class="cls-7" d="M387.53,341.41a4.41,4.41,0,1,1-3.14,5.39A4.4,4.4,0,0,1,387.53,341.41Z" transform="translate(-116.19 -67.03)"/><path class="cls-8" d="M309.62,375.83l110.19-29.09a.42.42,0,0,1,.49.29l57.51,217.89a.39.39,0,0,1-.28.49L367.34,594.5a.41.41,0,0,1-.5-.29L309.33,376.32A.42.42,0,0,1,309.62,375.83Z" transform="translate(-116.19 -67.03)"/><path class="cls-9" d="M309.62,375.83,418.68,347h0L367.34,594.5h-.2a.42.42,0,0,1-.3-.29L309.33,376.32A.41.41,0,0,1,309.62,375.83Z" transform="translate(-116.19 -67.03)"/><path class="cls-10" d="M324.52,402.22,345,396.63a3.07,3.07,0,0,1,3.76,2.15l5.45,20a3.07,3.07,0,0,1-2.14,3.76l-20.46,5.59a3.07,3.07,0,0,1-3.76-2.15L322.38,406A3.07,3.07,0,0,1,324.52,402.22Z" transform="translate(-116.19 -67.03)"/><path class="cls-11" d="M360.16,392.49l20.45-5.59a3.06,3.06,0,0,1,3.76,2.14L389.83,409a3.07,3.07,0,0,1-2.15,3.76l-20.46,5.59a3.07,3.07,0,0,1-3.76-2.14L358,396.25A3.07,3.07,0,0,1,360.16,392.49Z" transform="translate(-116.19 -67.03)"/><path class="cls-12" d="M334.21,437.68l20.46-5.59a3.07,3.07,0,0,1,3.76,2.15l5.45,19.95a3.07,3.07,0,0,1-2.14,3.76l-20.46,5.59a3.07,3.07,0,0,1-3.77-2.15l-5.45-19.95A3.08,3.08,0,0,1,334.21,437.68Z" transform="translate(-116.19 -67.03)"/><path class="cls-13" d="M369.84,428l20.46-5.59a3.06,3.06,0,0,1,3.76,2.15l5.45,19.94a3.08,3.08,0,0,1-2.14,3.77l-20.46,5.59a3.07,3.07,0,0,1-3.76-2.15l-5.45-20A3.06,3.06,0,0,1,369.84,428Z" transform="translate(-116.19 -67.03)"/><path class="cls-14" d="M343.9,473.14l20.46-5.58a3.06,3.06,0,0,1,3.76,2.14l5.45,19.95a3.06,3.06,0,0,1-2.15,3.76L351,499a3.07,3.07,0,0,1-3.77-2.15l-5.45-19.94A3.08,3.08,0,0,1,343.9,473.14Z" transform="translate(-116.19 -67.03)"/><path class="cls-13" d="M379.53,463.41,400,457.82a3.07,3.07,0,0,1,3.76,2.15l5.45,19.95a3.07,3.07,0,0,1-2.15,3.76l-20.45,5.59a3.08,3.08,0,0,1-3.77-2.15l-5.45-19.95A3.08,3.08,0,0,1,379.53,463.41Z" transform="translate(-116.19 -67.03)"/><path class="cls-15" d="M353.59,508.61,374.05,503a3.07,3.07,0,0,1,3.76,2.15l5.45,19.94a3.08,3.08,0,0,1-2.15,3.77l-20.46,5.58a3.07,3.07,0,0,1-3.76-2.14l-5.45-20A3.07,3.07,0,0,1,353.59,508.61Z" transform="translate(-116.19 -67.03)"/><path class="cls-13" d="M389.22,498.87l20.46-5.59a3.07,3.07,0,0,1,3.76,2.15l5.45,19.95a3.07,3.07,0,0,1-2.15,3.76l-20.45,5.59a3.08,3.08,0,0,1-3.77-2.15l-5.45-20A3.08,3.08,0,0,1,389.22,498.87Z" transform="translate(-116.19 -67.03)"/><path class="cls-16" d="M396.14,382.65l20.46-5.59a3.07,3.07,0,0,1,3.76,2.15l5.45,20a3.06,3.06,0,0,1-2.14,3.76l-20.46,5.59a3.06,3.06,0,0,1-3.76-2.15L394,386.42A3.08,3.08,0,0,1,396.14,382.65Z" transform="translate(-116.19 -67.03)"/><path class="cls-17" d="M405.83,418.12l20.46-5.59a3.06,3.06,0,0,1,3.76,2.14l5.45,19.95a3.08,3.08,0,0,1-2.14,3.77L412.9,444a3.06,3.06,0,0,1-3.76-2.15l-5.46-19.94A3.07,3.07,0,0,1,405.83,418.12Z" transform="translate(-116.19 -67.03)"/><path class="cls-18" d="M415.52,453.58,436,448a3.06,3.06,0,0,1,3.76,2.15l5.45,19.94a3.08,3.08,0,0,1-2.15,3.77l-20.46,5.59a3.08,3.08,0,0,1-3.76-2.15l-5.45-20A3.07,3.07,0,0,1,415.52,453.58Z" transform="translate(-116.19 -67.03)"/><path class="cls-12" d="M425.21,489l20.46-5.59a3.07,3.07,0,0,1,3.76,2.15l5.45,19.95a3.08,3.08,0,0,1-2.15,3.76l-20.46,5.59a3.08,3.08,0,0,1-3.76-2.15l-5.45-19.95A3.08,3.08,0,0,1,425.21,489Z" transform="translate(-116.19 -67.03)"/><path class="cls-5" d="M477.79,444.23a14.74,14.74,0,0,1,3,20.53L466.9,483.48A14.66,14.66,0,0,1,443.38,466l13.89-18.73A14.69,14.69,0,0,1,477.79,444.23Z" transform="translate(-116.19 -67.03)"/><path class="cls-7" d="M423.77,585a7,7,0,1,1-5,8.6A7,7,0,0,1,423.77,585Z" transform="translate(-116.19 -67.03)"/><path class="cls-3" d="M327.29,621.82l10.35.43-.59-12.84-3.42-117.09c-1-21.46-28.24-40.58-28.92-25.56L309,602.46C309.43,612.69,317.67,621.41,327.29,621.82Z" transform="translate(-116.19 -67.03)"/><path class="cls-5" d="M485.16,486.56a14.72,14.72,0,0,1,3,20.52l-16.31,22a14.66,14.66,0,1,1-23.51-17.52l16.31-22A14.69,14.69,0,0,1,485.16,486.56Z" transform="translate(-116.19 -67.03)"/><polygon class="cls-9" points="182.41 624.47 187.08 576.44 290.48 580.49 288.86 627.06 182.41 624.47"/><polygon class="cls-19" points="290.48 580.49 235.8 578.35 233.45 620.39 289.02 622.51 290.48 580.49"/><polygon class="cls-6" points="170.71 605.14 161.08 791.44 292.07 791.44 298.4 605.14 170.71 605.14"/><polygon class="cls-20" points="234.07 605.14 226.53 791.44 295.52 791.44 298.4 605.14 234.07 605.14"/><path class="cls-21" d="M386.06,413.33a31.12,31.12,0,1,0,31.1,31.11A31.15,31.15,0,0,0,386.06,413.33Zm0,61.25a30.14,30.14,0,1,1,30.12-30.14A30.18,30.18,0,0,1,386.06,474.58Z" transform="translate(-116.19 -67.03)"/><path class="cls-21" d="M386.06,380.39a64.05,64.05,0,1,0,64.05,64.06A64.14,64.14,0,0,0,386.06,380.39Zm0,127.13a63.08,63.08,0,1,1,63.07-63.07A63.15,63.15,0,0,1,386.06,507.52Z" transform="translate(-116.19 -67.03)"/><path class="cls-21" d="M386.06,385.94a58.5,58.5,0,1,0,58.5,58.51A58.58,58.58,0,0,0,386.06,385.94Zm0,116a57.52,57.52,0,1,1,57.52-57.51A57.59,57.59,0,0,1,386.06,502Z" transform="translate(-116.19 -67.03)"/><path class="cls-21" d="M386.06,353.6a90.85,90.85,0,1,0,90.84,90.85A91,91,0,0,0,386.06,353.6Zm0,180.72a89.88,89.88,0,1,1,89.86-89.87A90,90,0,0,1,386.06,534.32Z" transform="translate(-116.19 -67.03)"/><path class="cls-21" d="M485.55,444.45c0-2.52-.11-5-.3-7.54l98.45-4.21-.05-1-98.48,4.22A99.44,99.44,0,0,0,473,396.05c7.55-4.71,97.07-60.51,99.57-62.18l-.54-.81c-2.45,1.63-92.55,57.8-99.51,62.14a99.73,99.73,0,0,0-78.9-49.95l9.26-60-1-.15-9.26,60.05q-3.28-.23-6.59-.22a99.25,99.25,0,0,0-61.36,21.19l-57.35-52.92-.48.53,57.25,52.83A99.13,99.13,0,0,0,287.33,432l-52.59-9.49-.23,1.27,52.67,9.5a100.06,100.06,0,0,0-.63,11.19,98.87,98.87,0,0,0,17.18,55.81l-46.05,36.6.61.77,46-36.56A99.46,99.46,0,0,0,480,477.26l95.78,46.27.43-.88-95.88-46.32A98.94,98.94,0,0,0,485.55,444.45ZM386.06,543a98.5,98.5,0,0,1-97.82-110.31h0v0A98.52,98.52,0,1,1,386.06,543Z" transform="translate(-116.19 -67.03)"/><path class="cls-22" d="M369.53,530.19c6.63,11,54.08,99.47,74.88,89.11,20.53-10.24-30.76-68-37.88-76.69C390.29,519,376.94,522.38,369.53,530.19Z" transform="translate(-116.19 -67.03)"/><path class="cls-3" d="M465,665.46l79.8-28.05-11.63-31.74c3.8-28.2-8.09-66-20.43-95.49l-4.69-13.25c-6.59-19-34.06-13.2-25.5,9.7l2.28,6.22-1.1.11-5.32-15c-6.59-19-34.06-13.21-25.5,9.69l2.93,8-1,.09-5.54-15.34c-6.59-19-34.06-13.2-25.49,9.69l3,8.33-.89.09-8.76-24.81-18.16-51.45c-6.55-19-37.33-12-28.75,10.88L427.13,608.3c3.67,9.77,13.84,15.32,26.57,25.1C454,633.59,465,665.46,465,665.46Z" transform="translate(-116.19 -67.03)"/><polygon class="cls-9" points="349.68 634.1 329.67 585.53 429.27 553.52 446.94 602.46 349.68 634.1"/><polygon class="cls-19" points="373.06 571.59 329.67 585.53 347.92 629.83 392.87 617.63 373.06 571.59"/><polygon class="cls-20" points="331.46 608.87 404.67 791.44 535.66 791.44 445 572.32 331.46 608.87"/><polygon class="cls-6" points="381.74 592.6 470.12 791.44 535.66 791.44 445 572.32 381.74 592.6"/><path class="cls-23" d="M192,467.34s-1.66-1.87-3.75-3.9c-2.68-2.62-2.09-7.95-2.35-11.64H159.55c-.25,3.69.34,9-2.35,11.64-2.09,2-3.75,3.9-3.75,3.9a2.92,2.92,0,0,0-.18.6h38.9A2.57,2.57,0,0,0,192,467.34Z" transform="translate(-116.19 -67.03)"/><path class="cls-24" d="M227.78,449c0,2.29-2.13,4.15-4.76,4.15H122.41c-2.63,0-4.76-1.86-4.76-4.15V378.49c0-2.28,2.13-4.14,4.76-4.14H223c2.63,0,4.76,1.86,4.76,4.14Z" transform="translate(-116.19 -67.03)"/><rect class="cls-25" x="5.16" y="310.84" width="102.74" height="63.57"/><rect class="cls-26" x="5.47" y="311.16" width="102.12" height="62.94"/><rect class="cls-27" x="35.99" y="399.8" width="41.08" height="1.77"/><rect class="cls-28" x="10.06" y="315.64" width="92.94" height="17.23"/><polygon class="cls-29" points="10.06 323.17 10.06 318.55 103 318.55 103 323.17 103 332.87 10.06 332.87 10.06 323.17"/><rect class="cls-30" x="10.06" y="332.87" width="73.81" height="36.75"/><rect class="cls-31" x="79.01" y="318.55" width="23.99" height="14.32"/><rect class="cls-32" x="12.98" y="330.77" width="8.39" height="2.02"/><rect class="cls-32" x="21.71" y="330.77" width="8.39" height="2.02"/><rect class="cls-32" x="30.44" y="330.77" width="8.39" height="2.02"/><rect class="cls-32" x="39.17" y="330.77" width="8.39" height="2.02"/><rect class="cls-33" x="12.8" y="335.86" width="25.97" height="13.25"/><rect class="cls-34" x="79.01" y="332.87" width="23.99" height="36.75"/><rect class="cls-35" x="41.7" y="335.86" width="33.96" height="0.37"/><rect class="cls-35" x="41.7" y="336.85" width="33.96" height="0.37"/><rect class="cls-35" x="41.7" y="337.84" width="33.96" height="0.37"/><rect class="cls-35" x="41.7" y="338.83" width="33.96" height="0.37"/><rect class="cls-35" x="41.7" y="339.82" width="33.96" height="0.37"/><rect class="cls-35" x="41.7" y="340.81" width="33.96" height="0.37"/><rect class="cls-35" x="41.7" y="341.8" width="33.96" height="0.37"/><rect class="cls-35" x="41.7" y="342.79" width="33.96" height="0.37"/><rect class="cls-35" x="41.7" y="343.78" width="33.96" height="0.37"/><rect class="cls-35" x="41.7" y="344.77" width="33.96" height="0.37"/><rect class="cls-35" x="41.7" y="345.77" width="33.96" height="0.37"/><rect class="cls-35" x="41.7" y="346.76" width="33.96" height="0.37"/><rect class="cls-35" x="41.7" y="347.74" width="33.96" height="0.37"/><rect class="cls-35" x="41.7" y="348.74" width="11.5" height="0.37"/><rect class="cls-36" x="12.62" y="351.52" width="25.97" height="13.25"/><rect class="cls-35" x="41.53" y="351.52" width="33.96" height="0.37"/><rect class="cls-35" x="41.53" y="352.51" width="33.96" height="0.37"/><rect class="cls-35" x="41.53" y="353.5" width="33.96" height="0.37"/><rect class="cls-35" x="41.53" y="354.49" width="33.96" height="0.37"/><rect class="cls-35" x="41.53" y="355.48" width="33.96" height="0.37"/><rect class="cls-35" x="41.53" y="356.47" width="33.96" height="0.37"/><rect class="cls-35" x="41.53" y="357.46" width="33.96" height="0.37"/><rect class="cls-35" x="41.53" y="358.45" width="33.96" height="0.37"/><rect class="cls-35" x="41.53" y="359.44" width="33.96" height="0.37"/><rect class="cls-35" x="41.53" y="360.43" width="33.96" height="0.37"/><rect class="cls-35" x="41.53" y="361.43" width="33.96" height="0.37"/><rect class="cls-35" x="41.53" y="362.42" width="33.96" height="0.37"/><rect class="cls-35" x="41.53" y="363.41" width="33.96" height="0.37"/><rect class="cls-35" x="41.53" y="364.4" width="18.43" height="0.37"/><rect class="cls-37" x="83.41" y="322.7" width="15.96" height="2.06"/><rect class="cls-37" x="83.41" y="326.75" width="15.96" height="2.06"/><rect class="cls-21" x="81.22" y="335.86" width="19.57" height="1"/><rect class="cls-21" x="90.6" y="337.49" width="10.19" height="0.5"/><rect class="cls-21" x="90.6" y="338.46" width="10.19" height="0.5"/><rect class="cls-21" x="90.6" y="339.42" width="10.19" height="0.5"/><rect class="cls-21" x="90.6" y="340.39" width="10.19" height="0.5"/><rect class="cls-21" x="90.6" y="341.36" width="10.19" height="0.5"/><rect class="cls-21" x="81.28" y="342.92" width="19.57" height="1"/><rect class="cls-21" x="90.67" y="344.55" width="10.19" height="0.5"/><rect class="cls-21" x="90.67" y="345.52" width="10.19" height="0.5"/><rect class="cls-21" x="90.67" y="346.49" width="10.19" height="0.5"/><rect class="cls-21" x="90.67" y="347.45" width="10.19" height="0.5"/><rect class="cls-21" x="90.67" y="348.42" width="10.19" height="0.5"/><rect class="cls-38" x="81.28" y="360.03" width="9.14" height="6.2"/><rect class="cls-39" x="91.69" y="360.03" width="9.14" height="6.2"/><rect class="cls-40" x="81.31" y="353.25" width="9.14" height="6.2"/><rect class="cls-41" x="91.72" y="353.25" width="9.14" height="6.2"/><rect class="cls-42" x="12.98" y="321.89" width="62.68" height="7.11"/><path class="cls-43" d="M209.48,385.07a.9.9,0,1,0-1.11-.87A1,1,0,0,0,209.48,385.07Z" transform="translate(-116.19 -67.03)"/><path class="cls-43" d="M212.46,385.07a.89.89,0,1,0-1.1-.87A1,1,0,0,0,212.46,385.07Z" transform="translate(-116.19 -67.03)"/><path class="cls-43" d="M215.45,385.07a.9.9,0,1,0-1.11-.87A1,1,0,0,0,215.45,385.07Z" transform="translate(-116.19 -67.03)"/><path class="cls-9" d="M229.44,305.53H222V279.05H202.93v26.48c-12.25-.06-22.17-8.58-22.17-19.1s10-19.1,22.29-19.1a26.4,26.4,0,0,1,4.11.33c.21-10.39,10.11-18.75,22.28-18.75s22.06,8.36,22.28,18.75a26.4,26.4,0,0,1,4.11-.33c12.31,0,22.28,8.55,22.28,19.1,0,8.8-6.93,16.2-16.37,18.42l-15.33-28.13-15.7,28.81Z" transform="translate(-116.19 -67.03)"/><polygon class="cls-44" points="103.62 214.21 103.62 242.37 110.96 242.37 96.28 266.24 81.59 242.37 88.93 242.37 88.93 214.21 103.62 214.21"/><polygon class="cls-45" points="137.56 265.05 137.56 241.15 144.91 241.15 130.22 214.21 115.54 241.15 122.88 241.15 122.88 265.05 137.56 265.05"/><path class="cls-43" d="M164.29,535.79,175.4,535a.82.82,0,0,1,.82.8l.2,2.91a.81.81,0,0,1-.7.91l-11.1.79a.81.81,0,0,1-.82-.81l-.21-2.9A.82.82,0,0,1,164.29,535.79Z" transform="translate(-116.19 -67.03)"/><path class="cls-45" d="M163.51,539.84l74.28-5.29a8.72,8.72,0,0,1,9.3,8.07l3.09,43.43a8.73,8.73,0,0,1-8.06,9.3l-74.28,5.29a8.74,8.74,0,0,1-9.31-8.07l-3.09-43.43A8.73,8.73,0,0,1,163.51,539.84Z" transform="translate(-116.19 -67.03)"/><path class="cls-46" d="M249.79,589.32a8.75,8.75,0,0,1-7.67,6l-74.28,5.29a8.75,8.75,0,0,1-8.45-4.89Z" transform="translate(-116.19 -67.03)"/><rect class="cls-47" x="224.24" y="541.2" width="14.82" height="8.04" rx="0.94" ry="0.94" transform="translate(-154.34 -49.2) rotate(-4.07)"/><path class="cls-48" d="M201.21,545a22.61,22.61,0,1,1-20.7,24.14A22.49,22.49,0,0,1,201.21,545Z" transform="translate(-116.19 -67.03)"/><path class="cls-49" d="M201.51,549.3a18.34,18.34,0,1,1-16.79,19.58A18.25,18.25,0,0,1,201.51,549.3Z" transform="translate(-116.19 -67.03)"/><path class="cls-9" d="M201.66,551.35a16.29,16.29,0,1,1-14.91,17.39A16.2,16.2,0,0,1,201.66,551.35Z" transform="translate(-116.19 -67.03)"/><path class="cls-50" d="M201.76,552.82a14.81,14.81,0,1,1-13.56,15.82A14.72,14.72,0,0,1,201.76,552.82Z" transform="translate(-116.19 -67.03)"/><path class="cls-51" d="M201.76,552.82a14.39,14.39,0,0,1,6.72,1.12l-12.22,26.9a14.85,14.85,0,0,1,5.5-28Z" transform="translate(-116.19 -67.03)"/><rect class="cls-47" x="114.81" y="544.78" width="59.09" height="49.7" transform="translate(-554.54 578.54) rotate(-83.2)"/><rect class="cls-33" x="117.07" y="547.04" width="54.58" height="45.18" transform="translate(-554.54 578.54) rotate(-83.2)"/><path class="cls-43" d="M130.22,578.92a5.05,5.05,0,0,0-5.48,4.55l-1.33,11.15,5.73.68,4,.48,7.63.91,7.63.91,4,.48,5.73.68,1.32-11.15a5.05,5.05,0,0,0-4.26-5.71c-3-.36-9-3-12.19-4.1C139.72,578.16,133.21,579.27,130.22,578.92Z" transform="translate(-116.19 -67.03)"/><polygon class="cls-52" points="12.95 528.26 13.43 528.32 14.24 521.44 13.77 521.39 12.95 528.26"/><rect class="cls-53" x="149.15" y="594.37" width="6.93" height="0.48" transform="translate(-572.01 609.2) rotate(-83.25)"/><path class="cls-54" d="M139.28,571.38l8.92,1.06-1,8.59c-.15,1.24-2.27,2-4.73,1.72s-4.34-1.54-4.2-2.78Z" transform="translate(-116.19 -67.03)"/><path class="cls-55" d="M136.21,559.24c0,2.34-.24,9.25-.33,11.94a2.56,2.56,0,0,0,.72,1.86l4.81,4.9,1.59.28,1.61.11,5.82-3.64a2.54,2.54,0,0,0,1.14-1.64c.55-2.63,2-9.4,2.49-11.68Z" transform="translate(-116.19 -67.03)"/><path class="cls-55" d="M135.31,568.92a2.77,2.77,0,1,0-2-3A2.56,2.56,0,0,0,135.31,568.92Z" transform="translate(-116.19 -67.03)"/><path class="cls-55" d="M152.35,571a2.77,2.77,0,1,0-2-3A2.56,2.56,0,0,0,152.35,571Z" transform="translate(-116.19 -67.03)"/><path class="cls-56" d="M137.75,557.82l-1.54,1.42a6.48,6.48,0,0,0-.63,2.07,3.3,3.3,0,0,0,.54,2.2l.46,4.48.67.13s0-3.88,0-4.66a34.87,34.87,0,0,1,1.33-4.58S137.65,557.91,137.75,557.82Z" transform="translate(-116.19 -67.03)"/><path class="cls-56" d="M152.9,559.63l1.16,1.73a6.63,6.63,0,0,1,.13,2.16,3.31,3.31,0,0,1-1,2l-1.51,4.26-.68,0s.95-3.77,1.13-4.53a35.35,35.35,0,0,0-.2-4.76S153,559.74,152.9,559.63Z" transform="translate(-116.19 -67.03)"/><path class="cls-6" d="M151.16,569.74l-.06.08a3.07,3.07,0,0,1-2.72.79,3.21,3.21,0,0,1-1.33-.42,4,4,0,0,1-1.34-3.58,1.1,1.1,0,0,1,.28-.52,1.36,1.36,0,0,1,.36-.25,5.48,5.48,0,0,1,2.62-.28,6.48,6.48,0,0,1,2.58.61c.39.3.43,1.07.28,1.86a5,5,0,0,1-.67,1.71Zm-10.3-.35h0a3.21,3.21,0,0,1-1.3.08A3.13,3.13,0,0,1,137,568a4.78,4.78,0,0,1,0-3,1.14,1.14,0,0,1,.53-.66,3.07,3.07,0,0,1,1-.1,11.72,11.72,0,0,1,1.65.16,8.53,8.53,0,0,1,1.69.47,2.22,2.22,0,0,1,1.1.82,1.15,1.15,0,0,1,.13.42,3.9,3.9,0,0,1-2.21,3.27Zm11.93-3.49h0a17.67,17.67,0,0,0-3.78-.7l-.27,0c-1.35-.06-3,.27-4.22.14-.51-.05-2.54-.89-4-1.2l-.32-.07a19.15,19.15,0,0,0-3.78-.28c-.47.09-.49.12-.56.47s0,.65.21.77.3.63.37,2,.47,2.27,2.75,2.74l.34.06a3.08,3.08,0,0,0,3.15-1.39c.54-.78.56-1.95,1.7-1.8s.88,1.26,1.21,2.15a3,3,0,0,0,2.76,2.18l.25,0a3.45,3.45,0,0,0,2.58-.62A2.71,2.71,0,0,0,152,569a2.25,2.25,0,0,0,.08-.24c.34-1.12.42-1.53.78-1.6s.38-.34.4-.69S153.23,566.1,152.79,565.9Z" transform="translate(-116.19 -67.03)"/><path class="cls-57" d="M140.89,569.44a4,4,0,0,0,2.25-3.34,1.09,1.09,0,0,0-.14-.43,2.3,2.3,0,0,0-1.12-.83,8.11,8.11,0,0,0-1.73-.48,10.75,10.75,0,0,0-1.68-.16,2.89,2.89,0,0,0-1,.1,1.14,1.14,0,0,0-.54.67,4.82,4.82,0,0,0,0,3,3.15,3.15,0,0,0,2.56,1.5A3.23,3.23,0,0,0,140.89,569.44Z" transform="translate(-116.19 -67.03)"/><path class="cls-57" d="M145.65,566.58a4,4,0,0,0,1.37,3.65,3.3,3.3,0,0,0,1.36.43,3.12,3.12,0,0,0,2.77-.8l.06-.08a4.89,4.89,0,0,0,.68-1.75c.16-.81.11-1.6-.28-1.9a6.7,6.7,0,0,0-2.63-.62,5.73,5.73,0,0,0-2.68.28,1.44,1.44,0,0,0-.37.26A1.18,1.18,0,0,0,145.65,566.58Z" transform="translate(-116.19 -67.03)"/><polygon class="cls-58" points="27.49 505.47 29.77 505.08 25.37 504.56 27.49 505.47"/><path class="cls-58" d="M134.42,565.25a4.39,4.39,0,0,0,.07,2.54c.24.21,1,.17,1,.17l0-1a.47.47,0,0,1-.29-.45c0-.37-.09-.59.1-.72a.65.65,0,0,0,.28-.47C135.76,564.11,134.8,564.48,134.42,565.25Z" transform="translate(-116.19 -67.03)"/><path class="cls-58" d="M154.43,567.54a4.36,4.36,0,0,1-.65,2.45c-.3.15-1.07-.08-1.07-.08l.26-1a.44.44,0,0,0,.38-.36c.09-.36.23-.56.08-.72a.7.7,0,0,1-.17-.52C153.4,566.13,154.25,566.71,154.43,567.54Z" transform="translate(-116.19 -67.03)"/><path class="cls-59" d="M139.38,569.44l2.46-4.56,0,0a7.93,7.93,0,0,0-1.71-.47h-.08l0,0-2.36,4.37,0,.05a4.1,4.1,0,0,0,1.7.67Z" transform="translate(-116.19 -67.03)"/><path class="cls-59" d="M149,565.56l-2.32,4.31,0,0a1.74,1.74,0,0,0,.37.31,3.17,3.17,0,0,0,1.29.43l0,0,2.55-4.72,0,0a10.51,10.51,0,0,0-1.88-.33Z" transform="translate(-116.19 -67.03)"/><path class="cls-58" d="M143.57,574.26a3.61,3.61,0,0,0,2.22-.29l0,0a.15.15,0,0,0,.15-.14.17.17,0,0,0,0-.07h0a.14.14,0,0,0-.11-.1.15.15,0,0,0-.14.12,2.75,2.75,0,0,1-2.14.37,2.67,2.67,0,0,1-2-.88.15.15,0,0,0-.12-.13.14.14,0,0,0-.15.14.14.14,0,0,0,.12.16h.05A3.63,3.63,0,0,0,143.57,574.26Z" transform="translate(-116.19 -67.03)"/><path class="cls-55" d="M152.74,561.21l-16.05-1.91c-.05.5,1,1.45,1.15,1.63,0,0,4.1.21,8.26.64C149.33,561.92,151.22,561.86,152.74,561.21Z" transform="translate(-116.19 -67.03)"/><path class="cls-56" d="M137.75,557.82l-.87.8c-.09.27-.15.49-.18.62-.14.48,1,1.5,1.14,1.69h0c.33-1.07.68-2,.68-2S137.65,557.91,137.75,557.82Z" transform="translate(-116.19 -67.03)"/><path class="cls-56" d="M152.9,559.63l.73,1.1a6,6,0,0,1-1.66.75c0-.59-.08-1-.08-1S153,559.74,152.9,559.63Z" transform="translate(-116.19 -67.03)"/><path class="cls-54" d="M151.36,580.9c-2.9-1-6.25-2.35-8.32-3.1-2.26.25-6,.84-9.1,1.08a2.17,2.17,0,0,0,0,.25c-.33,2.77,3.3,5.48,8.12,6s9-1.2,9.32-4A3,3,0,0,0,151.36,580.9Z" transform="translate(-116.19 -67.03)"/><path class="cls-54" d="M147.72,576.46l-.54,4.57c-.15,1.24-2.27,2-4.73,1.72s-4.34-1.54-4.2-2.78l.56-4.67a13.94,13.94,0,0,1,4.41-.14A13.71,13.71,0,0,1,147.72,576.46Z" transform="translate(-116.19 -67.03)"/><path class="cls-55" d="M138.82,575.3l2.59,2.64,1.59.28,1.61.11,3-1.9a14.59,14.59,0,0,0-8.84-1.13Z" transform="translate(-116.19 -67.03)"/><path class="cls-56" d="M137.84,560.93c-.15-.19-1.28-1.21-1.14-1.69a6.41,6.41,0,0,1,1.93-3.33,8.69,8.69,0,0,1,6-1.36c1.76.32,5.08,1.73,7.86,2.4a11.75,11.75,0,0,0,4.57.32A15.3,15.3,0,0,1,154,560.5c-1.78,1.3-3.71,1.52-7.87,1.07S137.84,560.93,137.84,560.93Z" transform="translate(-116.19 -67.03)"/><rect class="cls-47" x="128.25" y="579.26" width="47.84" height="40.23" transform="translate(-234.72 -23.65) rotate(-11.71)"/><rect class="cls-60" x="130.08" y="581.09" width="44.18" height="36.58" transform="translate(-234.76 -23.63) rotate(-11.72)"/><polygon class="cls-61" points="61.33 545.77 18.07 554.74 14.45 537.29 25.44 525.69 39.99 533.21 49.1 519.34 56.76 523.73 61.33 545.77"/><path class="cls-62" d="M132.16,602.71l9.47-10,8.15,4.21-4.39-1.33s1.7,8.2,1.88,8.49-5-6.57-5-6.57l-2.77,8.07.74-8.76-8.65,8.07.54-2.19Zm25.73-5.07,7.4-11.27,7.65,4.39.44,2.11-3.95-2.31,2.21,6.65-6.11-7.56-2.19,10.05-.63-7.3-4.27,7.49Z" transform="translate(-116.19 -67.03)"/><path class="cls-63" d="M177.52,612.8l-43.26,9-1.6-7.72A121,121,0,0,1,157,606.51a134.27,134.27,0,0,1,18.64-2.59Z" transform="translate(-116.19 -67.03)"/><path class="cls-64" d="M177.52,612.8l-43.26,9-.46-2.21A154.27,154.27,0,0,1,157.44,611a163.47,163.47,0,0,1,18.85-4.11Z" transform="translate(-116.19 -67.03)"/><path class="cls-48" d="M374.55,203.85l36-15.89q18-8,36-15.92,9.54,21.6,19.09,43.15t19.09,43.1l-36,15.92q-18,8-36,15.9-9.53-21.54-19.06-43.1T374.55,203.85Z" transform="translate(-116.19 -67.03)"/><polygon class="cls-65" points="263.83 136.17 343.8 109.16 370.67 188.72 370.67 188.72 361.43 210.25 296.28 232.26 263.83 136.17"/><rect class="cls-66" x="406.19" y="216.4" width="3.48" height="17.32" transform="translate(-166.75 75.3) rotate(-18.66)"/><rect class="cls-67" x="410.58" y="207.65" width="3.48" height="24.39" transform="translate(-164.85 76.39) rotate(-18.65)"/><rect class="cls-68" x="416.65" y="209.17" width="3.48" height="20.92" transform="translate(-164.47 78.39) rotate(-18.66)"/><rect class="cls-66" x="422.98" y="212.27" width="3.48" height="15.83" transform="translate(-164.32 80.46) rotate(-18.66)"/><rect class="cls-67" x="427.66" y="205.33" width="3.48" height="21.04" transform="translate(-162.69 81.77) rotate(-18.67)"/><rect class="cls-68" x="432.54" y="199.6" width="3.48" height="25.01" transform="translate(-161.23 83.14) rotate(-18.67)"/><rect class="cls-66" x="437.38" y="193.62" width="3.48" height="29.23" transform="translate(-159.73 84.39) rotate(-18.66)"/><rect class="cls-67" x="443.81" y="197.32" width="3.48" height="23.52" transform="translate(-159.67 86.52) rotate(-18.66)"/><rect class="cls-68" x="450.12" y="200.29" width="3.48" height="18.56" transform="translate(-159.48 88.5) rotate(-18.65)"/><path class="cls-69" d="M450.92,234.53l5.69,0a5.65,5.65,0,0,0-.95-3.16h0l-4.75,3.14Z" transform="translate(-116.19 -67.03)"/><path class="cls-70" d="M450.91,234.53l4.75-3.14a5.69,5.69,0,0,0-7.88-1.6Z" transform="translate(-116.19 -67.03)"/><path class="cls-71" d="M450.91,234.53l-3.13-4.74a5.69,5.69,0,1,0,8.83,4.77l-5.69,0Z" transform="translate(-116.19 -67.03)"/><path class="cls-71" d="M432.15,234.82a5.68,5.68,0,1,0,7.88,1.61h0A5.68,5.68,0,0,0,432.15,234.82Z" transform="translate(-116.19 -67.03)"/><path class="cls-70" d="M432.15,234.82l3.13,4.75v0h0l3.56-4.48A5.69,5.69,0,0,0,432.15,234.82Z" transform="translate(-116.19 -67.03)"/><path class="cls-69" d="M438.84,235.13l-3.56,4.48v0l-1.12,5.51a5.69,5.69,0,0,0,5.88-8.71A5.93,5.93,0,0,0,438.84,235.13Z" transform="translate(-116.19 -67.03)"/><path class="cls-71" d="M416.66,240.3a5.68,5.68,0,1,0,7.88,1.61h0A5.7,5.7,0,0,0,416.66,240.3Z" transform="translate(-116.19 -67.03)"/><path class="cls-69" d="M425.07,247.18l-5.32-2.09-3.5,4.41a5.7,5.7,0,0,0,8.82-2.32Z" transform="translate(-116.19 -67.03)"/><path class="cls-70" d="M419.75,245.09l5.32,2.09a5.7,5.7,0,0,0-3.9-7.66L419.79,245Z" transform="translate(-116.19 -67.03)"/><rect class="cls-25" x="411.32" y="258.9" width="18.98" height="1.24" transform="translate(-177.1 81.26) rotate(-18.66)"/><rect class="cls-25" x="412.26" y="261.66" width="18.98" height="1.24" transform="matrix(0.95, -0.32, 0.32, 0.95, -177.94, 81.69)"/><rect class="cls-25" x="413.19" y="264.43" width="18.98" height="1.24" transform="translate(-178.78 82.17) rotate(-18.66)"/><rect class="cls-25" x="414.13" y="267.19" width="18.98" height="1.24" transform="translate(-179.61 82.59) rotate(-18.66)"/><rect class="cls-25" x="415.06" y="269.95" width="18.98" height="1.24" transform="translate(-180.44 83) rotate(-18.66)"/><rect class="cls-25" x="415.99" y="272.72" width="18.98" height="1.24" transform="translate(-181.28 83.48) rotate(-18.66)"/><polygon class="cls-51" points="301.04 211.52 314.27 207.05 314.66 208.22 301.43 212.69 301.04 211.52"/><rect class="cls-25" x="431.76" y="252" width="18.98" height="1.24" transform="translate(-173.82 87.44) rotate(-18.66)"/><rect class="cls-25" x="432.7" y="254.76" width="18.98" height="1.24" transform="translate(-174.65 87.86) rotate(-18.66)"/><rect class="cls-25" x="433.63" y="257.52" width="18.98" height="1.24" transform="translate(-175.49 88.32) rotate(-18.66)"/><rect class="cls-25" x="434.56" y="260.29" width="18.98" height="1.24" transform="matrix(0.95, -0.32, 0.32, 0.95, -176.33, 88.76)"/><rect class="cls-25" x="435.5" y="263.05" width="18.98" height="1.24" transform="translate(-177.16 89.19) rotate(-18.66)"/><rect class="cls-25" x="436.43" y="265.81" width="18.98" height="1.24" transform="translate(-178 89.66) rotate(-18.66)"/><rect class="cls-25" x="437.54" y="269.65" width="12.25" height="1.24" transform="translate(-179.35 89.15) rotate(-18.66)"/><rect class="cls-25" x="452.2" y="245.09" width="18.98" height="1.24" transform="translate(-170.54 93.6) rotate(-18.66)"/><rect class="cls-25" x="453.14" y="247.86" width="18.98" height="1.24" transform="translate(-171.37 94.06) rotate(-18.66)"/><rect class="cls-25" x="454.07" y="250.62" width="18.98" height="1.24" transform="translate(-172.21 94.5) rotate(-18.66)"/><rect class="cls-25" x="455" y="253.38" width="18.98" height="1.24" transform="translate(-173.04 94.93) rotate(-18.66)"/><rect class="cls-25" x="455.94" y="256.15" width="18.98" height="1.24" transform="translate(-173.88 95.4) rotate(-18.66)"/><rect class="cls-25" x="456.87" y="258.91" width="18.98" height="1.24" transform="translate(-174.72 95.85) rotate(-18.66)"/><rect class="cls-25" x="457.93" y="262.47" width="14.02" height="1.24" transform="translate(-175.93 95.6) rotate(-18.66)"/><path class="cls-72" d="M472.51,260c4,8.18,5.27,12.54,5.11,17.27l9.23-21.54C483.78,258.54,480.19,259.6,472.51,260Z" transform="translate(-116.19 -67.03)"/><path class="cls-73" d="M627.51,255.12a51.65,51.65,0,1,1-51.35,51.65A51.5,51.5,0,0,1,627.51,255.12Z" transform="translate(-116.19 -67.03)"/><g class="cls-74"><path class="cls-75" d="M630.24,263.62c-.22.17-1,1.22-1.32.26,0-.11.24,0,.35,0C629.6,263.79,630.24,263.62,630.24,263.62Z" transform="translate(-116.19 -67.03)"/><path class="cls-75" d="M618.23,257.74a10.1,10.1,0,0,0-1.33.5c-.09.05.4,0,.3,0a4.74,4.74,0,0,1-1.27.37c-.2,0-.39-.12-.58-.15s-.58.06-.47-.05C615.85,257.57,617.06,257.72,618.23,257.74Z" transform="translate(-116.19 -67.03)"/><path class="cls-75" d="M619.24,258.81c-.21.31-.24.89-.61.93a9.66,9.66,0,0,1-2.78-.51c-1.05-.18,1.18.54-1.5.51-.2,0-.05-.45-.23-.54-.58-.33-1.4,1.34-1.65.42,0-.09.2,0,.29,0s.38-.13.47-.3-.07-.52.08-.7.32,0,.48,0,.74-.33.75-.08-.73.26-.72.56.5,0,.74,0a2.07,2.07,0,0,0,.61-.31c.11-.06.18-.18.29-.21a7,7,0,0,1,1-.12c.19,0,.39-.13.57-.06.37.13-2.06,1.19-.89.49a4.56,4.56,0,0,1,1.21-.55c.22-.05.47.15.68.08s.36-.5.63-.52.71.12.67.38-.75.15-.81.45S619.24,258.81,619.24,258.81Z" transform="translate(-116.19 -67.03)"/><path class="cls-75" d="M640.8,259.59c-.54-.19-1.22-.17-1.63-.57-.22-.23.64-.22.94-.11S640.8,259.59,640.8,259.59Z" transform="translate(-116.19 -67.03)"/><path class="cls-75" d="M617.15,257.09l-.81-.09Z" transform="translate(-116.19 -67.03)"/><path class="cls-75" d="M617.31,256.57c-.11,0-.29.06-.35,0s.17-.14.27-.13S617.31,256.57,617.31,256.57Z" transform="translate(-116.19 -67.03)"/><path class="cls-75" d="M627.5,264.34c.22-.08.43-.32.64-.24s.35.77.65.67-.26-.57-.16-.83.32.09.41.22-.12.21,0,.26c.28.2.77.09,1,.38s-.39.12-.52.27.11.17.09.26a3.29,3.29,0,0,1-.49,1.21c-.07.09-.26-.12-.26-.24s.34-.05.26-.1-1.3,0-.83-.78c.15-.26,1.09-.12.85-.3s-.66.21-1,.19c-.08,0,.07-.17,0-.24A5.4,5.4,0,0,0,627.5,264.34Z" transform="translate(-116.19 -67.03)"/><path class="cls-75" d="M617.31,255.89c-.29-.07-.75.07-.87-.2s.46-.25.69-.2S617.31,255.89,617.31,255.89Z" transform="translate(-116.19 -67.03)"/><path class="cls-75" d="M614.27,257.48c-.14.09-.25.32-.41.29s-.44-.32-.32-.45.48,0,.72,0C614.3,257.36,614.27,257.44,614.27,257.48Z" transform="translate(-116.19 -67.03)"/><path class="cls-75" d="M613.55,258.33a3.89,3.89,0,0,1-.58.35c-.27.1-.66,0-.86.18s-.06.68-.2,1c-.07.12-.33.31-.38.18-.66-2,.67-1.25,1.8-1.76.25-.12.44-.54.7-.45S613.55,258.33,613.55,258.33Z" transform="translate(-116.19 -67.03)"/><path class="cls-75" d="M615.41,256.37c-.66.34-.73.61-1.43,0-.13-.1.32.15.47.1.4-.13.69-.55,1.1-.61C615.72,255.88,615.41,256.37,615.41,256.37Z" transform="translate(-116.19 -67.03)"/><path class="cls-75" d="M639.87,255.88c-.15.07-.27.2-.44.22s-1.13-.46-1.1-.66.49.05.73.11A7.59,7.59,0,0,1,639.87,255.88Z" transform="translate(-116.19 -67.03)"/><path class="cls-75" d="M640.2,265.56c-.12-.16-.25-.32-.38-.47s-.22-.13-.25-.24c-.21-.81.52-1,1.09-1.38,0,0,0,0,0,0-.06.35-.1.71-.15,1.06,0,.05-.05.11,0,.15.1.2.46.5.38.62s-.33.07-.29.17.47.16.49.36-.09,1-.38.87S640.2,265.56,640.2,265.56Z" transform="translate(-116.19 -67.03)"/><path class="cls-75" d="M612,257.31l.35-.28Z" transform="translate(-116.19 -67.03)"/><path class="cls-75" d="M611.23,258.37a6.55,6.55,0,0,1-1.51.61c-.22,0,.24-.39.44-.49A1.63,1.63,0,0,1,611.23,258.37Z" transform="translate(-116.19 -67.03)"/><path class="cls-75" d="M644.24,257.87a5.71,5.71,0,0,1-1-.34c-.07,0,0-.23.08-.2A4.81,4.81,0,0,1,644.24,257.87Z" transform="translate(-116.19 -67.03)"/><path class="cls-75" d="M615.05,255.71c-.42.15-.83.51-1.27.44-.22,0-.22-.52,0-.67s1.8-.42,2,.08C615.9,255.78,615.05,255.71,615.05,255.71Z" transform="translate(-116.19 -67.03)"/><path class="cls-75" d="M611.73,257.79a6.44,6.44,0,0,1-1.06.31c-.16,0-.54,0-.45-.15C610.61,257.37,611.27,257.68,611.73,257.79Z" transform="translate(-116.19 -67.03)"/><path class="cls-75" d="M641.22,268.15c-.51-1.15-1.15-1.43.16-1.55.06,0-.11.1-.09.15a2,2,0,0,0,.8.87,4.8,4.8,0,0,0,.83.38c.23.08.53,0,.73.15.47.32-.44.29-.57.28C642.46,268.35,641.22,268.15,641.22,268.15Z" transform="translate(-116.19 -67.03)"/><path class="cls-75" d="M607.64,271.56c-.08-.13-.16-.25-.23-.38s0-.24-.09-.21c-.3.13-.48.48-.8.56-.11,0-.09-.25-.21-.29s-.1.16-.18.17c-.27,0-.59-.14-.83,0s-.22.57-.46.73-.28-.26-.39-.17,0,.49-.2.65,0-.37-.12-.32a9.58,9.58,0,0,0-1.46,1,4,4,0,0,1-.63.45s0-.15-.08-.12-.18.35-.34.44-.08-.22-.13-.18c-.38.29-.55.87-1,1-.24.09-.77-.4-.55-.53s1.1-.4.91-.84c-.06-.14-.31.08-.45,0a1.39,1.39,0,0,1-.62-.44c0-.08.22.05.29,0a.68.68,0,0,0,.17-.43c0-.08-.12-.12-.13-.2,0-.33.25-.07.31-.06s-.14-.06-.12-.1.37-.26.53-.42,0-.07,0-.11-.09-.28,0-.39,1.24-.95,1.2-1.15-.26,0-.22,0a5.29,5.29,0,0,1,.73-.77c.16-.16.26-.42.48-.48s.57.33.73.14-.28-.5-.24-.76.23,0,.34,0a4.81,4.81,0,0,1,.84-.1c.12,0,.22.16.34.15s-.27-.19-.42-.18l-1,.08c-.07,0,.18,0,.24-.05.23-.19.32-.64.62-.65s.4.74.67.61-.58-.42-.5-.69.5,0,.72-.08.07-.35.17-.3.19.77.37.62-.32-.63-.13-.82.43.32.67.27a3.17,3.17,0,0,0,1.44-.75c.11-.11-.4-.26-.28-.36s.48,0,.72,0c.06,0-.19,0-.16,0a1.49,1.49,0,0,1,.43-.47c.33-.26,1.33-.15,1.1-1-.08-.31-1.16.23-.94,0s1-.29,1.45-.51c0,0-.07-.13,0-.16a2.2,2.2,0,0,1,.55-.34,6.36,6.36,0,0,0,.64-.32c.22-.16.37-.42.6-.6.56-.45.25.25.85-.64s-.16-.25-.36-1c0-.13.21-.17.32-.24s.39-.39.64-.39.39.34.63.42c.08,0,.25-.06.21-.13s-.27-.08-.36-.18a1.15,1.15,0,0,1,1.06-.64c1.08,0,.49.75,1.32.41s0-.78,1.78-.39c.23.05.32.44.55.45s.45-.5.69-.39c.59.27-.64,1.18.59,1,.33-.06.55-.45.88-.49s.35.39.57.37c.74-.08,1.29-.51,1.69.27,0,.07-.15,0-.23,0a5.12,5.12,0,0,0-.65-.25c-.18,0-.69,0-.52.1.43.16.95,0,1.38.21a.32.32,0,0,1,.07.44.83.83,0,0,1-.66.11c-.29,0-.54-.29-.84-.31s-.63.06-.52.21.48-.08.68,0c1.23.61,0,.79-.44,1-.08,0,.16,0,.24-.07s.2-.12.31-.11a3.85,3.85,0,0,1,1.43.25c.17.08-.35.12-.53.18-.42.14-.85.29-1.28.42-.13,0,.49-.24.38-.16a14.79,14.79,0,0,0-2,1.41c-.09.26.33.47.39.74,0,.07-.12.14-.2.13-.29-.06-.53-.32-.83-.33-.1,0,0,.2,0,.29,0,.31.11.73-.12.93s-.75-.31-.91-.06.61.52.45.76-.53-.46-.75-.31-.06.73-.3,1c-.8.82-.66-.52-.71-.57s-.19.17-.3.17c-.29,0-.59-.38-.83-.22s-.13.65-.25,1c0,.09-.29.19-.2.22s.34-.22.48-.13c.7.45-.22,1.62-.38,1.83s-.28,0-.29-.06.36-.27.24-.35-.17.25-.3.31c-.39.17-.4-.67-.51-1.31,0-.21-.16-.81-.06-.63.93,1.71.12.63-.58,1-.14.08.1.4,0,.48s-1.11-.15-.89,0c.53.44,1.38.34,1.89.8.19.17-.49.19-.75.22-.07,0-.11-.15-.19-.12-.32.09-.59.34-.92.44-1.47.45-.19-.57-2.3-.71-.27,0-.27.5-.5.64s-.3-.06-.45,0-.15.16-.25.21-.08,0-.12,0a9.29,9.29,0,0,1-.85.53A3.15,3.15,0,0,1,607.64,271.56Z" transform="translate(-116.19 -67.03)"/><path class="cls-75" d="M608.64,265.22c-.25,0-.49.07,0,0C608.66,265.2,608.64,265.21,608.64,265.22Z" transform="translate(-116.19 -67.03)"/><path class="cls-75" d="M613,256.26a5.59,5.59,0,0,1-1.19.67c-.29.1-.6.1-.89.19,0,0,.09,0,.14,0,.4-.05.78-.13,1.18-.2.06,0,.22-.07.17,0-1,.56-2.22.45-3.25,1-.23.12-1.11.76-1.46.33-.13-.17.33-.26.51-.35a6.47,6.47,0,0,0,.77-.3c.27-.2.4-.57.67-.76s.39-.05.57-.12.57-.29.87-.4.78-.32.64-.16c-.29.32-.83.35-1.1.68s.55-.21.82-.33a4.39,4.39,0,0,1,.73-.41c.25-.08.53,0,.79-.09.11,0,.3-.26.32-.15S613,256.26,613,256.26Z" transform="translate(-116.19 -67.03)"/><path class="cls-75" d="M607.58,265.65a8.57,8.57,0,0,1-1,.74c-.07,0,0-.17.09-.22A7.53,7.53,0,0,1,607.58,265.65Z" transform="translate(-116.19 -67.03)"/><path class="cls-75" d="M606,261.53c-.07.05-.12.13-.2.16S605.89,261.48,606,261.53Z" transform="translate(-116.19 -67.03)"/><path class="cls-75" d="M607.77,258.75l-1,.43c-.15.07-.54.33-.44.2a2.14,2.14,0,0,1,.8-.66C607.33,258.63,607.55,258.74,607.77,258.75Z" transform="translate(-116.19 -67.03)"/><path class="cls-75" d="M629.26,273.47c-.44,0,.1-.3.22-.19s0,.18-.11.23S629.26,273.47,629.26,273.47Z" transform="translate(-116.19 -67.03)"/><path class="cls-75" d="M628.7,274c.06,0,.12-.11.19-.12S628.7,274,628.7,274Z" transform="translate(-116.19 -67.03)"/><path class="cls-75" d="M604.41,264.47c-.16.14-.44.2-.48.41s.49-.24.43-.11c-.15.33-.53.52-.74.82s-.25.61-.45.87c0,.05,0-.2-.08-.18-.39.1-1.29.71-1.81.69-.12,0,.19-.14.27-.22s.14-.22.25-.3c.27-.18.71-.16.85-.45s0-.76-.25-.81-.47.42-.71.62c-.39.31-.41.22-.71.55-.5.53-.94,1.24-1.66,1.5a2.14,2.14,0,0,1-.35.06c-.24.06-.56.4-.7.2s.13-.58.27-.84.33-.27.45-.45.12-.42.24-.61c.26-.43.85-.66,1.15-1.05s.34-1.11.56-1.25.42.13.39.3-.63.18-.48.31.76.19,1.15.28c.21.05.48.26.64.11s0-.6.13-.83.36,0,.51-.08a3.24,3.24,0,0,0,1-.58c.23-.23.29-.59.5-.85s2.1-.71,2-1.12-.77.29-.88,0,.51-.29.69-.52a4.14,4.14,0,0,0,.3-.76c.17-.32.63-.35,1-.48a2.43,2.43,0,0,1,2.27,0c.22.12-.51-.08-.76,0a9.84,9.84,0,0,0-1.85.47c-.07,0,0,.23.07.22.69-.12,1-.67,1.75-.56.23,0,.58.14.58.37s-.37.2-.57.26c-.42.14-1,0-1.28.32s.69,0,.77.31-.31.36-.52.47-.13-.12-.2-.1a3.54,3.54,0,0,0-.91.46c-.11.08-.31.26-.2.34s.77-.1.6,0c-.47.33-1.15.3-1.58.68-.23.21.89-.39.92-.08.1,1.18-1.1.21-1.38.54-.15.17.1.54-.09.66s-.38-.32-.57-.25S604.41,264.47,604.41,264.47Z" transform="translate(-116.19 -67.03)"/><path class="cls-75" d="M602.63,262.06c-.11.05-.33.24-.31.13s.2-.13.32-.17S602.63,262.05,602.63,262.06Z" transform="translate(-116.19 -67.03)"/><path class="cls-75" d="M611.23,275.82c-1.36-1.34.16-1.22.86-1.51.07,0-.17-.05-.25-.09a8.76,8.76,0,0,1-.84-.35c-.09-.05.22.12.31.07.32-.17.48-.67.85-.7s.43.36.43.61-.36.5-.43.79.17-.28.32-.35,0,.14.12.15.12-.13.2-.14.25.09.37,0,.09-.35.2-.3.12.5.33.55c.63.14,1.91-.8,1.83.67,0,.2-.34.21-.49.35s-.24.46-.46.57-.28-.14-.42-.1a15.93,15.93,0,0,1-1.74.55,1.5,1.5,0,0,1-.86-.34A1.76,1.76,0,0,1,611.23,275.82Z" transform="translate(-116.19 -67.03)"/><path class="cls-75" d="M601.46,262.85c-.31.2-.63.38-.93.59s-.38.59-.58.45,0-.55.1-.79c.65-1.2.38-.4,1-.58s1-.39,1.45-.57c0,0,.18,0,.14,0-.22.15-.5.23-.71.39A3.53,3.53,0,0,0,601.46,262.85Z" transform="translate(-116.19 -67.03)"/><path class="cls-75" d="M599.7,264.86c0-.09.17-.26.17-.26S599.75,264.77,599.7,264.86Z" transform="translate(-116.19 -67.03)"/><path class="cls-75" d="M599.55,264.74l.2-.3Z" transform="translate(-116.19 -67.03)"/><path class="cls-75" d="M615.68,284c0,.06-.08.15-.15.19s0-.06,0-.09A.7.7,0,0,1,615.68,284Z" transform="translate(-116.19 -67.03)"/><path class="cls-75" d="M628.65,286.9c-.3.35-.47.88-.9,1-.22.07-.3-.4-.28-.63s.25,0,.36,0A8.34,8.34,0,0,0,628.65,286.9Z" transform="translate(-116.19 -67.03)"/><path class="cls-75" d="M626.67,288.06c0,.05,0,.16,0,.16S626.67,288.11,626.67,288.06Z" transform="translate(-116.19 -67.03)"/><path class="cls-75" d="M625.59,288.43c.09,0,.25,0,.27-.14s-.17,0-.24,0S625.6,288.39,625.59,288.43Z" transform="translate(-116.19 -67.03)"/><path class="cls-75" d="M617.35,283.18c.36.15.9.12,1.09.47.27.5-1.48.6-1,.86s1.29-.18,1.6.26c.75,1.05-1.78.86-1.66,1.48,0,.15.31.06.44.14a3.54,3.54,0,0,1,.84.54c0,.06-.06.16,0,.24.15.4.39.77.54,1.17a6.7,6.7,0,0,1,.23.85c.08.33,0,.72.24,1s1-.08.82.67c-.31,1.29-.54.28-1.24,1.14-.18.23-.11.6-.25.86,0,0-.12-.07-.18-.09a3.32,3.32,0,0,0-1.1-.29c-.32,0-.54.38-.86.39s-.48-.36-.74-.31-.08.45-.26.52-.25-.16-.38-.25c-.46-.32-1.07-.55.22-1,.29-.1.62.18.92.09s.75-.34.59-.57-.48.36-.75.34-.46-.31-.7-.45-.77-.11-.69-.36.62-.18.9-.33c.94-.51-.35-.18-.18-.76.28-.93,1.11-.22,1.56-.36.12,0-.17-.17-.21-.29-.13-.49-.17-1-.27-1.51a9,9,0,0,1-.24-.89c0-.31.18-.66,0-.93s-.32.11-.42.23a2.09,2.09,0,0,0-.47.78c-.07.22.31-.36.41-.57,0,0-.14,0-.14,0,0-.38.62-.55.66-.92,0-.17-.44.34-.48.18s.27-.44.37-.67a.86.86,0,0,0,.09-.35c0-.18-.21-.39-.1-.53s.36.19.47.08A2.11,2.11,0,0,0,617.35,283.18Z" transform="translate(-116.19 -67.03)"/><path class="cls-75" d="M615.09,288.19c-.05.05-.14.1-.15.17s.13.3.1.44a5.26,5.26,0,0,1-.64,1.59c-.07.11-.26-.05-.38-.07-.84-.18-1.69-.32-2.52-.53a2.72,2.72,0,0,0,.53,0c.3-.06.87,0,.85-.33s-.9.22-.87-.07.9-.22,1-.6c.36-2.46-2.25,1.72-.49-1.19.35-.56.63.15,1.11.12,0,0,1.26-1.15,1.73-.94a.61.61,0,0,1,.39.57C615.65,287.72,615.09,288.19,615.09,288.19Z" transform="translate(-116.19 -67.03)"/><path class="cls-75" d="M616.17,289.16l-.12,0Z" transform="translate(-116.19 -67.03)"/><path class="cls-75" d="M623.31,290.35c-.1.26-.06.64-.3.78s0-.43,0-.63S623.31,290.35,623.31,290.35Z" transform="translate(-116.19 -67.03)"/><path class="cls-75" d="M590.6,278.22c-.3.28-1.67,1.1-1.76,1.21a1.15,1.15,0,0,0-.13.94c.07.23.54.23.55.47s-.39,0-.52.17.11.22,0,.3-.34-.07-.32,0,.4.14.36.29c-.15.51-1.41-1.42-.88.63,0,.2.41-.29.59-.19s-.31.15-.45.26-.05.15-.1.21a2.62,2.62,0,0,1-.52.67c-.06.05-.14-.13-.11-.2s.29-.27.39-.45a2,2,0,0,0,.36-.84c0-.16-.21.26-.35.32a.85.85,0,0,1-.6.12c-.09,0-.08-.22,0-.31.19-.29.61-.41.72-.73,0-.15-.38.1-.47,0-.52-.74.26-.84.48-1.34.06-.11-.14-.25-.1-.37s.2-.09.23,0-.22.22-.15.19c.38-.17,1.36-.83,1.75-1.07.21-.13.37-.34.6-.41S590.47,278.17,590.6,278.22Z" transform="translate(-116.19 -67.03)"/><path class="cls-75" d="M586.43,280.32c-.29.2-.69.29-.88.59-.08.13.18.42.31.34A2.6,2.6,0,0,0,586.43,280.32Z" transform="translate(-116.19 -67.03)"/><path class="cls-75" d="M646.74,296.61c.4.13.81.25,1.21.39.09,0-.21,0-.3-.07Z" transform="translate(-116.19 -67.03)"/><path class="cls-75" d="M631,300.8l.46.45Z" transform="translate(-116.19 -67.03)"/><path class="cls-75" d="M626.1,303c-.26.53-.34,1.19-.77,1.58-.21.18-.21-.57-.08-.81s.52-.19.72-.37S626.1,303,626.1,303Z" transform="translate(-116.19 -67.03)"/><path class="cls-75" d="M625.88,305.25a3.68,3.68,0,0,1,.55.93c0,.13-.16.23-.21.36s.11.08.11.23c0,.81,0,1.26-.9,1.5-.17,0-.34-.1-.48-.21s.11,0,.12-.06C625.37,307.09,625.88,305.25,625.88,305.25Z" transform="translate(-116.19 -67.03)"/><path class="cls-75" d="M642.5,306.41c0,.15.23.48.08.46s-.24-.3-.27-.49S642.44,306.4,642.5,306.41Z" transform="translate(-116.19 -67.03)"/><path class="cls-75" d="M632.2,309a3.25,3.25,0,0,0-.49,1c0,.24.69.8,0,1.06s-.52-.3-.87-.5c-.15-.08-.35,0-.51-.09a5.69,5.69,0,0,1-.6-.4c-.25-.15-.64-.14-.77-.39s.15-.4.31-.5c.61-.37.57.13,1.05.25.08,0,.16-.09.25-.12.29-.08.59-.14.89-.2S632.2,309,632.2,309Z" transform="translate(-116.19 -67.03)"/><path class="cls-75" d="M650.85,309.16a3.68,3.68,0,0,1-.24,1c-.07.11-.29,0-.39.11-.26.22-.73,1.51-1.31.21-.08-.18.4-.1.53-.25s-.11-.25,0-.31c.24-.17.59-.11.84-.24A3.21,3.21,0,0,0,650.85,309.16Z" transform="translate(-116.19 -67.03)"/><path class="cls-75" d="M669.89,310.61c-.16.3-.23.68-.49.89s.07-.44.17-.63A1.1,1.1,0,0,1,669.89,310.61Z" transform="translate(-116.19 -67.03)"/><path class="cls-75" d="M680.36,296.3c-.08,0,.11.3.06.24Z" transform="translate(-116.19 -67.03)"/><path class="cls-75" d="M660.93,327.52s0,.13,0,.13S660.92,327.56,660.93,327.52Z" transform="translate(-116.19 -67.03)"/><path class="cls-75" d="M680.82,314.3c.06-.64.15-1.29.19-1.94,0-.07-.09.12-.08.19,0,.23.11.46.12.69s-.1.91-.14,1.17,0,.94-.13.74S680.8,314.59,680.82,314.3Z" transform="translate(-116.19 -67.03)"/><path class="cls-75" d="M577.51,326.1c-.15-.24-.48-.72-.48-.72S577.36,325.86,577.51,326.1Z" transform="translate(-116.19 -67.03)"/><path class="cls-75" d="M576.71,324.53l.06.21Z" transform="translate(-116.19 -67.03)"/><path class="cls-75" d="M656.17,352.38c.08-.05,1.44-1,1.52-1.11s.2-.4.34-.57a6.93,6.93,0,0,1,.84-.78c.46-.37,1.1-.66,1.55-1,.21-.17.38-.37.58-.54,0,0-.15.17-.1.14.34-.27.67-.54,1-.84,0,0-.12,0-.1,0a12,12,0,0,1,1.1-1c.11-.11.75-.94.77-.92.43.65-.65,1.22-.9,1.48s-.18.31-.3.44a23.79,23.79,0,0,1-4.34,3.66Z" transform="translate(-116.19 -67.03)"/><path class="cls-75" d="M656.06,352.62l.11-.24Z" transform="translate(-116.19 -67.03)"/><path class="cls-75" d="M579,283.52a54.33,54.33,0,0,1,32.09-28A55.39,55.39,0,0,1,625.52,253l.07,0a70.28,70.28,0,0,0-8.39,1.13c-.53.14-1.07.26-1.6.44-1.7.56.73,0-1.24.51-.22,0-.46,0-.68.12s-.46.23-.7.32c-2,.78.06-.15-2.13.74a5.44,5.44,0,0,1-.54.27c-.24.07-.49,0-.72.12a5.18,5.18,0,0,0-1,.54s0,.09-.07.12c-.25.11-.53.18-.78.29-.07,0,.87-.22.68.1-.07.12-1.44.57-1.8.83s-.39.35-.59.52-.51.31-.36.31c.33,0,.6-.3.92-.33.17,0-.28.21-.43.28a7.07,7.07,0,0,1-1,.3c-.22.07-.88.26-.64.25a12.33,12.33,0,0,0,1.9-.31c.06,0-.23,0-.18-.06.34-.17.7-.27,1.05-.41.16-.06.3-.23.47-.2s.31.25.23.36a1.53,1.53,0,0,1-.83.39c-.1,0-.2-.11-.3-.09a.93.93,0,0,0-.31.22s0,0,0,0a8,8,0,0,1-.72.35c-.19.08-.44.07-.6.21s-.06.26-.12.37,0-.08,0-.07a10.32,10.32,0,0,0-1.1.56s.08,0,.13,0a8.82,8.82,0,0,1,1.14-.22c.05,0-.13.14-.07.15s.15-.1.23-.13c.3-.13.63-.51.92-.35s-.27.43-.45.61a2.89,2.89,0,0,1-1,.51c-.07,0,0-.17-.11-.17s-.2.1-.29.16c-.25.14-.48.31-.73.44s-.37.26-.43.13.44-.63.21-.67c-1-.19-.57,1.29-1.25.15-.09-.16.07,0,.83-.65.11-.1.4-.34.26-.35s-.22.24-.36.34-.36.19-.51.33-.18.34-.33.43-.84.47-.83.19c0-.48.61-.74.85-1.16.05-.09-.19.07-.28.12s-.24.25-.38.36a6.9,6.9,0,0,1-.79.54s-.09-.05-.13-.05a15.79,15.79,0,0,0-1.67.3,4.49,4.49,0,0,0-1.23.68c-.06,0,.24-.13.19-.08a7.41,7.41,0,0,1-1.45,1c-.07,0-.18,0-.23.07s-.05.21-.11.31c-.33.61-1.1,1-1.59,1.45-.18.18-.33.4-.5.59a3.78,3.78,0,0,1-.4.4c-.07,0-.19,0-.23.1-.15.24-.18.55-.32.79s-.47.29-.7.46a10.7,10.7,0,0,0-2.13,2c-.3.35-.68.41-.86,1-.08.29.4-.51.69-.56.11,0,.24,0,.32,0,.25-.18.42-.44.65-.64s.41-.28.61-.43.4-.64.74-.73c.19-.05.37.26.56.21a5,5,0,0,0,1.27-.73c.88-.58.55-.55,1.3-1.27a4.85,4.85,0,0,1,1.19-.5,9.84,9.84,0,0,0,1.3-.68c.26-.17.48-.39.75-.54.07,0,.23,0,.21,0a1.64,1.64,0,0,1-.37.58s-.09,0-.11,0c-.18.36-.27.76-.46,1.12,0,0-.11,0-.15,0a1.48,1.48,0,0,0-.39.4c-.11.21,0,.54-.21.69s-.54-.07-.77.05,0,.29-.08.39-.4.22-.57.37,0,.09,0,.13a3,3,0,0,1-.65.73c-.21.14-.91,0-.71.16a2.06,2.06,0,0,0,1.21.18c.16,0,.28-.14.43-.2s.74-.65.84-.36c.48,1.44-.64.39-.83.81,0,.08,0,.19,0,.24-.27.24-.66.32-.89.58-.07.08.29.08.24.17s-.35.18-.49.33c-.39.41-.4.93-1,.94-.05,0,0-.16,0-.13a7,7,0,0,1-.38.72c-.29.39-.69.66-1,1.06-.06.08.31-.14.29-.05s-.39.25-.42.46.28.61.21.91-.76-.35-.49.25c0,.07.14-.26.1-.2a3.06,3.06,0,0,0-.55.81c-.36,1.07.88.52-.69,1.51s-.36-.07-1.22-.26c-.17,0-.27.22-.43.27a.78.78,0,0,1-.56,0c-.5-.26-.17-1.83-.41-2.23-.14-.23-.46.41-.72.35s-.32-.69-.63-.68-.08.52-.26.69-.63.21-.9.39c-.06,0,.09.1.15.11.55.09,1.17-.06,1.65.21.19.1-.06.43-.16.63s-.17.41-.33.37-.27-.72-.47-.58,0,.69-.11,1-.36.1-.49.24a3.56,3.56,0,0,0-.49.82,3,3,0,0,0-.28.73c-.1.51.1,1.08-.15,1.53-.1.17-.33-.25-.53-.3s-.72.13-1-.08.47-1,.59-1c.28,0,.48.46.75.37s-.17-.4-.1-.59.58-.27.51-.49-.4.32-.59.25.07-.47-.1-.51-.16.37-.33.39c-.33,0-.64-.27-1-.23-.08,0-.8.91-.92,1s0-.1-.06-.15-.14-.33-.28-.41,0,.15-.08.2c-.22.24-.51.93-.69.67s.71-1.1.51-.85c-1.06,1.29,0,.15-.75,1.13-.15.21-.57.82-.55.56s1.14-1.56,1.23-1.71-.05-.12-.08-.09a7.9,7.9,0,0,0-.49.74c0,.08-.21.33-.16.24.14-.27.31-.54.46-.81a.51.51,0,0,1,.07-.1l-.77,1.27c-.08.13-.25.5-.24.36a2.12,2.12,0,0,1,.25-.61,3,3,0,0,1-.15.36c-.13.28-.27.55-.41.82s-.53.93-.4.7a6.13,6.13,0,0,0,.49-.86c0-.1-.19.11-.25.2s-.16.47-.29.68-.12.26-.24.28,0-.31-.1-.25a4.82,4.82,0,0,0-.61.91.65.65,0,0,0-.08.17l0-.06Z" transform="translate(-116.19 -67.03)"/><path class="cls-75" d="M649.36,314.83a2.91,2.91,0,0,0-.85.14c-.27.14-.41.45-.66.63-.09.06-.23,0-.32,0s-.51.72-.76.72c-1,0-1.92-.18-2.88-.26a1.56,1.56,0,0,0-.48,0c-.21.05-.38.28-.59.26a6.4,6.4,0,0,1-1.45-.45s0-.05,0-.06c-.21-.08-.5.18-.69.05s-.09-.46-.27-.57a2.57,2.57,0,0,0-1-.26,3.24,3.24,0,0,0-1.6.69c-.64,1.85.29,1.85-1.1,3-.41.33-1.1-.42-1.26-.5a3.67,3.67,0,0,0-.92-.3c-.62-.11-1.61.11-2-.57-.18-.28-.09-.75-.38-.92-2.87-1.75-1.13-.15-3.06-.44-.79-.12-1.07-.74-1.73-1.08-.12-.07-.3.08-.41,0-1.15-.91.9-1,.86-1.94,0-.22-.77-1-.72-1.13.39-1.18,1.73-1-.6-1.55-.7-.18-.68.35-1.27.48a21.09,21.09,0,0,0-1.47,0c-.25-.05-.46-.24-.71-.25s-.15.16-.24.2a2.32,2.32,0,0,1-.94.31,15.52,15.52,0,0,1-1.58-.44,8,8,0,0,0-3.49.5c-.17.11-.22.36-.4.42s-.57-.12-.83,0-.68.5-1.06.67-.78-.49-1.12-.59c-.16,0-.25.24-.41.25a3.16,3.16,0,0,1-1.33-.28,2.06,2.06,0,0,1-.46-.56c-.09-.16,0-1-.61-.37-.37.37-.76,1.86-1.35,2.06s-1.21.11-1.66.46c-.16.12-.28.28-.44.4s-.34.14-.45.28,0,.32-.07.45-.42.32-.5.56c-.57,1.71.33,1.28-.81,2.42a6,6,0,0,1-2.18,1.12c-.67.13-.74-.39-1.13.15-.18.24-.21.59-.44.78s-.87.17-1.08.51a7,7,0,0,0-.47.85c-.1.21,0,.5-.17.68a2.34,2.34,0,0,1-.78.49c-.14.08-.67.09-.42.25.08.05.29-.22.25-.13a4.64,4.64,0,0,1-.55.86c0,.06-.11.08-.15.14s-.09.31-.2.41-.32.14-.45.26,0,.14-.06.22a3.15,3.15,0,0,0-.22,1c0,.13.24.12.33.23s.4.41.4.68-.4.46-.41.75c0,.64.56,1.3.32,1.9-.13.34-.37.63-.49,1-.23.6.14.71-.48,1.23-.17.15-.51,0-.64.2s.23.15.33.24a4.74,4.74,0,0,1,.75.8c0,.05-.09.1-.12.16a.54.54,0,0,0-.09.32.57.57,0,0,0,.15.3c0,.07.23.07.22.16-.09.53-.33-.42-.53-.4s-.11.29,0,.39a11.52,11.52,0,0,0,1,.92c.11.1-.23-.18-.36-.25s-.93-.52-.68,0a1.82,1.82,0,0,0,.56.64c.11.08.33-.06.41.05s-.35.11-.26.16c.29.13.73-.08.94.16s-.47.16-.47.35.31.38.45.59a4,4,0,0,0,.34.56c.19.2.48.31.66.51a5.24,5.24,0,0,1,.71,1c0,.08,0,.19,0,.28.12.34.34.64.45,1,0,0-.12.1-.08.14.22.21.81.33.8.54s-.37,0-.31.07.46.28.68.44c1.1.8-.06,0,.5.55,1.88,1.95-.29-.34,1.09.83.63.54,1.71,2,2.59,2.1a27.35,27.35,0,0,1,5.54.82c.09,0-.37,0-.28,0a14.79,14.79,0,0,0,2.07.39,8.79,8.79,0,0,0,1-.15c1.71-.07,3.43-.1,5.14-.11.6,0,.53.38,1.15.67.09,0,.22-.18.27-.1.36.56-.07,1.32,1,1.41.28,0,.45-.4.72-.41s.74.26,1.12.33a1.13,1.13,0,0,0,.75,0c.11-.07-.26-.29-.14-.36.42-.24.62.62,1.11.82.23.1.54-.22.74-.07.62.46.14.92.09,1.39s.1.69,0,1c-1.67,4.62.64-3.8-1.25,1.13-.06.16.21.28.31.42a3.32,3.32,0,0,0,.32.42c.09.08.23.09.33.15s-.41-.18-.31-.14a4.5,4.5,0,0,1,1,.45c.13.1-.62-.17-.5-.05.45.39,1.8.93,2.37,1.31s0,.28.53.9c.2.22,1.18,1.05,1.23,1.37,0,.16-.47,0-.45.19s1.24.79.83,1.23a3.17,3.17,0,0,1-1,.54c-.15.07-.34.06-.45.18s-.23.47-.41.66-.36.09-.44.24,0,.3,0,.46,0,.2,0,.25a3.8,3.8,0,0,0,.76.27l1.69.68s.12,0,.12.07-.14.08-.09.1c.92.23,1.86.39,2.79.6l-.2,0c1-.08,1.94-.19,2.9-.36a56.37,56.37,0,0,0,7.59-1.85h.1c1.45-.48,2.8-1.13,4.21-1.72a5.83,5.83,0,0,0,1.24-.57c.2-.24.21-.61.42-.84s.39-.14.57-.23a14.6,14.6,0,0,0,1.8-1.12c1.25-.82,3.2-1.45,4.05-2.76a7.91,7.91,0,0,0,.48-.79c.08-.17,0-.39.11-.55s.3-.27.4-.44-.11,0-.13,0a1.81,1.81,0,0,1-.44-.9c0-.24.45-.34.43-.58s-.53,0-.51-.23c.07-.56.87-1.19,1.2-1.61.13-.17.19-.38.31-.54s.14-.07.18-.13,0-.3.15-.4.53-.37.74-.6c0,0-.06-.14,0-.18s.28-.11.4-.2a5.3,5.3,0,0,0,.71-1c.73-.94,1.59-1.86,2.37-2.77.47-.56,1-1,1.5-1.59a18,18,0,0,0,1.75-2.55,19.25,19.25,0,0,0,1-1.92c.26-.62.42-1.28.7-1.89a11.88,11.88,0,0,0,.79-1.79,7.36,7.36,0,0,1,.06-.82c.06-.17.29-.23.37-.39s-.24.34-.28.23a1.68,1.68,0,0,1,0-.83c0-.19.22-.39.14-.56s-.28,0-.37.12-.31.55-.5.8-.43.42-.64.63c-.74.72.59-.58-.55.35-.12.1-.17.27-.29.36s-.42.17-.58.32-.45.67-.76.92c-.15.13-.37.11-.56.16-.7.2-1.42.39-2.12.62-.23.08-.7.55-.65.31s.63-.5.77-.86-1.88-1.42-2.06-1.46-.63.17-.93.09-.13-.43-.29-.4,0,.53-.13.47c-.59-.21-.66-2-1.25-2.49a2.54,2.54,0,0,0-.85-.39c-.11,0-.28.07-.33,0a4,4,0,0,1-.25-1,10.79,10.79,0,0,1-.34-1.2c0-.08.21-.05.19-.11s-.33-.28-.42-.46,0-.34-.05-.46a2.63,2.63,0,0,0-.73-.42c-.21-.12-.55-.11-.66-.34s.22-.65.08-.94-.54-.24-.75-.44c-.74-.73-.34-.64-.75-1.17s-.36-.11-.76-.88c0-.1.07-.22,0-.31-.19-.34-.49-.59-.69-.92,0,0,.14,0,.11-.06-.65-.71-1.21-.57-1.53-1.7Z" transform="translate(-116.19 -67.03)"/><path class="cls-75" d="M650.16,317c0-.12.26-.14.37-.08.74.38.67,2,1.76,1.68.36-.1.23-.74.44-1.05s-.29.45-.14.59.43-.24.63-.16.8.91,1,1.22a3.58,3.58,0,0,0,.47.56c0,.05.16,0,.2,0s0,.23.06.32a6.51,6.51,0,0,0,.58.46c.31.27.56.59.88.85.15.13.4.14.54.29a4.29,4.29,0,0,1,.86,1.25c.07.19-.15.4-.12.6a1.86,1.86,0,0,0,.33.78c.74,1.07.5.2,1.59.79.6.33.43,1.07,1.13,1.56.14.1.42,0,.49.17.27.64.21,1.39.44,2.05,0,.1.24,0,.29.14a3.64,3.64,0,0,1,.36,1s-.16,1,.25.86c1.51-.43,1-.74,1.77-1.6.14-.17.62-.4.83-.59,2.64-2.36-1.51,1.33,1-1.22.15-.15.41-.17.55-.34s.27-.62.47-.9.58-.65.85-1,.92-.79,1.15-1.4c.08-.2-.06-.45,0-.66a10.06,10.06,0,0,1,1.15-1.65c.2-.18.5-.28.62-.52s0-.67.14-1,.44-.35.56-.59a6.93,6.93,0,0,0,.18-1,24.17,24.17,0,0,0,1.11-4.95c0-.51-.72.3-1.85-.32-.47-.25-.55-1.66-.95-1.3a1.46,1.46,0,0,0-.41.45c-.07.15,0,.33,0,.49a13.46,13.46,0,0,1-.35,1.39,7.6,7.6,0,0,1-1.72,1.46c-.92.3-.28-.83-.31-.86-.14-.19-.57-.28-.71-.09s.48.69.23.73c-.7.12-.66-1.46-.93-1.7a3,3,0,0,0-.89-.53c-.1,0-.23.17-.32.09-.26-.21-.33-.58-.56-.83s-.63-.31-.77-.6.3-.22.3-.39-.33-.25-.29-.42.31-.09.44-.19c.47-.36.39-.7,1.05-.86.18,0,.9.81,1.08,1.11s.16.51.38.6.62-.11.92-.07c.71.12,1,.74,1.68.17.33-.29.77-1.84,1.14-1.71s.36.81.66,1.13a3,3,0,0,0,1.07-.5c.3-.22.48-.59.79-.8s.42-.18.59-.32,1.41-1.55,1.43-1.58,0-.13,0-.19c.12-.24.31-.44.44-.68s0-.41.15-.47.16.22.27.3c.29.18.61.3.91.45s.41.42.58.3.09-.77.37-1,.05.46,0,.68a3.66,3.66,0,0,1-.26.79c0,.05-.13.18-.1.13a8.09,8.09,0,0,1,1.24-2.21c.25-.22,0,.66.09,1q.2,1,.48,2c0,.09,0-.41,0-.31a8.57,8.57,0,0,1,.28,1.24c.07.29.07.59.16.86.37,1.18.43.7.57,1.56s.27,1.81.43,2.7c0,.06,0,.21.06.15.94-6.18.55-8.7.21-15.94,0-.18-.12-.34-.13-.51-.08-.76-.08-1.52-.15-2.27,0-.19.12-.52,0-.69l-.12-.56A57,57,0,0,0,677,285.43,53.85,53.85,0,0,0,639,254.19a56.82,56.82,0,0,0-9.17-1.09l0-.08a37.56,37.56,0,0,1,7.83,1.22c.3.1,1.67.41,1.92.53s.34.33.53.49a5.33,5.33,0,0,0,2,.75c.06,0,.13-.08.19,0a4,4,0,0,1,.78.45c.14.09.22.26.37.33s1.29.29,1.31.33c.06.32-.36.55-.41.87,0,.14.25.26.18.39s-.42-.17-.33-.08c.27.29.82.35,1,.74.1.23-.48-.16-.72-.11s.08.18.16.24.32.13.45.23.36.41.56.58a2.79,2.79,0,0,0,.47.28,19.55,19.55,0,0,0-3.19-1.66c-.05,0-2.21,0-1.91.62.56,1.14,1.92.68,2.8,1,.12.05-.26,0-.39,0s-.6-.35-.76-.15.25.43.36.65a2.83,2.83,0,0,0,.31.71c.24.27.62.37.85.62,0,.06-.24.07-.18.1.6.25,1.26.35,1.86.59.18.07-.38,0-.56-.06s-.29-.46-.39-.32a1,1,0,0,0-.1,1c.09.21.41.19.64.24.53.11,1.09.09,1.62.23.18.05.3.23.46.32a4.9,4.9,0,0,1,1.06.5c.14.14-.4,0-.59-.06s-1.88-1-2.2-.38c-.49,1,1.51.77,1.52.79.15.23-.51.22-.78.24a8.94,8.94,0,0,1-1.21-.71c-.12-.06-.52-.18-.42-.08s.55.22.76.42.2.52.42.67.61.12.9.22a.8.8,0,0,1,.24.18c.19.15.86.86,1.19.81s.46-.47.77-.52c1-.17.43.49,1.08.69.14,0,.51-.27.4-.18s-.29.27-.46.23-.95-.79-1.25-.6c-.14.09-.13.37,0,.51.22.33.74.32,1,.59,1.14,1,.15.15.66,1.11.05.1.33.13.26.22-.48.62-1.11.41-1.12.3s.33-.33.32-.53a2.21,2.21,0,0,0-1.06-1.4c-.19-.1-.45,0-.65-.12a8.91,8.91,0,0,1-1.26-.75,4.06,4.06,0,0,0-.51-.42c-.23-.11-.52-.06-.74-.19s-.78-.94-1-.84c-1.4.46.12.85.3,1.22.1.2.11.46.27.62s.28,0,.41.09c.63.29,1.21.68,1.86,1,.06,0,.23-.12.17-.1a9.22,9.22,0,0,1-1.13.46c-.81.2-.67-.34-1.47.22-.36.26.31.31.5.5s.16.34.26.5.35.2.26.28-.55.11-.81.2c-.85.3-.33.2-.88.82,0,.05.07-.15,0-.22s-.1-.46-.29-.55-.22.17-.29.29,0,.25-.09.36c-.21.48-.5.92-.68,1.4-.11.28.08.71-.17.87s-.61-.05-.72-.29.54-.5.34-.63a.86.86,0,0,0-1,.21c-.39.51.94,1,1,1.06.21.49-.8.39-.83.41s0,.28,0,.4-.33.46-.43.72.89.38.77.71-.65.37-1,.43c-.09,0,.12-.22,0-.26a1.13,1.13,0,0,0-.87-.12c-.14.06,0,.36.09.44s.66.06.9.26.2.49,0,.53a2.91,2.91,0,0,1-1.24-.26.86.86,0,0,1-.42-.13,2,2,0,0,1-.6-.76c0-.13.21-.27.14-.39s-.74-.21-.58-.38.83-.26,1.26-.35c.09,0,.17.05.26.07s.15.05.18,0c.57-.86,1.24-1.32.3-1.81a3,3,0,0,0-.62-.16,8.27,8.27,0,0,0-2.08-.62,3.54,3.54,0,0,0-.86,0c-.08,0,0,.22-.13.21a7,7,0,0,1-.85-.36c-.14,0-.31.07-.43,0s-.37-.57-.64-.78c-.11-.08-.28,0-.43-.06a2,2,0,0,0-.62-.14c-1.9.14.31.28-1.32,1.26-.26.16-.61-.09-.91-.16s1.14.05.47.4c-.16.08-.35-.13-.53-.13a1.33,1.33,0,0,0-.45.15c-1.26.6,0,.29-.78,1.61-.09.14-.38-.1-.53,0s.16.13.15.22c-.12,1.43-.11.43-.89.83-.12.06-.06.28-.15.37s-.35,0-.38.12.24.27.23.43a2.51,2.51,0,0,1-.3.95c-1.11,2.24.39-1.34-.78.62,0,.08.21.2.13.24-.74.34,0-.6-.61,0-.19.21-.75.51-.52.69s.61-.36,1-.36c.12,0,.19.29.08.34-.27.17-.65,0-.95.16s-.26.34-.44.45-.3,0-.43.08-.06.14-.12.15-.47-.11-.62,0-.11.73-.38.91-.47-.22-.72-.18-.09.27,0,.31c.3.12.85-.22,1,.08.23.6-1,.43-1.16.61s.06.17.13.18c.89.08.6-.15,1.27-.15.08,0,.31,0,.24.06-.54.17-1.1.23-1.63.37-.1,0,.38-.06.29,0s-.44,0-.37.05a1.4,1.4,0,0,0,.73.41c.17.05.55-.2.56,0,0,.86-2.31.92-1.2,1.9a5.83,5.83,0,0,0,1.62.67s.08.15.13.12a5.93,5.93,0,0,0,.74-.84c.07-.08.08-.2.16-.28s.44-.24.59-.44,0-.53.08-.41,0,.52.1.75.6.61.75,1c.08.22-.16.48-.11.72.69,3.25.12-.41.83,1.22a.52.52,0,0,1,0,.47c-.05.07-.26-.17-.26-.08a2.49,2.49,0,0,0,.3,1.07c.07.13,1,0,1,0,.22-.24.08-.69.3-.93s.88-.39,1.18-.75c.12-.16-.09-.4-.07-.6s.15-.13.14-.22-.24-.3-.24-.48.2.08.23,0a.62.62,0,0,0,0-.5c-.09-.16-.53-.18-.43-.33s.51-.07.75-.18a1.21,1.21,0,0,0,.61-.47c.06-.11-.28,0-.35-.07a1.78,1.78,0,0,1-.25-.64c-.05-.16,0,.38.19.47s.73-.45.74-.46c.13-.19-.75-.8-.82-.91a8.62,8.62,0,0,1-.63-2c.05-.2.35-.23.48-.39s.3-.6.53-.83.46-.13.62-.3c1.06-1.11.12-.37,0-1.08,0-.14.23-.21.23-.35s-.2-.07-.22-.16c-.06-.7,1-.68,1.32-.64s1,.24.88.79c0,.15-.33.08-.41.21s-.14.58-.27.85a1.62,1.62,0,0,1-.34.44c-.07.07-.21.06-.24.15s.13.18.08.26c-.13.23-.55.32-.56.59a6.19,6.19,0,0,0,.47,1.82c0,.17,0,.39.17.5s1.27.49,1.27.5-.32.3-.21.26c.33-.11.59-.36.91-.5.1,0,.22,0,.31,0,.27-.17.46-.47.74-.61.08,0,.07.19.14.18.22,0,.39-.27.62-.26a3.5,3.5,0,0,1,1.59.4c.2.12-.47.05-.7.13s-.32.21-.5.27a7.71,7.71,0,0,0-2.14.73c-.07,0,0,.16-.1.2s-.33,0-.37.11a2,2,0,0,0,.38,1c.17.07.42-.18.54-.05s-.08.39,0,.58.37.46.23.65c-.88,1.17-.87-1.21-1.83-.17-.11.11-.1.29-.13.44a3.26,3.26,0,0,0-.13,1,7.26,7.26,0,0,0,.38,1.34c0,.1.18.24.09.28-.28.13-.65-.07-.91.09s0,.49-.18.59c-.47.27-.59-.39-1-.36a4.68,4.68,0,0,0-1,.35c-.08,0-.19,0-.26.07s-.13.28-.25.35a4.24,4.24,0,0,1-.61.17,3.62,3.62,0,0,0-.8.36s.1.19,0,.16c-.46-.25-.81-.73-1.32-.86-.17,0-.13.37-.29.46a1.11,1.11,0,0,1-1.66-.42c-.08-.1.15-.27.08-.37s-.35.06-.38-.07a1.78,1.78,0,0,1,.1-1c0-.1.26.09.33,0s.07-.48.23-.64.17.17.26.13c.41-.2,0-1.63-.09-1.85s-.29.09-.41.19-.38.27-.38.48.44,0,.37.11-.46.13-.62.28-.86,1-.74,1.45.44,1,.58,1.47c0,.14-.14.32-.06.44s1,.42.68.51-.54-.52-.86-.46.06.58-.15.66-.18-.47-.38-.45-.34.5-.6.56-.6-.29-.91-.24-.45.36-.7.48c-.09,0-.23-.09-.28,0a5,5,0,0,0-.32.87c-.08.17-.28.28-.32.46s.24.36.11.44-.44-.17-.65-.11-.48.37-.76.49-.62,0-.79.19.12.62-.05.84-.6.17-.88.31a2.08,2.08,0,0,0-.51.37c0,.06,0,.21-.1.22a1.48,1.48,0,0,1-.91-.11c-.13-.08.09-.35,0-.46s-.44-.26-.54-.11c-.76,1.24,1.39.13-.23,1.26a.75.75,0,0,1-.65.16c-.19-.07-.15-.43-.34-.51a5.14,5.14,0,0,0-1.33.23,3.12,3.12,0,0,0,1.06,1.49c.13.12.57-.47.64,0,0,.1-.25.17-.18.23s.56,0,.64.2-.37.23-.41.43.14.31.2.47a6.25,6.25,0,0,1,.42,1.24c.15,1.21-.08.84-.43,1.58a8.57,8.57,0,0,1-.33.89c-.19.33-.74-.05-1.12-.08-.1,0-.17.16-.26.13s-.28-.28-.46-.33-.55.09-.82,0c-.73-.15-1.42-.44-2.14-.62,0,0,0,.09,0,.07-.23-.14-.37-.5-.64-.49-2.49.08-.83.67-1,1.62-.12.63-.33,1.23-.46,1.86,0,0,.07.08.06.12a5.25,5.25,0,0,1-.93,1.5c0,.05-.17,0-.2,0a1.5,1.5,0,0,0-.25.78,2.73,2.73,0,0,0,1.51,2.33c.16.09.42-.13.55,0s.12.54.27.77a7,7,0,0,0,.88.92h0c1-.11,2-.29,3-.34.09,0,.14.21.21.16.25-.19.31-.58.58-.74s.69,0,1-.17,0-.48.13-.66.54-.27.71-.51c0,0-.19-1.11-.18-1.15,0-.22.25-.36.39-.53.54-.67.77-1.11,1.61-1.4s.61.37,1.43-.56a1.64,1.64,0,0,0,.32-.87c0-.29-.26-.7,0-.87a3.5,3.5,0,0,1,1.82-.42c.08,0-.06.18,0,.25a.57.57,0,0,0,.29.19c.24.1.49.33.73.26a4.67,4.67,0,0,0,1.17-.82c.18-.12.48-.08.64-.19s.35-.63.66-.66c1-.09,1.41.82,1.6,1.55,0,.13-.09.27,0,.39a2,2,0,0,0,.56.68c.14.1.35,0,.49.12s.11.25.21.34c.32.31.76.48,1,.82.05.06.05.19.13.21s.45-.16.64-.07.16.45.34.57.52,0,.71.14.27.59.51.79.31-.12.39,0a3.46,3.46,0,0,1,.62,1.4c0,.28-.8,1-.52,1.2.48.4.77-.3.9-.61.06-.14-.09-.34,0-.47s.46-.13.58-.31c.53-.85-1.13-.22-.66-1.35.27-.66.54-.76,1.19-.31.13.09.1.31.21.43s.67.29.43-.29c-.41-1-1.73-1-2.54-1.49a9.2,9.2,0,0,1-1.82-1.32c-.31-.33-.23-1.06-.53-1.28s-1.51-.73-1.29-1.46a3.43,3.43,0,0,1,1.14-1.38c.07-.06.07.18.15.23.25.15.58.15.78.36s.22.62.42.89.45.17.52.38-.39,0-.35.12c.75,1.61,2.07.24,2.5,1.57.07.22-.9-.25-.68-.16.52.21,1.08.31,1.6.54,0,0-.1.08-.08.13.32.82.77,1.58,1.08,2.4,0,.06-.24,0-.19,0s.44.25.6.43.11.3.19.43.28.31.4.47a5,5,0,0,0,.41.58,2,2,0,0,0,.83.54,1.48,1.48,0,0,0,.84-.15s-.05-.15,0-.15c.29.05.65.05.85.27s-.17.31-.32.32c-.45,0-1.63-1.09-1.72.33,0,.24.47.23.6.44s-.07.61.14.79.26-.38.41-.31.08.57.31.64.12-.43.3-.44.3.4.52.39-.08-.27-.14-.4a4.86,4.86,0,0,1-.51-.95c-.07-.31.53-.76.75-.73s.32.55.52.44.07-.52-.07-.7a2.73,2.73,0,0,0-1.08-.55c-.17,0-.58.1-.52,0s.71-.23.75-.54c.1-.8-.65-.51-.85-.95-.08-.17-.27-.5-.09-.57.43-.16,1.08.73,1.4.47.14-.11-.33-.38-.2-.5s.64.37.55.19-.59-.33-.75-.61c-.06-.11.25,0,.37-.06a3.07,3.07,0,0,0,.62-.27c.11-.06.15-.25.27-.25a1.22,1.22,0,0,1,.88.21c.22.2,0,.73.29.83s.22-.41.37-.58.37-.24.5-.41,0-.34.12-.39a5.7,5.7,0,0,1,1.18-.19c.05,0,.17-.06.13-.09-.24-.22-.59-.3-.83-.52s-.14-.38-.27-.53-.55-.27-.62-.53.15-.64.21-1c.13-.61.26-1.21.35-1.83,0-.16-.08-.35,0-.49s.4-.31.59-.46c0,0,.2-.59.28-.89a4.83,4.83,0,0,1,.21-.93.88.88,0,0,1,.45-.42c.12-.05.38.24.4.1s-.48-.89-.32-.69a2.82,2.82,0,0,1,.51.95c0,.08-.22.15-.15.2a1.69,1.69,0,0,0,1.36,0s0-.17.09-.15.25.13.21.22-1.08.54-.82.9.7-.06.94.15-.17,1,.3.78c.23-.1.35-.36.55-.51s.35-.09.47-.22.06-.39.21-.49.84.07.68-.09-.67-.07-1-.22c-.15-.07-.7-.68-.64-.81.57-1.28.42-.35,1.28-.95.1-.07,0-.25.1-.34a3.36,3.36,0,0,1,.78-.56c.25-.13.61-.47.8-.26.61.65-1,.86-1,.9-.43.49.66.06.86.55.07.15-.41,0-.46.15s.29.63.16.91-1,.16-.82.4c.32.44,1,.42,1.53.56.15.05.32,0,.46,0,.41.15.73.48,1.15.61,1,.31,1.66.27,2.1,1.42a.54.54,0,0,1-.06.46,3.31,3.31,0,0,1-.8,1.08c-.17.12-.43-.05-.64,0-1,.05-1.91.11-2.87.21-.21,0-.42.19-.63.14s-.22-.39-.4-.38c-.34,0-.6.29-.92.41-.12,0-.27,0-.38.06-.64.29-.83.91-1.43,1.26a6.08,6.08,0,0,1-1.1.5c-.13,0-.31-.08-.41,0-.26.27-.28.73-.56,1a2.58,2.58,0,0,1-1.06.49c-.39.11-1.28-.3-1.2.67.14,1.84.71,0,1.08,1.2,0,.14-.34.2-.28.33s.55,0,.46.17-.93.1-.84.39.76,0,1,.22c.12.09-.3.31-.19.42a3,3,0,0,0,1.17.56c.07,0,.27-.1.22,0-.26.23-.74.28-.84.61s.45.11.66,0,.14-.48.34-.48c3.73.05-1.7.83,1.31.7,1.41-.06,0-1.24,1.09-1.2a3.06,3.06,0,0,1,1,.14c.28.11.42.65.85.47,2.68-1.14-.69,0,1.45-1.43.19-.12.45.24.66.15s.21-.75.47-.67,0,.54,0,.81a3.79,3.79,0,0,0,.17.89c0,.08.17.07.21.15.6,1.38,0,2.16-.16,3.88,0,.35,0,1.28-.35,1.47a7.91,7.91,0,0,1-2.23.39Z" transform="translate(-116.19 -67.03)"/><path class="cls-75" d="M585.86,340.92a53.81,53.81,0,0,1-9.33-16.73,51.38,51.38,0,0,1-1.82-6.81,15.32,15.32,0,0,1-.45-2.61c-.06-2.16-.1-4.33-.14-6.5l-.06.13c.14,1.56-.7,2.16.71,8.57,0,.07,0-.23,0-.18.33,1.09.87,3,1.12,4,.18.71.32,1.42.52,2.12.11.41.48.79.4,1.21,0,.08-.23.05-.22.13,0,.27.81,1.93.93,2.23.06.15,0,.32.12.45s.36.3.51.47a3.31,3.31,0,0,1,.29.67c.24.49.54,1,.75,1.44.13.3.17.63.28.93s.27.16.37.27c.24.31.38.68.59,1a15.71,15.71,0,0,0,1,1.39c.74.95,1.25,2.08,1.95,3.07,1.05,1.5-.49-.83,1,1.21a8.69,8.69,0,0,1,1.11,2.16c0,1.37-.61,0-.71.07s.23.31.33.47-.1-.13-.08-.09c.31.41.61.8.94,1.2Z" transform="translate(-116.19 -67.03)"/></g><rect class="cls-76" x="598.12" y="344.51" width="15.02" height="6.8" transform="translate(-184.81 463.11) rotate(-45)"/><path class="cls-43" d="M654.91,298.62a32,32,0,1,0,0,45.28,32,32,0,0,0,0-45.28Zm-2.5,2.51a28.48,28.48,0,1,1-40.27,0A28.48,28.48,0,0,1,652.41,301.13Z" transform="translate(-116.19 -67.03)"/><path class="cls-29" d="M574.82,378.71c-1.43-1.44-3.38-1.82-4.34-.86s-.58,2.91.86,4.34,3.39,1.83,4.35.87S576.26,380.15,574.82,378.71Z" transform="translate(-116.19 -67.03)"/><path class="cls-43" d="M604.63,354.32l-5.41-5.41a1.71,1.71,0,0,0-2.41,0l-27.24,27.25a1.68,1.68,0,0,0,0,2.4L575,384a1.7,1.7,0,0,0,2.4,0l27.25-27.25A1.7,1.7,0,0,0,604.63,354.32Z" transform="translate(-116.19 -67.03)"/><path class="cls-77" d="M595.89,349.84l-1.11,1.1,7.82,7.81,1.1-1.1-7.81-7.81Zm-24.6,24.59-1.1,1.1,7.82,7.82,1.1-1.11Z" transform="translate(-116.19 -67.03)"/><path class="cls-78" d="M611.74,341.8a29,29,0,1,1,41.07,0,29,29,0,0,1-41.07,0Zm1-1.05a27.56,27.56,0,1,0,0-39A27.56,27.56,0,0,0,612.79,340.75Z" transform="translate(-116.19 -67.03)"/><path class="cls-79" d="M652.19,301.35a28.16,28.16,0,1,1-39.83,0A28.15,28.15,0,0,1,652.19,301.35Z" transform="translate(-116.19 -67.03)"/><g class="cls-80"><polygon class="cls-81" points="549.8 301.58 549.84 260.51 549.84 204.44 513.34 204.4 479.82 204.4 479.77 245.65 479.77 301.55 507.89 301.58 549.8 301.58"/><path class="cls-48" d="M643.27,271.45l-12.95,0,.07.29c.63,2.65,1.18,5.33,1.6,8a46.87,46.87,0,0,1,.66,7.18,10.27,10.27,0,0,1-1.25,4.74l-10.74-5.3-.06,0-13.79-5,3.77-9.86h-1.24l-3.62,9.47L596,277.35v1.16l9.59,3.49,1.39,7.73-11-5.87v1.24l18.63,10,6.86,6.37c-8.31,5.54-19.23,9.89-25.49,12.28v19.79l.76-.46c3.83-2.34,7.73-4.58,11.61-6.84l5.65,3.41-17,16.19.84.75L615,330.22l21.25,12.85.63-.91-27.43-16.58,2.58-1.52a169.64,169.64,0,0,0,18.67-12.26c4.72-3.71,9.67-8.4,12-13.8,3.5-8,2.47-18.26.56-26.55Zm-12.41,21.16h0a30.16,30.16,0,0,1-8.46,8.18l-7-6.54-.12-.08-7-3.74-1.44-8,13.34,4.86Z" transform="translate(-116.19 -67.03)"/><path class="cls-82" d="M641.8,271.45l-10,0c1.06,4.46,2.3,10.67,2.3,15.48,0,12.11-21.5,21.93-38.13,28.25v16.75c17-10.35,39.75-21.47,45.42-34.42C644.83,289.61,643.64,279.3,641.8,271.45Z" transform="translate(-116.19 -67.03)"/><path class="cls-48" d="M596,293.05l11.28,8.28L633,320.2l-5,5.6-9.72-6.68-.69.88,9.66,6.63-20,22.46.9.69,25.77-28.91L666,344.41v-4.14l-56.62-41.5L597,289.68l3.17-10.28,0-.06,1.43-7.91h-1.18l-1.4,7.69L596,289l0,0v4.14Zm0,12.64h0v-1.14A51.58,51.58,0,0,0,609,298.5c10.36-7.18,14.25-16.13,14.68-27.07h1.17c-.44,11.29-4.52,20.56-15.16,27.94A53.6,53.6,0,0,1,596,305.69Z" transform="translate(-116.19 -67.03)"/><path class="cls-48" d="M614.84,306.89,625,314.3c1-.68,1.93-1.36,2.85-2.05l-9.72-7.13C617,305.73,615.94,306.32,614.84,306.89Z" transform="translate(-116.19 -67.03)"/><path class="cls-48" d="M654.86,271.43c0,2.91,0,5.78-.14,8.61a124.38,124.38,0,0,1-2.05,16.69l-5.14-1.7-.39,1,5.31,1.76c-6.57,32.77-24.9,58.24-34.71,69.95l-.72.86h3c8.74-10.53,23.67-31.31,31.72-58.19L666,319.49v-1.31l-14-8.85c1.08-3.72,2-7.56,2.81-11.49q.78-4,1.34-8.15l9.87,2.06v-1.11l-9.73-2c.34-2.78.59-5.61.74-8.47.05-1,.09-2,.12-2.95l8.87-1.9v-1.11l-8.85,1.89c0-1.53,0-3.08,0-4.64Z" transform="translate(-116.19 -67.03)"/><path class="cls-48" d="M596,346.81q3.42,1.26,6.9,2.34l-4,6.26L596,354v1.22l2.32,1.1L596,360v2.13l3.36-5.28,13.57,6.43h0l7.22,3.54.54-1-7.22-3.55h0l-13.51-6.4,4.08-6.4c13.6,4.11,27.75,6.32,42,8,.77,1.79,3.14,7.22,5.17,11.13h2.49c-1.61-3.06-3.87-8.18-5-10.82,4.57.51,9.15,1,13.73,1.45l3.63.37v-2.18l-3.37-.34c-4.73-.49-9.46-1-14.18-1.51l8.14-19.5L666,323.9v-3.71l-11.39,14.75-.14.24-8.4,20.13c-17.21-2-34.17-4.82-50.14-10.83Z" transform="translate(-116.19 -67.03)"/><path class="cls-48" d="M648.71,271.43a79,79,0,0,1-.92,19.3,55.35,55.35,0,0,1-14.37,29l.88.71a56.38,56.38,0,0,0,14.64-29.51,80.08,80.08,0,0,0,.94-19.48Z" transform="translate(-116.19 -67.03)"/><path class="cls-83" d="M651.69,310.43,666,319.49v.7L656.13,333l-10-7.3A149.07,149.07,0,0,0,651.69,310.43Z" transform="translate(-116.19 -67.03)"/><path class="cls-83" d="M623.7,271.43a35.15,35.15,0,0,1-3.51,14.74l-13.38-4.88,3.77-9.86Z" transform="translate(-116.19 -67.03)"/><path class="cls-83" d="M596.72,333.05c3.83-2.34,7.73-4.58,11.61-6.84l5.65,3.41-16.25,15.51-1.77-.65v-11Z" transform="translate(-116.19 -67.03)"/><path class="cls-83" d="M620,368.62c2.83-3.42,6.31-7.9,10-13.32,5.32.85,10.68,1.56,16.06,2.19.77,1.79,3.14,7.22,5.17,11.13H620Z" transform="translate(-116.19 -67.03)"/><path class="cls-83" d="M666,290.64l-9.73-2c.34-2.78.59-5.61.74-8.47.05-1,.09-2,.12-2.95l8.87-1.9Z" transform="translate(-116.19 -67.03)"/><path class="cls-17" d="M621.86,334.38l13.42,8.12c-2.15,3.76-4.32,7.24-6.44,10.41a199.81,199.81,0,0,1-19.73-4.22Z" transform="translate(-116.19 -67.03)"/><path class="cls-17" d="M622.4,300.79l-6.82-6.33a31.06,31.06,0,0,0,5.14-6.86l10.14,5A30.16,30.16,0,0,1,622.4,300.79Z" transform="translate(-116.19 -67.03)"/><path class="cls-17" d="M630.67,311.8c4.72-3.71,9.67-8.4,12-13.8,3.5-8,2.47-18.26.56-26.55h5.44a78.85,78.85,0,0,1-.92,19.28,55.63,55.63,0,0,1-12.55,27L629,313.1C629.54,312.67,630.11,312.24,630.67,311.8Z" transform="translate(-116.19 -67.03)"/></g><path class="cls-84" d="M645.14,304.86a9.64,9.64,0,0,0-.51-1.25A10.76,10.76,0,0,0,624,306.79v1.34c0,.06,0,.56,0,.81.39,3.13,2.86,6.45,4.7,9.58,2,3.35,4,6.64,6.08,9.94l3.73-6.42c.34-.62.73-1.23,1.06-1.82.23-.39.65-.78.85-1.14,2-3.63,5.17-7.29,5.17-10.89v-1.48a11.18,11.18,0,0,0-.51-1.85Zm-10.37,6.73h0a3.85,3.85,0,0,1-3.68-2.62,3.71,3.71,0,0,1-.1-1v-.86a3.64,3.64,0,0,1,3.9-3.58,4,4,0,0,1,4,4A4,4,0,0,1,634.77,311.59Z" transform="translate(-116.19 -67.03)"/><path class="cls-45" d="M622.08,425.83l2.47-.33a1,1,0,0,1,1.16.88l3.72,27.54a1,1,0,0,1-.88,1.15l-2.47.33a1,1,0,0,1-1.15-.87L621.2,427A1,1,0,0,1,622.08,425.83Z" transform="translate(-116.19 -67.03)"/><path class="cls-7" d="M615.23,426.83c4.29-.58,8.64,5.43,9.72,13.43s-1.52,14.95-5.81,15.53-8.65-5.43-9.73-13.43S610.93,427.41,615.23,426.83Z" transform="translate(-116.19 -67.03)"/><path class="cls-9" d="M615.92,455a8.68,8.68,0,0,1-1.91-1.59l-3.11-23a8.29,8.29,0,0,1,1.42-2Z" transform="translate(-116.19 -67.03)"/><path class="cls-45" d="M679.43,434.77l-2.26-1.08a1,1,0,0,0-1.36.49l-11.93,25.1a1,1,0,0,0,.49,1.37l2.25,1.07a1,1,0,0,0,1.37-.49l11.93-25.1A1,1,0,0,0,679.43,434.77Z" transform="translate(-116.19 -67.03)"/><path class="cls-7" d="M685.66,437.8c-3.92-1.86-9.89,2.55-13.36,9.84s-3.1,14.7.82,16.56,9.89-2.55,13.35-9.84S689.57,439.66,685.66,437.8Z" transform="translate(-116.19 -67.03)"/><path class="cls-9" d="M676.42,464.46a9,9,0,0,0,2.3-.94l9.95-20.95a9,9,0,0,0-.72-2.37Z" transform="translate(-116.19 -67.03)"/><path class="cls-6" d="M686.12,436.31l-.69-.32a34.33,34.33,0,0,0,.91-4.14A35.35,35.35,0,0,0,616.48,421a34.76,34.76,0,0,0-.4,4.18l-.85.12a1.58,1.58,0,0,0-1.35,1.77l4,29.38a1.58,1.58,0,0,0,1.77,1.35l6.24-.85a1.57,1.57,0,0,0,1.35-1.77l-1.62-12h0l0-.06-2.34-17.3a1.59,1.59,0,0,0-1.77-1.35l-.74.1c.06-.94.16-1.89.31-2.84a30.73,30.73,0,0,1,60.72,9.46c-.15.95-.34,1.9-.58,2.83l-.76-.36a1.57,1.57,0,0,0-2.09.74l-12.73,26.78a1.59,1.59,0,0,0,.75,2.1l3.93,1.87c-6.95,5.6-17.86,4.59-28,4.22a2.22,2.22,0,1,0-.31,1.38c10.84.64,23,1.13,30-4.84l.16.07a1.57,1.57,0,0,0,2.1-.74l12.72-26.78A1.58,1.58,0,0,0,686.12,436.31Z" transform="translate(-116.19 -67.03)"/><rect class="cls-85" x="631.81" y="439.98" width="3.65" height="6.46" transform="matrix(0.15, -0.99, 0.99, 0.15, -17.98, 934.07)"/><rect class="cls-85" x="639.05" y="441.1" width="3.65" height="6.46" transform="translate(-13.01 942.14) rotate(-81.14)"/><rect class="cls-85" x="646.3" y="442.23" width="3.65" height="6.46" transform="translate(-8.11 950.14) rotate(-81.13)"/><rect class="cls-85" x="653.55" y="443.36" width="3.65" height="6.46" transform="translate(-3.1 958.26) rotate(-81.13)"/><rect class="cls-85" x="660.8" y="444.49" width="3.65" height="6.46" transform="translate(2.24 966.68) rotate(-81.16)"/><rect class="cls-86" x="632.53" y="435.33" width="3.65" height="6.46" transform="translate(-12.79 930.83) rotate(-81.15)"/><rect class="cls-86" x="639.78" y="436.46" width="3.65" height="6.46" transform="translate(-7.63 939.09) rotate(-81.16)"/><rect class="cls-86" x="647.03" y="437.59" width="3.65" height="6.46" transform="translate(-2.75 947.08) rotate(-81.15)"/><rect class="cls-86" x="654.27" y="438.72" width="3.65" height="6.46" transform="translate(2.18 955.11) rotate(-81.14)"/><rect class="cls-86" x="661.52" y="439.85" width="3.65" height="6.46" transform="translate(7.3 963.32) rotate(-81.15)"/><rect class="cls-87" x="633.25" y="430.68" width="3.65" height="6.46" transform="translate(-7.56 927.64) rotate(-81.15)"/><rect class="cls-87" x="640.5" y="431.81" width="3.65" height="6.46" transform="translate(-2.7 935.61) rotate(-81.13)"/><rect class="cls-87" x="647.75" y="432.94" width="3.65" height="6.46" transform="translate(2.41 943.82) rotate(-81.14)"/><rect class="cls-87" x="655" y="434.07" width="3.65" height="6.46" transform="matrix(0.15, -0.99, 0.99, 0.15, 7.47, 951.97)"/><rect class="cls-87" x="662.25" y="435.2" width="3.65" height="6.46" transform="translate(12.32 959.94) rotate(-81.13)"/><rect class="cls-88" x="641.23" y="427.16" width="3.65" height="6.46" transform="translate(2.82 932.69) rotate(-81.17)"/><rect class="cls-88" x="648.47" y="428.29" width="3.65" height="6.46" transform="translate(7.53 940.52) rotate(-81.14)"/><rect class="cls-88" x="655.72" y="429.42" width="3.65" height="6.46" transform="translate(12.57 948.67) rotate(-81.14)"/><rect class="cls-88" x="662.97" y="430.55" width="3.65" height="6.46" transform="translate(17.69 956.87) rotate(-81.15)"/><rect class="cls-89" x="641.95" y="422.52" width="3.65" height="6.46" transform="translate(7.86 929.32) rotate(-81.15)"/><rect class="cls-89" x="649.2" y="423.65" width="3.65" height="6.46" transform="translate(12.94 937.49) rotate(-81.16)"/><rect class="cls-89" x="656.44" y="424.77" width="3.65" height="6.46" transform="translate(17.79 945.46) rotate(-81.14)"/><rect class="cls-90" x="649.92" y="419" width="3.65" height="6.46" transform="translate(18.09 934.22) rotate(-81.15)"/><rect class="cls-90" x="657.17" y="420.13" width="3.65" height="6.46" transform="translate(23.12 942.35) rotate(-81.15)"/><rect class="cls-90" x="650.64" y="414.35" width="3.65" height="6.46" transform="matrix(0.15, -0.99, 0.99, 0.15, 23.18, 930.91)"/><path class="cls-7" d="M602.63,543.41c-9.89,9.81-20,19.63-21.21,20.07-2.24.8-5.56,1.17-10-2-3.93-3.8-4.2-7.14-3.85-9.49.41-2.72,21.48-34,25.94-39.24a18.52,18.52,0,0,1,16.69-4.45Q623,513,635.7,517.77l25.08,9.32a18.53,18.53,0,0,1,9.76,14.24c0,6.86-4.4,44.34-5.87,46.68-1.26,2-3.64,4.37-9.09,4.69-5.44-.54-7.72-3-8.9-5.06-.64-1.12-1.91-15.16-3-29Z" transform="translate(-116.19 -67.03)"/><path class="cls-6" d="M568.35,550.2c4-7.4,21.15-32.76,25.12-37.4a18.52,18.52,0,0,1,16.69-4.45Q623,513,635.7,517.77l25.08,9.32a18.53,18.53,0,0,1,9.76,14.24c0,5.91-3.27,34.53-5.11,43.85-1.3,2-3.71,4.12-8.92,4.43-5.43-.55-7.72-3-8.9-5.06-.64-1.13-1.91-15.16-3-29l-41-15.2c-9.89,9.82-20,19.64-21.21,20.08-2.24.79-5.56,1.17-10-2C569,555.27,568.3,552.42,568.35,550.2Z" transform="translate(-116.19 -67.03)"/><polygon class="cls-91" points="493.68 455.58 499.71 457.81 497.08 464.93 491.05 462.7 488.81 468.73 481.7 466.1 483.93 460.06 477.9 457.83 480.53 450.71 486.56 452.95 488.8 446.92 495.91 449.55 493.68 455.58"/><path class="cls-92" d="M646.29,534.75a5.16,5.16,0,1,1-6.63,3,5.16,5.16,0,0,1,6.63-3Zm14.87,5.51a5.16,5.16,0,1,1-6.63,3,5.16,5.16,0,0,1,6.63-3ZM650.25,532a5.16,5.16,0,1,0,6.63-3,5.17,5.17,0,0,0-6.63,3Zm.33,14a5.16,5.16,0,1,0,3,6.63A5.16,5.16,0,0,0,650.58,546Z" transform="translate(-116.19 -67.03)"/><path class="cls-93" d="M618.07,540.47l6.08,2.25a1,1,0,0,1,.6,1.3l-.59,1.61a1,1,0,0,1-1.31.6L616.77,544a1,1,0,0,1-.6-1.31l.6-1.6a1,1,0,0,1,1.3-.6Zm9.7,3.59,6.08,2.25a1,1,0,0,1,.6,1.31l-.59,1.6a1,1,0,0,1-1.31.6l-6.08-2.25a1,1,0,0,1-.6-1.3l.6-1.61A1,1,0,0,1,627.77,544.06Z" transform="translate(-116.19 -67.03)"/></g><g id="Calque_3" data-name="Calque 3"><text class="cls-94" transform="translate(87.78 86.62)">My<tspan class="cls-95" x="117.19" y="0">Guitel</tspan></text></g></svg>