<?xml version="1.0" encoding="utf-8"?>
<!-- Generator: Adobe Illustrator 22.1.0, SVG Export Plug-In . SVG Version: 6.00 Build 0)  -->
<svg version="1.1" xmlns="http://www.w3.org/2000/svg" xmlns:xlink="http://www.w3.org/1999/xlink" x="0px" y="0px"
	 viewBox="0 0 500 500" style="enable-background:new 0 0 500 500;" xml:space="preserve">
<style type="text/css">
	.st0{fill:#5E605A;}
	.st1{display:none;}
	.st2{display:inline;}
	.st3{fill:#FFFFFF;}
	.st4{fill:#09376E;}
	.st5{fill:#448CC7;}
	.st6{display:inline;fill:#FFFFFF;}
	.st7{display:inline;fill:#448CC7;}
	.st8{display:inline;fill:#09376E;}
	.st9{display:inline;fill:none;stroke:#C3E1F7;stroke-width:2;stroke-miterlimit:10;}
	.st10{opacity:0.2;}
	.st11{fill:none;stroke:#09376E;stroke-miterlimit:10;}
	.st12{display:inline;opacity:0.2;fill:none;stroke:#09376E;stroke-miterlimit:10;}
	.st13{fill:none;stroke:#448CC7;stroke-width:2;stroke-linecap:round;stroke-linejoin:round;stroke-miterlimit:10;}
	.st14{opacity:0.28;}
	.st15{clip-path:url(#SVGID_2_);}
	.st16{fill:none;stroke:#448CC7;stroke-miterlimit:10;}
	.st17{display:inline;opacity:0.4;fill:#448CC7;}
	.st18{opacity:0.4;fill:#448CC7;}
	.st19{fill:#0B4182;}
	.st20{fill:#F2F2F2;}
	.st21{display:inline;fill:none;stroke:#09376E;stroke-width:2.4;stroke-miterlimit:10;}
	.st22{fill:none;stroke:#09376E;stroke-width:3;stroke-miterlimit:10;}
	.st23{display:inline;fill:none;stroke:#448CC7;stroke-miterlimit:10;}
	.st24{display:none;fill:#FFFFFF;}
	.st25{font-family:'BebasNeueRegular';}
	.st26{font-size:26px;}
	.st27{letter-spacing:1.1;}
	
		.st28{display:inline;fill:none;stroke:#FFFFFF;stroke-width:1.5;stroke-linecap:round;stroke-linejoin:round;stroke-miterlimit:10;}
	.st29{fill:#BBF61C;}
	.st30{font-family:'BasicSansSerif7';}
	.st31{font-size:100px;}
	.st32{fill:#00A9D2;}
	.st33{letter-spacing:-44;}
	.st34{letter-spacing:-25;}
	.st35{letter-spacing:-12;}
	.st36{font-size:36px;}
	.st37{letter-spacing:18;}
</style>
<g id="BACKGROUND">
	<rect class="st0" width="500" height="500"/>
</g>
<g id="OBJECTS">
	<g class="st1">
		<g class="st2">
			<path class="st3" d="M142.6,180.6c0,2.6-12.4,4.7-27.7,4.7c-15.3,0-27.7-2.1-27.7-4.7c0-2.6,12.4-4.7,27.7-4.7
				C130.2,175.8,142.6,177.9,142.6,180.6z"/>
			<rect x="105.2" y="147.5" class="st4" width="19.6" height="32.9"/>
			<g>
				<path class="st5" d="M126.4,180.2c0,0.5-0.4,0.9-0.9,0.9h-21.1c-0.5,0-0.9-0.4-0.9-0.9l0,0c0-0.5,0.4-0.9,0.9-0.9h21.1
					C126,179.3,126.4,179.7,126.4,180.2L126.4,180.2z"/>
				<path class="st5" d="M126.4,174.1c0,0.5-0.4,0.9-0.9,0.9h-21.1c-0.5,0-0.9-0.4-0.9-0.9l0,0c0-0.5,0.4-0.9,0.9-0.9h21.1
					C126,173.2,126.4,173.6,126.4,174.1L126.4,174.1z"/>
				<path class="st5" d="M126.4,168c0,0.5-0.4,0.9-0.9,0.9h-21.1c-0.5,0-0.9-0.4-0.9-0.9l0,0c0-0.5,0.4-0.9,0.9-0.9h21.1
					C126,167,126.4,167.5,126.4,168L126.4,168z"/>
				<path class="st5" d="M126.4,161.8c0,0.5-0.4,0.9-0.9,0.9h-21.1c-0.5,0-0.9-0.4-0.9-0.9l0,0c0-0.5,0.4-0.9,0.9-0.9h21.1
					C126,160.9,126.4,161.3,126.4,161.8L126.4,161.8z"/>
				<path class="st5" d="M126.4,155.7c0,0.5-0.4,0.9-0.9,0.9h-21.1c-0.5,0-0.9-0.4-0.9-0.9l0,0c0-0.5,0.4-0.9,0.9-0.9h21.1
					C126,154.8,126.4,155.2,126.4,155.7L126.4,155.7z"/>
			</g>
		</g>
		<path class="st6" d="M159.2,145.7l-7.9-18.4v-3.6c0-0.3,0-0.6-0.1-0.9C150.1,107,137,94.6,121,94.6v23.9h-1.2
			c-2.9,0-5.2,2.3-5.2,5.2v1.3H90.6c0,14.5,10.3,26.7,23.9,29.6v7.8c0,2.9,2.3,5.2,5.2,5.2h26.3c2.9,0,5.2-2.3,5.2-5.2v-15h6.8
			C159.1,147.3,159.6,146.6,159.2,145.7z"/>
		<path class="st7" d="M121,150v-25.1h25.1c0-13.9-11.2-25.1-25.1-25.1c-13.9,0-25.1,11.2-25.1,25.1C95.9,138.8,107.1,150,121,150z"
			/>
		<path class="st6" d="M117.2,91C117.2,91,117.2,91,117.2,91c-16.7,0-30.3,13.6-30.3,30.3c0,0,0,0,0,0h30.3V91z"/>
		
			<ellipse transform="matrix(0.2281 -0.9736 0.9736 0.2281 -28.2257 214.1844)" class="st8" cx="121" cy="124.9" rx="16.6" ry="16.6"/>
		<path class="st9" d="M121,127.2c0,0,0,27.9,0,29.8c0,1.9-0.3,3.6,2.6,3.6c5.2,0,19.8,0,19.8,0"/>
		<ellipse transform="matrix(0.1606 -0.987 0.987 0.1606 -21.7308 224.2349)" class="st6" cx="121" cy="124.9" rx="8.8" ry="8.8"/>
		<path class="st7" d="M124.7,124.9c0,2-1.7,3.7-3.7,3.7c-2,0-3.7-1.7-3.7-3.7c0-2,1.7-3.7,3.7-3.7
			C123,121.2,124.7,122.8,124.7,124.9z"/>
		<path class="st7" d="M153.3,127.4H145c-2.5,0-4.4,2.2-4.4,4.9c0,2.7,2,4.9,4.4,4.9h12.1L153.3,127.4z"/>
		<path class="st7" d="M142.4,153.6c-0.9,0-1.6,0.7-1.6,1.6v13.8h5.2c3.5,0,6.3-2.8,6.3-6.3v-9.1H142.4z"/>
	</g>
	<g class="st1">
		<g class="st2">
			<g>
				<path class="st3" d="M278.5,161.4c0,3.5-2.8,6.4-6.2,6.4H221c-3.4,0-6.2-2.9-6.2-6.4v-50.6c0-3.5,2.8-6.4,6.2-6.4h51.3
					c3.4,0,6.2,2.9,6.2,6.4V161.4z"/>
				<g>
					<g>
						<g>
							<g>
								<rect x="238" y="95.8" class="st5" width="1.4" height="24.1"/>
								<path class="st4" d="M241.2,95.8c0,1.4-1.1,2.5-2.5,2.5c-1.4,0-2.5-1.1-2.5-2.5c0-1.4,1.1-2.5,2.5-2.5
									C240.1,93.3,241.2,94.4,241.2,95.8z"/>
							</g>
							<g>
								<rect x="253.9" y="95.8" class="st5" width="1.4" height="24.1"/>
								<circle class="st4" cx="254.6" cy="95.8" r="2.5"/>
							</g>
						</g>
						<g>
							<rect x="246" y="89.5" class="st5" width="1.4" height="30.5"/>
							<path class="st4" d="M249.2,89.5c0,1.4-1.1,2.5-2.5,2.5c-1.4,0-2.5-1.1-2.5-2.5c0-1.4,1.1-2.5,2.5-2.5
								C248,87,249.2,88.1,249.2,89.5z"/>
						</g>
					</g>
					<g>
						<g>
							<g>
								<rect x="253.9" y="152.3" class="st5" width="1.4" height="24.1"/>
								<path class="st4" d="M252.1,176.4c0-1.4,1.1-2.5,2.5-2.5c1.4,0,2.5,1.1,2.5,2.5s-1.1,2.5-2.5,2.5
									C253.2,178.9,252.1,177.8,252.1,176.4z"/>
							</g>
							<g>
								<rect x="238" y="152.3" class="st5" width="1.4" height="24.1"/>
								<path class="st4" d="M236.1,176.4c0-1.4,1.1-2.5,2.5-2.5c1.4,0,2.5,1.1,2.5,2.5s-1.1,2.5-2.5,2.5
									C237.3,178.9,236.1,177.8,236.1,176.4z"/>
							</g>
						</g>
						<g>
							<rect x="246" y="152.3" class="st5" width="1.4" height="30.5"/>
							<path class="st4" d="M244.1,182.8c0-1.4,1.1-2.5,2.5-2.5c1.4,0,2.5,1.1,2.5,2.5s-1.1,2.5-2.5,2.5
								C245.2,185.3,244.1,184.2,244.1,182.8z"/>
						</g>
					</g>
				</g>
				<g>
					<g>
						<g>
							<g>
								<rect x="206.4" y="143.4" class="st5" width="24.1" height="1.4"/>
								<circle class="st4" cx="206.4" cy="144.1" r="2.5"/>
							</g>
							<g>
								<rect x="206.4" y="127.5" class="st5" width="24.1" height="1.4"/>
								<circle class="st4" cx="206.4" cy="128.2" r="2.5"/>
							</g>
						</g>
						<g>
							<rect x="200" y="135.4" class="st5" width="30.5" height="1.4"/>
							<circle class="st4" cx="200" cy="136.1" r="2.5"/>
						</g>
					</g>
					<g>
						<g>
							<g>
								<rect x="262.8" y="127.5" class="st5" width="24.1" height="1.4"/>
								<path class="st4" d="M286.9,130.7c-1.4,0-2.5-1.1-2.5-2.5c0-1.4,1.1-2.5,2.5-2.5c1.4,0,2.5,1.1,2.5,2.5
									C289.5,129.6,288.3,130.7,286.9,130.7z"/>
							</g>
							<g>
								<rect x="262.8" y="143.4" class="st5" width="24.1" height="1.4"/>
								<path class="st4" d="M286.9,146.6c-1.4,0-2.5-1.1-2.5-2.5s1.1-2.5,2.5-2.5c1.4,0,2.5,1.1,2.5,2.5S288.3,146.6,286.9,146.6z"
									/>
							</g>
						</g>
						<g>
							<rect x="262.8" y="135.4" class="st5" width="30.5" height="1.4"/>
							<path class="st4" d="M293.3,138.7c-1.4,0-2.5-1.1-2.5-2.5c0-1.4,1.1-2.5,2.5-2.5c1.4,0,2.5,1.1,2.5,2.5
								C295.8,137.5,294.7,138.7,293.3,138.7z"/>
						</g>
					</g>
				</g>
				<g>
					<g>
						<path class="st4" d="M269.9,154.5c0,2.2-1.8,4-4,4h-38.6c-2.2,0-4-1.8-4-4v-36.8c0-2.2,1.8-4,4-4h38.6c2.2,0,4,1.8,4,4V154.5z
							"/>
					</g>
					<g>
						<path class="st5" d="M266,150c0,2.2-1.8,4-4,4h-30.8c-2.2,0-4-1.8-4-4v-27.8c0-2.2,1.8-4,4-4H262c2.2,0,4,1.8,4,4V150z"/>
					</g>
				</g>
			</g>
			<g class="st10">
				<rect x="240.2" y="129.7" class="st11" width="12.9" height="12.9"/>
				<g>
					<g>
						<polyline class="st11" points="248.4,129.4 248.4,124.7 252.3,122.3 252.3,117.5 						"/>
						<polyline class="st11" points="244.8,129.4 244.8,124.3 241,121.9 241,117.1 						"/>
					</g>
					<g>
						<polyline class="st11" points="244.8,142.8 244.8,147.5 241,149.9 241,154.7 						"/>
						<polyline class="st11" points="248.4,142.8 248.4,147.9 252.3,150.3 252.3,155.1 						"/>
					</g>
				</g>
				<g>
					<g>
						<polyline class="st11" points="239.9,134.3 235.3,134.3 232.9,130.5 226.2,130.5 						"/>
						<polyline class="st11" points="239.9,137.9 234.8,137.9 232.4,141.8 225.7,141.8 						"/>
					</g>
					<g>
						<polyline class="st11" points="253.3,137.9 258,137.9 260.4,141.8 267.1,141.8 						"/>
						<polyline class="st11" points="253.3,134.3 258.4,134.3 260.8,130.5 267.5,130.5 						"/>
					</g>
				</g>
			</g>
		</g>
		<path class="st12" d="M249.5,138c0,0.5-0.4,0.9-0.9,0.9h-3.9c-0.5,0-0.9-0.4-0.9-0.9v-3.9c0-0.5,0.4-0.9,0.9-0.9h3.9
			c0.5,0,0.9,0.4,0.9,0.9V138z"/>
	</g>
	<g class="st1">
		
			<rect x="377.9" y="129.8" transform="matrix(0.3197 -0.9475 0.9475 0.3197 138.663 459.1655)" class="st7" width="22.5" height="6.4"/>
		<polygon class="st7" points="340.7,127.7 336.2,123.2 359.1,96.7 363.6,101.2 		"/>
		<polygon class="st7" points="336.9,124.7 341.6,125 341.2,150.9 336.4,150.6 		"/>
		<g class="st2">
			<rect x="371.1" y="177" class="st5" width="25.5" height="4.9"/>
			<path class="st4" d="M399.9,184.9c0,0.2-0.2,0.4-0.4,0.4h-31c-0.2,0-0.4-0.2-0.4-0.4v-4.4c0-0.2,0.2-0.4,0.4-0.4h31
				c0.2,0,0.4,0.2,0.4,0.4V184.9z"/>
			<path class="st3" d="M398.8,177v-28.7c0-8.2-6.7-14.9-14.9-14.9c-8.2,0-14.9,6.7-14.9,14.9V177H398.8z"/>
		</g>
		
			<ellipse transform="matrix(0.7071 -0.7071 0.7071 0.7071 8.9729 314.3271)" class="st8" cx="383.9" cy="146.3" rx="7.5" ry="7.5"/>
		<path class="st7" d="M387.3,146.3c0,1.9-1.5,3.4-3.4,3.4c-1.9,0-3.4-1.5-3.4-3.4c0-1.9,1.5-3.4,3.4-3.4
			C385.8,142.9,387.3,144.4,387.3,146.3z"/>
		<g class="st2">
			<path class="st3" d="M355.4,94.4c-2.7,3.6-1.9,8.7,1.8,11.4l30.2,22.1c3.6,2.7,8.7,1.9,11.4-1.8c2.7-3.6,1.9-8.7-1.8-11.4
				l-30.2-22.1C363.1,89.9,358,90.7,355.4,94.4z"/>
			<g>
				<g>
					<path class="st4" d="M363.5,95.2c1.8,1.3,2.2,3.9,0.9,5.7c-1.3,1.8-3.9,2.2-5.7,0.9c-1.8-1.3-2.2-3.9-0.9-5.7
						C359.1,94.3,361.7,93.9,363.5,95.2z"/>
					<path class="st5" d="M362.2,97c0.8,0.6,1,1.8,0.4,2.6c-0.6,0.8-1.8,1-2.6,0.4c-0.8-0.6-1-1.8-0.4-2.6
						C360.2,96.6,361.3,96.4,362.2,97z"/>
				</g>
				<g>
					<path class="st4" d="M395.5,118.6c1.8,1.3,2.2,3.9,0.9,5.7c-1.3,1.8-3.9,2.2-5.7,0.9c-1.8-1.3-2.2-3.9-0.9-5.7
						C391.1,117.6,393.6,117.2,395.5,118.6z"/>
					<path class="st5" d="M394.2,120.4c0.8,0.6,1,1.8,0.4,2.6c-0.6,0.8-1.8,1-2.6,0.4c-0.8-0.6-1-1.8-0.4-2.6
						C392.1,119.9,393.3,119.8,394.2,120.4z"/>
				</g>
			</g>
		</g>
		<g class="st2">
			<g>
				<polygon class="st4" points="347.7,171.9 350.2,171.7 351.2,155.9 339.3,150.6 339.9,157.9 347.9,158.1 				"/>
				<polygon class="st4" points="331.4,173.2 333.9,173 331.6,159.4 339.4,157.9 338.8,150.6 328,157.7 				"/>
			</g>
			<path class="st3" d="M333.5,153.7c-0.2-3.1,2-5.8,5.1-6c3.1-0.2,5.8,2,6,5.1c0.2,3.1-2,5.8-5.1,6
				C336.4,159.1,333.7,156.8,333.5,153.7z"/>
			<path class="st5" d="M336.3,153.5c-0.1-1.5,1-2.9,2.6-3c1.5-0.1,2.9,1,3,2.6c0.1,1.5-1,2.9-2.6,3
				C337.7,156.2,336.4,155,336.3,153.5z"/>
			<path class="st3" d="M333.5,125.8c-0.2-3.1,2-5.8,5.1-6c3.1-0.2,5.8,2,6,5.1c0.2,3.1-2,5.8-5.1,6
				C336.4,131.2,333.7,128.9,333.5,125.8z"/>
			<path class="st5" d="M336.3,125.6c-0.1-1.5,1-2.9,2.6-3c1.5-0.1,2.9,1,3,2.6c0.1,1.5-1,2.9-2.6,3
				C337.7,128.3,336.4,127.1,336.3,125.6z"/>
		</g>
	</g>
	<g>
		<g>
			<g>
				<g>
					<polyline class="st13" points="300.2,204.9 300.2,164.9 312.6,157.2 312.6,143.8 					"/>
					<polyline class="st13" points="288.7,204.9 288.7,163.6 276.3,155.9 276.3,143.8 					"/>
				</g>
				<g>
					<g>
						<polyline class="st13" points="311.4,206.4 311.4,175.2 328.9,164.2 328.9,143.8 						"/>
					</g>
					<g>
						<polyline class="st13" points="277.6,206.4 277.6,175.2 260,164.2 260,143.8 						"/>
					</g>
				</g>
				<g>
					<g>
						<g>
							<polyline class="st13" points="324.8,219.9 324.8,184 347,168.5 347,143.8 							"/>
						</g>
					</g>
					<g>
						<g>
							<polyline class="st13" points="264.2,219.9 264.2,184 241.9,168.5 241.9,143.8 							"/>
						</g>
					</g>
				</g>
				<g>
					<path class="st4" d="M241.9,137c3.3,0,5.9,2.7,5.9,5.9c0,3.3-2.7,5.9-5.9,5.9c-3.3,0-5.9-2.7-5.9-5.9
						C236,139.7,238.7,137,241.9,137z"/>
					<path class="st4" d="M347,137c3.3,0,5.9,2.7,5.9,5.9c0,3.3-2.7,5.9-5.9,5.9c-3.3,0-5.9-2.7-5.9-5.9
						C341.1,139.7,343.7,137,347,137z"/>
				</g>
				<g>
					<path class="st4" d="M328.6,137c3.3,0,5.9,2.7,5.9,5.9c0,3.3-2.7,5.9-5.9,5.9c-3.3,0-5.9-2.7-5.9-5.9
						C322.7,139.7,325.4,137,328.6,137z"/>
					<path class="st4" d="M312.3,137c3.3,0,5.9,2.7,5.9,5.9c0,3.3-2.7,5.9-5.9,5.9c-3.3,0-5.9-2.7-5.9-5.9
						C306.4,139.7,309,137,312.3,137z"/>
					<path class="st4" d="M276.7,137c3.3,0,5.9,2.7,5.9,5.9c0,3.3-2.7,5.9-5.9,5.9c-3.3,0-5.9-2.7-5.9-5.9
						C270.7,139.7,273.4,137,276.7,137z"/>
					<path class="st4" d="M260.3,137c3.3,0,5.9,2.7,5.9,5.9c0,3.3-2.7,5.9-5.9,5.9c-3.3,0-5.9-2.7-5.9-5.9
						C254.4,139.7,257,137,260.3,137z"/>
				</g>
			</g>
			<g>
				<g>
					<polyline class="st13" points="288.7,276.4 288.7,315.5 276.3,323.2 276.3,336.6 					"/>
					<polyline class="st13" points="300.2,276.4 300.2,316.8 312.6,324.5 312.6,336.6 					"/>
				</g>
				<g>
					<g>
						<polyline class="st13" points="277.6,272.9 277.6,305.2 260,316.2 260,336.6 						"/>
					</g>
					<g>
						<polyline class="st13" points="311.4,272.9 311.4,305.2 328.9,316.2 328.9,336.6 						"/>
					</g>
				</g>
				<g>
					<g>
						<g>
							<polyline class="st13" points="264.2,260.5 264.2,296.4 241.9,311.9 241.9,336.6 							"/>
						</g>
					</g>
					<g>
						<g>
							<polyline class="st13" points="324.8,260.5 324.8,296.4 347,311.9 347,336.6 							"/>
						</g>
					</g>
				</g>
				<g>
					<path class="st4" d="M347,343.4c-3.3,0-5.9-2.7-5.9-5.9c0-3.3,2.7-5.9,5.9-5.9c3.3,0,5.9,2.7,5.9,5.9
						C352.9,340.7,350.3,343.4,347,343.4z"/>
					<path class="st4" d="M241.9,343.4c-3.3,0-5.9-2.7-5.9-5.9c0-3.3,2.7-5.9,5.9-5.9c3.3,0,5.9,2.7,5.9,5.9
						C247.9,340.7,245.2,343.4,241.9,343.4z"/>
				</g>
				<g>
					<path class="st4" d="M260.3,343.4c-3.3,0-5.9-2.7-5.9-5.9c0-3.3,2.7-5.9,5.9-5.9c3.3,0,5.9,2.7,5.9,5.9
						C266.2,340.7,263.6,343.4,260.3,343.4z"/>
					<path class="st4" d="M276.7,343.4c-3.3,0-5.9-2.7-5.9-5.9c0-3.3,2.7-5.9,5.9-5.9c3.3,0,5.9,2.7,5.9,5.9
						C282.6,340.7,279.9,343.4,276.7,343.4z"/>
					<path class="st4" d="M312.3,343.4c-3.3,0-5.9-2.7-5.9-5.9c0-3.3,2.7-5.9,5.9-5.9c3.3,0,5.9,2.7,5.9,5.9
						C318.2,340.7,315.6,343.4,312.3,343.4z"/>
					<path class="st4" d="M328.6,343.4c-3.3,0-5.9-2.7-5.9-5.9c0-3.3,2.7-5.9,5.9-5.9c3.3,0,5.9,2.7,5.9,5.9
						C334.6,340.7,331.9,343.4,328.6,343.4z"/>
				</g>
			</g>
		</g>
		<g>
			<path class="st3" d="M378.4,240.2c0,0-37.6,49.7-83.9,49.7s-83.9-49.7-83.9-49.7s37.6-49.7,83.9-49.7S378.4,240.2,378.4,240.2z"
				/>
			
				<ellipse transform="matrix(0.2316 -0.9728 0.9728 0.2316 -7.3968 471.0304)" class="st5" cx="294.5" cy="240.2" rx="39.3" ry="39.3"/>
			
				<ellipse transform="matrix(0.7071 -0.7071 0.7071 0.7071 -83.5972 278.5736)" class="st4" cx="294.5" cy="240.2" rx="33.5" ry="33.5"/>
			<path class="st5" d="M307.7,240.2c0,7.3-5.9,13.3-13.3,13.3c-7.3,0-13.3-5.9-13.3-13.3c0-7.3,5.9-13.3,13.3-13.3
				C301.8,226.9,307.7,232.9,307.7,240.2z"/>
			<g class="st14">
				<defs>
					
						<ellipse id="SVGID_1_" transform="matrix(0.7071 -0.7071 0.7071 0.7071 -83.5972 278.5736)" class="st14" cx="294.5" cy="240.2" rx="33.5" ry="33.5"/>
				</defs>
				<clipPath id="SVGID_2_">
					<use xlink:href="#SVGID_1_"  style="overflow:visible;"/>
				</clipPath>
				<g class="st15">
					<g>
						<g>
							<polyline class="st16" points="283.2,202.2 283.2,216 288.5,218.9 288.5,230.4 							"/>
							<polyline class="st16" points="305.8,202.2 305.8,216 300.4,218.9 300.4,230.4 							"/>
						</g>
						<g>
							<polyline class="st16" points="305.8,278.1 305.8,264.3 300.4,261.5 300.4,250 							"/>
							<polyline class="st16" points="283.2,278.1 283.2,264.3 288.5,261.5 288.5,250 							"/>
						</g>
					</g>
					<g>
						<g>
							<polyline class="st16" points="256.5,251.5 270.3,251.5 273.1,246.1 284.6,246.1 							"/>
							<polyline class="st16" points="256.5,228.9 270.3,228.9 273.1,234.3 284.6,234.3 							"/>
						</g>
						<g>
							<polyline class="st16" points="332.4,228.9 318.6,228.9 315.8,234.3 304.3,234.3 							"/>
							<polyline class="st16" points="332.4,251.5 318.6,251.5 315.8,246.1 304.3,246.1 							"/>
						</g>
					</g>
				</g>
			</g>
			<path class="st3" d="M291.1,228.2c0,3.4-2.7,6.1-6.1,6.1c-3.4,0-6.1-2.7-6.1-6.1c0-3.4,2.7-6.1,6.1-6.1
				C288.4,222.1,291.1,224.9,291.1,228.2z"/>
		</g>
	</g>
	<g class="st1">
		<rect x="239.4" y="273.4" class="st8" width="15.7" height="28.1"/>
		<path class="st7" d="M258,282.2c0,1.2-1.4,2.2-3.2,2.2h-15.3c-1.7,0-3.2-1-3.2-2.2l0,0c0-1.2,1.4-2.2,3.2-2.2h15.3
			C256.6,280,258,281,258,282.2L258,282.2z"/>
		<path class="st7" d="M224.9,252.9c0.1,1.4-0.9,2.6-2.3,2.7l0,0c-1.4,0.1-2.6-0.9-2.7-2.3l-0.6-5.7c-0.1-1.4,0.9-2.6,2.3-2.7l0,0
			c1.4-0.1,2.6,0.9,2.7,2.3L224.9,252.9z"/>
		<path class="st8" d="M240.5,262.3c2.1,1.7,2.4,4.8,0.7,6.9l0,0c-1.7,2.1-4.8,2.4-6.9,0.7l-13.6-11c-2.1-1.7-2.4-4.8-0.7-6.9l0,0
			c1.7-2.1,4.8-2.4,6.9-0.7L240.5,262.3z"/>
		<path class="st17" d="M225.2,255.1c0,1.1-0.9,1.9-1.9,1.9c-1.1,0-1.9-0.9-1.9-1.9c0-1.1,0.9-1.9,1.9-1.9
			C224.3,253.1,225.2,254,225.2,255.1z"/>
		<path class="st8" d="M225.8,245.8c-0.5,2.1-2.5,3.4-4.6,2.9l0,0c-2.1-0.5-3.4-2.5-2.9-4.6l1.4-6c0.5-2.1,2.5-3.4,4.6-2.9l0,0
			c2.1,0.5,3.4,2.5,2.9,4.6L225.8,245.8z"/>
		<g class="st2">
			<path class="st5" d="M237,232.7c0,1.1-0.9,2.1-2.1,2.1l0,0c-1.1,0-2.1-0.9-2.1-2.1v-6.9c0-1.1,0.9-2.1,2.1-2.1l0,0
				c1.1,0,2.1,0.9,2.1,2.1V232.7z"/>
			<path class="st5" d="M245.2,232.7c0,1.1-0.9,2.1-2.1,2.1l0,0c-1.1,0-2.1-0.9-2.1-2.1v-6.9c0-1.1,0.9-2.1,2.1-2.1l0,0
				c1.1,0,2.1,0.9,2.1,2.1V232.7z"/>
			<path class="st5" d="M253.4,232.7c0,1.1-0.9,2.1-2.1,2.1l0,0c-1.1,0-2.1-0.9-2.1-2.1v-6.9c0-1.1,0.9-2.1,2.1-2.1l0,0
				c1.1,0,2.1,0.9,2.1,2.1V232.7z"/>
			<path class="st5" d="M261.6,232.7c0,1.1-0.9,2.1-2.1,2.1l0,0c-1.1,0-2.1-0.9-2.1-2.1v-6.9c0-1.1,0.9-2.1,2.1-2.1l0,0
				c1.1,0,2.1,0.9,2.1,2.1V232.7z"/>
			<g>
				<path class="st4" d="M237.8,243.2c0,1.6-1.3,2.9-2.9,2.9l0,0c-1.6,0-2.9-1.3-2.9-2.9v-11.5c0-1.6,1.3-2.9,2.9-2.9l0,0
					c1.6,0,2.9,1.3,2.9,2.9V243.2z"/>
				<path class="st4" d="M246,243.2c0,1.6-1.3,2.9-2.9,2.9l0,0c-1.6,0-2.9-1.3-2.9-2.9v-11.5c0-1.6,1.3-2.9,2.9-2.9l0,0
					c1.6,0,2.9,1.3,2.9,2.9V243.2z"/>
				<path class="st4" d="M254.2,243.2c0,1.6-1.3,2.9-2.9,2.9l0,0c-1.6,0-2.9-1.3-2.9-2.9v-11.5c0-1.6,1.3-2.9,2.9-2.9l0,0
					c1.6,0,2.9,1.3,2.9,2.9V243.2z"/>
				<path class="st4" d="M262.4,243.2c0,1.6-1.3,2.9-2.9,2.9l0,0c-1.6,0-2.9-1.3-2.9-2.9v-11.5c0-1.6,1.3-2.9,2.9-2.9l0,0
					c1.6,0,2.9,1.3,2.9,2.9V243.2z"/>
			</g>
			<path class="st18" d="M236.3,231.7c0,0.8-0.6,1.4-1.4,1.4s-1.4-0.6-1.4-1.4c0-0.8,0.6-1.4,1.4-1.4S236.3,231,236.3,231.7z"/>
			<path class="st18" d="M244.5,231.7c0,0.8-0.6,1.4-1.4,1.4c-0.8,0-1.4-0.6-1.4-1.4c0-0.8,0.6-1.4,1.4-1.4
				C243.9,230.4,244.5,231,244.5,231.7z"/>
			<path class="st18" d="M252.7,231.7c0,0.8-0.6,1.4-1.4,1.4c-0.8,0-1.4-0.6-1.4-1.4c0-0.8,0.6-1.4,1.4-1.4
				C252.1,230.4,252.7,231,252.7,231.7z"/>
			<path class="st18" d="M260.9,231.7c0,0.8-0.6,1.4-1.4,1.4c-0.8,0-1.4-0.6-1.4-1.4c0-0.8,0.6-1.4,1.4-1.4
				C260.3,230.4,260.9,231,260.9,231.7z"/>
			<path class="st4" d="M237.6,224.1c0,1.4-1.2,2.6-2.6,2.6l0,0c-1.4,0-2.6-1.2-2.6-2.6V213c0-1.4,1.2-2.6,2.6-2.6l0,0
				c1.4,0,2.6,1.2,2.6,2.6V224.1z"/>
			<path class="st4" d="M253.9,224.1c0,1.4-1.2,2.6-2.6,2.6l0,0c-1.4,0-2.6-1.2-2.6-2.6V215c0-1.4,1.2-2.6,2.6-2.6l0,0
				c1.4,0,2.6,1.2,2.6,2.6V224.1z"/>
			<path class="st4" d="M262.1,224.1c0,1.4-1.2,2.6-2.6,2.6l0,0c-1.4,0-2.6-1.2-2.6-2.6v-6.2c0-1.4,1.2-2.6,2.6-2.6l0,0
				c1.4,0,2.6,1.2,2.6,2.6V224.1z"/>
			<path class="st4" d="M245.7,224.1c0,1.4-1.2,2.6-2.6,2.6l0,0c-1.4,0-2.6-1.2-2.6-2.6v-12c0-1.4,1.2-2.6,2.6-2.6l0,0
				c1.4,0,2.6,1.2,2.6,2.6V224.1z"/>
			<path class="st18" d="M235.8,224.2c0,0.5-0.4,0.9-0.9,0.9c-0.5,0-0.9-0.4-0.9-0.9s0.4-0.9,0.9-0.9
				C235.4,223.3,235.8,223.7,235.8,224.2z"/>
			<path class="st18" d="M244,224.2c0,0.5-0.4,0.9-0.9,0.9s-0.9-0.4-0.9-0.9s0.4-0.9,0.9-0.9S244,223.7,244,224.2z"/>
			<path class="st18" d="M252.2,224.2c0,0.5-0.4,0.9-0.9,0.9c-0.5,0-0.9-0.4-0.9-0.9s0.4-0.9,0.9-0.9
				C251.8,223.3,252.2,223.7,252.2,224.2z"/>
			<path class="st18" d="M260.4,224.2c0,0.5-0.4,0.9-0.9,0.9s-0.9-0.4-0.9-0.9s0.4-0.9,0.9-0.9S260.4,223.7,260.4,224.2z"/>
		</g>
		<path class="st17" d="M223.3,245.1c0,0.8-0.7,1.5-1.5,1.5c-0.8,0-1.5-0.7-1.5-1.5c0-0.8,0.7-1.5,1.5-1.5
			C222.6,243.6,223.3,244.3,223.3,245.1z"/>
		<path class="st6" d="M263.4,274.9c0,3.7-3,6.8-6.8,6.8h-18.8c-3.7,0-6.8-3-6.8-6.8l-0.9-30.1c0-3.7,3-6.8,6.8-6.8h20.6
			c3.7,0,6.8,3,6.8,6.8L263.4,274.9z"/>
		<g class="st2">
			<g>
				<path class="st5" d="M237.4,245.3c0,0.9-0.7,1.6-1.6,1.6c-0.9,0-1.6-0.7-1.6-1.6c0-0.9,0.7-1.6,1.6-1.6
					C236.7,243.6,237.4,244.4,237.4,245.3z"/>
				<path class="st5" d="M260.3,245.3c0,0.9-0.7,1.6-1.6,1.6c-0.9,0-1.6-0.7-1.6-1.6c0-0.9,0.7-1.6,1.6-1.6
					C259.5,243.6,260.3,244.4,260.3,245.3z"/>
			</g>
			<g>
				<path class="st5" d="M238.4,275.9c0,0.9-0.7,1.6-1.6,1.6s-1.6-0.7-1.6-1.6c0-0.9,0.7-1.6,1.6-1.6S238.4,275,238.4,275.9z"/>
				<path class="st5" d="M259.3,275.9c0,0.9-0.7,1.6-1.6,1.6c-0.9,0-1.6-0.7-1.6-1.6c0-0.9,0.7-1.6,1.6-1.6
					C258.6,274.3,259.3,275,259.3,275.9z"/>
			</g>
		</g>
		<path class="st6" d="M247.2,292.8c-9.1,0-16.5,7.4-16.5,16.5h33C263.7,300.2,256.3,292.8,247.2,292.8z"/>
		<path class="st7" d="M267.3,308.7c0,1.3-1.1,2.4-2.4,2.4h-35.5c-1.3,0-2.4-1.1-2.4-2.4l0,0c0-1.3,1.1-2.4,2.4-2.4H265
			C266.3,306.4,267.3,307.4,267.3,308.7L267.3,308.7z"/>
	</g>
	<g class="st1">
		<rect x="361.6" y="379.4" class="st8" width="5.1" height="26.7"/>
		<rect x="335.6" y="410.5" class="st8" width="57.1" height="1.5"/>
		<g class="st2">
			<g>
				<g>
					<g>
						<path class="st3" d="M391,385.7c0,2.7-12,4.8-26.9,4.8c-14.8,0-26.9-2.2-26.9-4.8c0-2.7,12-4.8,26.9-4.8
							C379,380.9,391,383,391,385.7z"/>
						<rect x="337.3" y="372.4" class="st3" width="53.7" height="13.2"/>
						<path class="st5" d="M391,372.2c0,2.7-12,4.8-26.9,4.8c-14.8,0-26.9-2.2-26.9-4.8c0-2.7,12-4.8,26.9-4.8
							C379,367.4,391,369.5,391,372.2z"/>
					</g>
					<g>
						<path class="st4" d="M387,382.4c0,2-1.4,3.8-3.2,4c-1.8,0.2-3.2-1.2-3.2-3.2c0-2,1.4-3.8,3.2-4C385.5,379,387,380.4,387,382.4
							z"/>
						<path class="st5" d="M385.4,382.6c0,1-0.7,1.9-1.6,2.1c-0.9,0.1-1.6-0.6-1.6-1.6c0-1,0.7-1.9,1.6-2.1
							C384.7,380.8,385.4,381.6,385.4,382.6z"/>
					</g>
				</g>
				<g>
					<path class="st5" d="M370.6,384.7c0,0.6-0.5,1-1,1c-0.6,0-1-0.5-1-1c0-0.6,0.5-1,1-1C370.2,383.7,370.6,384.1,370.6,384.7z"/>
					<path class="st5" d="M365.2,384.7c0,0.6-0.5,1-1,1c-0.6,0-1-0.5-1-1c0-0.6,0.5-1,1-1C364.7,383.7,365.2,384.1,365.2,384.7z"/>
					<path class="st5" d="M359.8,384.7c0,0.6-0.5,1-1,1c-0.6,0-1-0.5-1-1c0-0.6,0.5-1,1-1C359.3,383.7,359.8,384.1,359.8,384.7z"/>
				</g>
			</g>
			<g>
				<g>
					<g>
						<path class="st3" d="M391,367.8c0,2.7-12,4.8-26.9,4.8c-14.8,0-26.9-2.2-26.9-4.8c0-2.7,12-4.8,26.9-4.8
							C379,363,391,365.2,391,367.8z"/>
						<rect x="337.3" y="354.5" class="st3" width="53.7" height="13.2"/>
						<path class="st5" d="M391,354.4c0,2.7-12,4.8-26.9,4.8c-14.8,0-26.9-2.2-26.9-4.8s12-4.8,26.9-4.8
							C379,349.5,391,351.7,391,354.4z"/>
					</g>
					<g>
						<path class="st4" d="M387,364.5c0,2-1.4,3.8-3.2,4c-1.8,0.2-3.2-1.2-3.2-3.2c0-2,1.4-3.8,3.2-4
							C385.5,361.1,387,362.5,387,364.5z"/>
						<path class="st5" d="M385.4,364.7c0,1-0.7,1.9-1.6,2.1c-0.9,0.1-1.6-0.6-1.6-1.6c0-1,0.7-1.9,1.6-2.1
							C384.7,363,385.4,363.7,385.4,364.7z"/>
					</g>
				</g>
				<g>
					<path class="st5" d="M370.6,366.8c0,0.6-0.5,1-1,1c-0.6,0-1-0.5-1-1c0-0.6,0.5-1,1-1C370.2,365.8,370.6,366.3,370.6,366.8z"/>
					<path class="st5" d="M365.2,366.8c0,0.6-0.5,1-1,1c-0.6,0-1-0.5-1-1c0-0.6,0.5-1,1-1C364.7,365.8,365.2,366.3,365.2,366.8z"/>
					<path class="st5" d="M359.8,366.8c0,0.6-0.5,1-1,1c-0.6,0-1-0.5-1-1c0-0.6,0.5-1,1-1C359.3,365.8,359.8,366.3,359.8,366.8z"/>
				</g>
			</g>
			<g>
				<g>
					<g>
						<path class="st3" d="M391,350c0,2.7-12,4.8-26.9,4.8c-14.8,0-26.9-2.2-26.9-4.8c0-2.7,12-4.8,26.9-4.8
							C379,345.1,391,347.3,391,350z"/>
						<rect x="337.3" y="336.6" class="st3" width="53.7" height="13.2"/>
						<ellipse class="st5" cx="364.2" cy="336.5" rx="26.9" ry="4.8"/>
					</g>
					<g>
						<path class="st4" d="M387,346.6c0,2-1.4,3.8-3.2,4c-1.8,0.2-3.2-1.2-3.2-3.2c0-2,1.4-3.8,3.2-4
							C385.5,343.2,387,344.6,387,346.6z"/>
						<path class="st5" d="M385.4,346.8c0,1-0.7,1.9-1.6,2.1c-0.9,0.1-1.6-0.6-1.6-1.6c0-1,0.7-1.9,1.6-2.1
							C384.7,345.1,385.4,345.8,385.4,346.8z"/>
					</g>
				</g>
				<g>
					<path class="st5" d="M370.6,349c0,0.6-0.5,1-1,1c-0.6,0-1-0.5-1-1s0.5-1,1-1C370.2,347.9,370.6,348.4,370.6,349z"/>
					<path class="st5" d="M365.2,349c0,0.6-0.5,1-1,1c-0.6,0-1-0.5-1-1s0.5-1,1-1C364.7,347.9,365.2,348.4,365.2,349z"/>
					<path class="st5" d="M359.8,349c0,0.6-0.5,1-1,1c-0.6,0-1-0.5-1-1s0.5-1,1-1C359.3,347.9,359.8,348.4,359.8,349z"/>
				</g>
			</g>
		</g>
		<path class="st7" d="M371.1,407.6c0,1-0.8,1.8-1.8,1.8H359c-1,0-1.8-0.8-1.8-1.8v-3.2c0-1,0.8-1.8,1.8-1.8h10.3
			c1,0,1.8,0.8,1.8,1.8V407.6z"/>
		<path class="st7" d="M375.2,413.5c0,1.7-1.4,3-3,3h-16.1c-1.7,0-3-1.4-3-3V409c0-1.7,1.4-3,3-3h16.1c1.7,0,3,1.4,3,3V413.5z"/>
		<g class="st2">
			<path class="st5" d="M338.8,411.3c0,1.5-1.2,2.7-2.6,2.7c-1.5,0-2.6-1.2-2.6-2.7c0-1.5,1.2-2.7,2.6-2.7
				C337.6,408.6,338.8,409.8,338.8,411.3z"/>
			<path class="st5" d="M394.8,411.3c0,1.5-1.2,2.7-2.6,2.7c-1.5,0-2.6-1.2-2.6-2.7c0-1.5,1.2-2.7,2.6-2.7
				C393.7,408.6,394.8,409.8,394.8,411.3z"/>
		</g>
	</g>
	<g class="st1">
		<g class="st2">
			<polygon class="st4" points="130.5,402.2 124,402.2 122.2,402.2 115.7,402.2 112.2,414.2 122.2,414.2 124,414.2 134,414.2 			"/>
			<path class="st3" d="M80,391.5v11.1c0,0.9,0.7,1.6,1.6,1.6h83c0.9,0,1.6-0.7,1.6-1.6v-11.1H80z"/>
			<path class="st4" d="M164.6,347h-83c-0.9,0-1.6,0.7-1.6,1.6v42.9h86.2v-42.9C166.2,347.7,165.5,347,164.6,347z"/>
			<rect x="83.7" y="350.4" class="st5" width="78.7" height="41.1"/>
			<path class="st3" d="M140.5,414.9c0,0.9-0.7,1.6-1.6,1.6h-31.5c-0.9,0-1.6-0.7-1.6-1.6l0,0c0-0.9,0.7-1.6,1.6-1.6h31.5
				C139.8,413.3,140.5,414,140.5,414.9L140.5,414.9z"/>
		</g>
		<g class="st2">
			<g>
				<path class="st3" d="M94.2,358.2L94.2,358.2l-1.2,0.6l-0.2-0.7l1.4-0.8H95v6.6h-0.9V358.2z"/>
				<path class="st3" d="M101.8,360.6c0,2.3-0.8,3.5-2.3,3.5c-1.3,0-2.2-1.2-2.2-3.4c0-2.2,1-3.4,2.3-3.4
					C101,357.3,101.8,358.5,101.8,360.6z M98.2,360.7c0,1.7,0.5,2.7,1.3,2.7c0.9,0,1.4-1.1,1.4-2.8c0-1.6-0.4-2.7-1.3-2.7
					C98.8,357.9,98.2,358.9,98.2,360.7z"/>
				<path class="st3" d="M107.1,360.6c0,2.3-0.8,3.5-2.3,3.5c-1.3,0-2.2-1.2-2.2-3.4c0-2.2,1-3.4,2.3-3.4
					C106.3,357.3,107.1,358.5,107.1,360.6z M103.5,360.7c0,1.7,0.5,2.7,1.3,2.7c0.9,0,1.4-1.1,1.4-2.8c0-1.6-0.4-2.7-1.3-2.7
					C104,357.9,103.5,358.9,103.5,360.7z"/>
				<path class="st3" d="M109.8,358.2L109.8,358.2l-1.2,0.6l-0.2-0.7l1.4-0.8h0.8v6.6h-0.9V358.2z"/>
				<path class="st3" d="M117.5,360.6c0,2.3-0.8,3.5-2.3,3.5c-1.3,0-2.2-1.2-2.2-3.4c0-2.2,1-3.4,2.3-3.4
					C116.7,357.3,117.5,358.5,117.5,360.6z M113.9,360.7c0,1.7,0.5,2.7,1.3,2.7c0.9,0,1.4-1.1,1.4-2.8c0-1.6-0.4-2.7-1.3-2.7
					C114.5,357.9,113.9,358.9,113.9,360.7z"/>
				<path class="st3" d="M120.3,358.2L120.3,358.2l-1.2,0.6l-0.2-0.7l1.4-0.8h0.8v6.6h-0.9V358.2z"/>
				<path class="st3" d="M125.5,358.2L125.5,358.2l-1.2,0.6l-0.2-0.7l1.4-0.8h0.8v6.6h-0.9V358.2z"/>
				<path class="st3" d="M130.7,358.2L130.7,358.2l-1.2,0.6l-0.2-0.7l1.4-0.8h0.8v6.6h-0.9V358.2z"/>
				<path class="st3" d="M138.4,360.6c0,2.3-0.8,3.5-2.3,3.5c-1.3,0-2.2-1.2-2.2-3.4c0-2.2,1-3.4,2.3-3.4
					C137.6,357.3,138.4,358.5,138.4,360.6z M134.8,360.7c0,1.7,0.5,2.7,1.3,2.7c0.9,0,1.4-1.1,1.4-2.8c0-1.6-0.4-2.7-1.3-2.7
					C135.4,357.9,134.8,358.9,134.8,360.7z"/>
				<path class="st3" d="M141.2,358.2L141.2,358.2l-1.2,0.6l-0.2-0.7l1.4-0.8h0.8v6.6h-0.9V358.2z"/>
				<path class="st3" d="M146.4,358.2L146.4,358.2l-1.2,0.6l-0.2-0.7l1.4-0.8h0.8v6.6h-0.9V358.2z"/>
				<path class="st3" d="M154.1,360.6c0,2.3-0.8,3.5-2.3,3.5c-1.3,0-2.2-1.2-2.2-3.4c0-2.2,1-3.4,2.3-3.4
					C153.3,357.3,154.1,358.5,154.1,360.6z M150.5,360.7c0,1.7,0.5,2.7,1.3,2.7c0.9,0,1.4-1.1,1.4-2.8c0-1.6-0.4-2.7-1.3-2.7
					C151,357.9,150.5,358.9,150.5,360.7z"/>
			</g>
			<g>
				<path class="st3" d="M94.2,368.5L94.2,368.5l-1.2,0.6l-0.2-0.7l1.4-0.8H95v6.6h-0.9V368.5z"/>
				<path class="st3" d="M99.4,368.5L99.4,368.5l-1.2,0.6l-0.2-0.7l1.4-0.8h0.8v6.6h-0.9V368.5z"/>
				<path class="st3" d="M107.1,370.9c0,2.3-0.8,3.5-2.3,3.5c-1.3,0-2.2-1.2-2.2-3.4c0-2.2,1-3.4,2.3-3.4
					C106.3,367.6,107.1,368.8,107.1,370.9z M103.5,371c0,1.7,0.5,2.7,1.3,2.7c0.9,0,1.4-1.1,1.4-2.8c0-1.6-0.4-2.7-1.3-2.7
					C104,368.3,103.5,369.2,103.5,371z"/>
				<path class="st3" d="M109.8,368.5L109.8,368.5l-1.2,0.6l-0.2-0.7l1.4-0.8h0.8v6.6h-0.9V368.5z"/>
				<path class="st3" d="M117.5,370.9c0,2.3-0.8,3.5-2.3,3.5c-1.3,0-2.2-1.2-2.2-3.4c0-2.2,1-3.4,2.3-3.4
					C116.7,367.6,117.5,368.8,117.5,370.9z M113.9,371c0,1.7,0.5,2.7,1.3,2.7c0.9,0,1.4-1.1,1.4-2.8c0-1.6-0.4-2.7-1.3-2.7
					C114.5,368.3,113.9,369.2,113.9,371z"/>
				<path class="st3" d="M120.3,368.5L120.3,368.5l-1.2,0.6l-0.2-0.7l1.4-0.8h0.8v6.6h-0.9V368.5z"/>
				<path class="st3" d="M127.9,370.9c0,2.3-0.8,3.5-2.3,3.5c-1.3,0-2.2-1.2-2.2-3.4c0-2.2,1-3.4,2.3-3.4
					C127.2,367.6,127.9,368.8,127.9,370.9z M124.4,371c0,1.7,0.5,2.7,1.3,2.7c0.9,0,1.4-1.1,1.4-2.8c0-1.6-0.4-2.7-1.3-2.7
					C124.9,368.3,124.4,369.2,124.4,371z"/>
				<path class="st3" d="M130.7,368.5L130.7,368.5l-1.2,0.6l-0.2-0.7l1.4-0.8h0.8v6.6h-0.9V368.5z"/>
				<path class="st3" d="M138.4,370.9c0,2.3-0.8,3.5-2.3,3.5c-1.3,0-2.2-1.2-2.2-3.4c0-2.2,1-3.4,2.3-3.4
					C137.6,367.6,138.4,368.8,138.4,370.9z M134.8,371c0,1.7,0.5,2.7,1.3,2.7c0.9,0,1.4-1.1,1.4-2.8c0-1.6-0.4-2.7-1.3-2.7
					C135.4,368.3,134.8,369.2,134.8,371z"/>
				<path class="st3" d="M141.2,368.5L141.2,368.5l-1.2,0.6l-0.2-0.7l1.4-0.8h0.8v6.6h-0.9V368.5z"/>
				<path class="st3" d="M148.8,370.9c0,2.3-0.8,3.5-2.3,3.5c-1.3,0-2.2-1.2-2.2-3.4c0-2.2,1-3.4,2.3-3.4
					C148,367.6,148.8,368.8,148.8,370.9z M145.2,371c0,1.7,0.5,2.7,1.3,2.7c0.9,0,1.4-1.1,1.4-2.8c0-1.6-0.4-2.7-1.3-2.7
					C145.8,368.3,145.2,369.2,145.2,371z"/>
				<path class="st3" d="M154.1,370.9c0,2.3-0.8,3.5-2.3,3.5c-1.3,0-2.2-1.2-2.2-3.4c0-2.2,1-3.4,2.3-3.4
					C153.3,367.6,154.1,368.8,154.1,370.9z M150.5,371c0,1.7,0.5,2.7,1.3,2.7c0.9,0,1.4-1.1,1.4-2.8c0-1.6-0.4-2.7-1.3-2.7
					C151,368.3,150.5,369.2,150.5,371z"/>
			</g>
			<g>
				<path class="st3" d="M96.6,381.2c0,2.3-0.8,3.5-2.3,3.5c-1.3,0-2.2-1.2-2.2-3.4c0-2.2,1-3.4,2.3-3.4
					C95.8,377.9,96.6,379.1,96.6,381.2z M93,381.4c0,1.7,0.5,2.7,1.3,2.7c0.9,0,1.4-1.1,1.4-2.8c0-1.6-0.4-2.7-1.3-2.7
					C93.6,378.6,93,379.5,93,381.4z"/>
				<path class="st3" d="M99.4,378.8L99.4,378.8l-1.2,0.6l-0.2-0.7l1.4-0.8h0.8v6.6h-0.9V378.8z"/>
				<path class="st3" d="M104.6,378.8L104.6,378.8l-1.2,0.6l-0.2-0.7l1.4-0.8h0.8v6.6h-0.9V378.8z"/>
				<path class="st3" d="M109.8,378.8L109.8,378.8l-1.2,0.6l-0.2-0.7l1.4-0.8h0.8v6.6h-0.9V378.8z"/>
				<path class="st3" d="M115,378.8L115,378.8l-1.2,0.6l-0.2-0.7l1.4-0.8h0.8v6.6H115V378.8z"/>
				<path class="st3" d="M122.7,381.2c0,2.3-0.8,3.5-2.3,3.5c-1.3,0-2.2-1.2-2.2-3.4c0-2.2,1-3.4,2.3-3.4
					C121.9,377.9,122.7,379.1,122.7,381.2z M119.1,381.4c0,1.7,0.5,2.7,1.3,2.7c0.9,0,1.4-1.1,1.4-2.8c0-1.6-0.4-2.7-1.3-2.7
					C119.7,378.6,119.1,379.5,119.1,381.4z"/>
				<path class="st3" d="M127.9,381.2c0,2.3-0.8,3.5-2.3,3.5c-1.3,0-2.2-1.2-2.2-3.4c0-2.2,1-3.4,2.3-3.4
					C127.2,377.9,127.9,379.1,127.9,381.2z M124.4,381.4c0,1.7,0.5,2.7,1.3,2.7c0.9,0,1.4-1.1,1.4-2.8c0-1.6-0.4-2.7-1.3-2.7
					C124.9,378.6,124.4,379.5,124.4,381.4z"/>
				<path class="st3" d="M133.2,381.2c0,2.3-0.8,3.5-2.3,3.5c-1.3,0-2.2-1.2-2.2-3.4c0-2.2,1-3.4,2.3-3.4
					C132.4,377.9,133.2,379.1,133.2,381.2z M129.6,381.4c0,1.7,0.5,2.7,1.3,2.7c0.9,0,1.4-1.1,1.4-2.8c0-1.6-0.4-2.7-1.3-2.7
					C130.1,378.6,129.6,379.5,129.6,381.4z"/>
				<path class="st3" d="M138.4,381.2c0,2.3-0.8,3.5-2.3,3.5c-1.3,0-2.2-1.2-2.2-3.4c0-2.2,1-3.4,2.3-3.4
					C137.6,377.9,138.4,379.1,138.4,381.2z M134.8,381.4c0,1.7,0.5,2.7,1.3,2.7c0.9,0,1.4-1.1,1.4-2.8c0-1.6-0.4-2.7-1.3-2.7
					C135.4,378.6,134.8,379.5,134.8,381.4z"/>
				<path class="st3" d="M141.2,378.8L141.2,378.8l-1.2,0.6l-0.2-0.7l1.4-0.8h0.8v6.6h-0.9V378.8z"/>
				<path class="st3" d="M148.8,381.2c0,2.3-0.8,3.5-2.3,3.5c-1.3,0-2.2-1.2-2.2-3.4c0-2.2,1-3.4,2.3-3.4
					C148,377.9,148.8,379.1,148.8,381.2z M145.2,381.4c0,1.7,0.5,2.7,1.3,2.7c0.9,0,1.4-1.1,1.4-2.8c0-1.6-0.4-2.7-1.3-2.7
					C145.8,378.6,145.2,379.5,145.2,381.4z"/>
				<path class="st3" d="M151.6,378.8L151.6,378.8l-1.2,0.6l-0.2-0.7l1.4-0.8h0.8v6.6h-0.9V378.8z"/>
			</g>
		</g>
		<path class="st7" d="M125.4,398.4c0,1.3-1,2.3-2.3,2.3c-1.3,0-2.3-1-2.3-2.3c0-1.3,1-2.3,2.3-2.3
			C124.3,396.1,125.4,397.1,125.4,398.4z"/>
	</g>
	<g class="st1">
		<g class="st2">
			<path class="st4" d="M262,339.7c0,0,2.5-3.5,7.3-4.6c0,0,1,4.8,0,6.9c0,0,1.9,0.7,3.2,2.6c1.3,1.9,7.9,11.5,8.4,12.5
				c0.6,1-0.2,3.7-1.4,4.5c-1,0.6-3.1,1-4-0.4c-1-1.3-1.8-2.3-2.7-2.9c-1-0.6-4.9,1-7-0.6c-2.1-1.5-2.5-4-2-5.4c0,0-1.8,0.6-1.4,5.7
				c0.4,5.1,5.2,10.7,9.9,14.9c4.6,4.2,6.3,10.5,6.3,15.2h-32.7c0.8-9.2-5.2-13.9-5.2-26.8c0-12.9,9.8-24.3,21.3-24.3L262,339.7z"/>
			<path class="st4" d="M272.8,400.1c0-2.3,2.9-7.2,2.9-7.2l-14.9-1.7l-14.9,1.7l-4.6,19.4h19.6h19.6
				C280.3,404.8,272.8,402.4,272.8,400.1z"/>
			<path class="st19" d="M241.2,393.4c0,0.8,0.6,1.4,1.4,1.4h36.2c0.8,0,1.4-0.6,1.4-1.4v-4.8c0-0.8-0.6-1.4-1.4-1.4h-36.2
				c-0.8,0-1.4,0.6-1.4,1.4V393.4z"/>
			<path class="st19" d="M237.3,415.1c0,0.8,0.6,1.4,1.4,1.4h44c0.8,0,1.4-0.6,1.4-1.4v-4.8c0-0.8-0.6-1.4-1.4-1.4h-44
				c-0.8,0-1.4,0.6-1.4,1.4V415.1z"/>
		</g>
		<g class="st2">
			<path class="st3" d="M231.2,339.7c0,0-2.5-3.5-7.3-4.6c0,0-1,4.8,0,6.9c0,0-1.9,0.7-3.2,2.6c-1.3,1.9-7.9,11.5-8.4,12.5
				c-0.6,1,0.2,3.7,1.4,4.5c1,0.6,3.1,1,4-0.4c1-1.3,1.8-2.3,2.7-2.9c1-0.6,4.9,1,7-0.6c2.1-1.5,2.5-4,2-5.4c0,0,1.8,0.6,1.4,5.7
				c-0.4,5.1-5.2,10.7-9.9,14.9c-4.6,4.2-6.3,10.5-6.3,15.2h32.7c-0.8-9.2,5.2-13.9,5.2-26.8c0-12.9-9.8-24.3-21.3-24.3L231.2,339.7
				z"/>
			<path class="st3" d="M244.5,400.1c0-2.3,2.9-7.2,2.9-7.2l-14.9-1.7l-14.9,1.7c0,0,2.9,4.9,2.9,7.2c0,2.3-7.6,4.6-7.6,12.2h19.6
				h19.6C252.1,404.8,244.5,402.4,244.5,400.1z"/>
			<path class="st20" d="M252,393.4c0,0.8-0.6,1.4-1.4,1.4h-36.2c-0.8,0-1.4-0.6-1.4-1.4v-4.8c0-0.8,0.6-1.4,1.4-1.4h36.2
				c0.8,0,1.4,0.6,1.4,1.4V393.4z"/>
			<path class="st20" d="M255.9,415.1c0,0.8-0.6,1.4-1.4,1.4h-44c-0.8,0-1.4-0.6-1.4-1.4v-4.8c0-0.8,0.6-1.4,1.4-1.4h44
				c0.8,0,1.4,0.6,1.4,1.4V415.1z"/>
		</g>
	</g>
	<g class="st1">
		<path class="st8" d="M344.1,232.2c0,3.1-1.3,5.6-2.9,5.6s-2.9-2.5-2.9-5.6c0-3.1,1.3-5.6,2.9-5.6S344.1,229.1,344.1,232.2z"/>
		<ellipse class="st8" cx="387.1" cy="232.2" rx="2.9" ry="5.6"/>
	</g>
	<g class="st1">
		<path class="st7" d="M349.1,238.4c0,1.2-1,2.2-2.2,2.2h-4.3c-1.2,0-2.2-1-2.2-2.2v-12.7c0-1.2,1-2.2,2.2-2.2h4.3
			c1.2,0,2.2,1,2.2,2.2V238.4z"/>
		<path class="st7" d="M387.9,238.4c0,1.2-1,2.2-2.2,2.2h-4.3c-1.2,0-2.2-1-2.2-2.2v-12.7c0-1.2,1-2.2,2.2-2.2h4.3
			c1.2,0,2.2,1,2.2,2.2V238.4z"/>
	</g>
	<g class="st1">
		<path class="st21" d="M375.7,297.3c0,6.4-5.1,11.5-11.5,11.5l0,0c-6.4,0-11.5-5.1-11.5-11.5v-10.7c0-6.4,5.1-14.3,11.5-14.3l0,0
			c6.4,0,11.5,8,11.5,14.3V297.3z"/>
		<g class="st2">
			<g>
				<rect x="366.6" y="304.3" class="st5" width="2.6" height="7.1"/>
			</g>
			<g>
				<rect x="359.1" y="304.3" class="st5" width="2.6" height="7.1"/>
			</g>
		</g>
		<path class="st8" d="M367.7,312.4c0,0.8-0.7,1.5-1.5,1.5h-4.1c-0.8,0-1.5-0.7-1.5-1.5v-9.1c0-0.8,0.7-1.5,1.5-1.5h4.1
			c0.8,0,1.5,0.7,1.5,1.5V312.4z"/>
		<g class="st2">
			<path class="st5" d="M363.4,291.7c0,2.1-1.7,3.8-3.8,3.8H353c-2.1,0-3.8-1.7-3.8-3.8v-7.8c0-2.1,1.7-3.8,3.8-3.8h6.6
				c2.1,0,3.8,1.7,3.8,3.8V291.7z"/>
			<path class="st5" d="M379.1,291.7c0,2.1-1.7,3.8-3.8,3.8h-6.6c-2.1,0-3.8-1.7-3.8-3.8v-7.8c0-2.1,1.7-3.8,3.8-3.8h6.6
				c2.1,0,3.8,1.7,3.8,3.8V291.7z"/>
		</g>
		<g class="st2">
			<g>
				<g>
					<path class="st22" d="M346.4,266.2c0,0-17.2,1.9-11,26.8"/>
					<g>
						<path class="st5" d="M337.1,303.6c-0.5,0.1-1-0.3-1.1-0.8l-0.9-6.9c-0.1-0.5,0.3-1,0.8-1.1l0,0c0.5-0.1,1,0.3,1.1,0.8l0.9,6.9
							C337.9,303,337.6,303.5,337.1,303.6L337.1,303.6z"/>
						<path class="st5" d="M339.9,305.8c-0.3,0.4-0.9,0.4-1.3,0l-2.2-2c-0.4-0.3-0.4-0.9,0-1.3l0,0c0.3-0.4,0.9-0.4,1.3,0l2.2,2
							C340.2,304.9,340.2,305.5,339.9,305.8L339.9,305.8z"/>
						<path class="st4" d="M338,303.1c-0.1,0.6-0.7,1-1.2,0.9c-0.6-0.1-1-0.7-0.9-1.2c0.1-0.6,0.7-1,1.2-0.9
							C337.7,301.9,338.1,302.5,338,303.1z"/>
					</g>
					<g>
						<path class="st5" d="M341.7,301.6c-0.4,0.3-1,0.2-1.3-0.2l-4.1-5.6c-0.3-0.4-0.2-1,0.2-1.3l0,0c0.4-0.3,1-0.2,1.3,0.2l4.1,5.6
							C342.2,300.7,342.1,301.3,341.7,301.6L341.7,301.6z"/>
						<path class="st5" d="M345.1,302.3c-0.2,0.5-0.7,0.7-1.2,0.6l-2.8-1c-0.5-0.2-0.7-0.7-0.6-1.2l0,0c0.2-0.5,0.7-0.7,1.2-0.6
							l2.8,1C345,301.3,345.3,301.8,345.1,302.3L345.1,302.3z"/>
						<path class="st4" d="M342.2,301c0,0.6-0.5,1-1.1,1c-0.6,0-1-0.5-1-1.1c0-0.6,0.5-1,1.1-1C341.8,299.9,342.2,300.4,342.2,301z"
							/>
					</g>
					<g>
						<path class="st5" d="M342.3,293.1c0,0.6-0.4,1-1,1.1l-4.5,0.2c-0.6,0-1-0.4-1.1-1l0,0c0-0.6,0.4-1,1-1.1l4.5-0.2
							C341.8,292.1,342.2,292.6,342.3,293.1L342.3,293.1z"/>
						<path class="st5" d="M345.1,294.6c-0.2,0.5-0.8,0.8-1.3,0.6l-2.4-1c-0.5-0.2-0.8-0.8-0.6-1.3l0,0c0.2-0.5,0.8-0.8,1.3-0.6
							l2.4,1C345,293.5,345.3,294.1,345.1,294.6L345.1,294.6z"/>
						<path class="st4" d="M342.5,293c0,0.6-0.4,1.1-1,1.1c-0.6,0-1.1-0.4-1.1-1c0-0.6,0.4-1.1,1-1.1
							C341.9,292,342.4,292.4,342.5,293z"/>
					</g>
					<path class="st3" d="M340.1,295.7c0.3,0.9-0.2,1.8-1.1,2.1l-3.1,1.1c-0.9,0.3-1.8-0.2-2.1-1.1l-1.5-4.4
						c-0.3-0.9,0.2-1.8,1.1-2.1l3.1-1.1c0.9-0.3,1.8,0.2,2.1,1.1L340.1,295.7z"/>
				</g>
				<path class="st5" d="M350.4,270.4c0,0.9-0.7,1.6-1.6,1.6h-2.5c-0.9,0-1.6-0.7-1.6-1.6V263c0-0.9,0.7-1.6,1.6-1.6h2.5
					c0.9,0,1.6,0.7,1.6,1.6V270.4z"/>
			</g>
			<g>
				<g>
					<path class="st22" d="M381.9,266.2c0,0,17.2,1.9,11,26.8"/>
					<g>
						<path class="st5" d="M391.2,303.6c0.5,0.1,1-0.3,1.1-0.8l0.9-6.9c0.1-0.5-0.3-1-0.8-1.1l0,0c-0.5-0.1-1,0.3-1.1,0.8l-0.9,6.9
							C390.4,303,390.7,303.5,391.2,303.6L391.2,303.6z"/>
						<path class="st5" d="M388.4,305.8c0.3,0.4,0.9,0.4,1.3,0l2.2-2c0.4-0.3,0.4-0.9,0-1.3l0,0c-0.3-0.4-0.9-0.4-1.3,0l-2.2,2
							C388.1,304.9,388.1,305.5,388.4,305.8L388.4,305.8z"/>
						<path class="st4" d="M390.3,303.1c0.1,0.6,0.7,1,1.2,0.9c0.6-0.1,1-0.7,0.9-1.2c-0.1-0.6-0.7-1-1.2-0.9
							C390.6,301.9,390.2,302.5,390.3,303.1z"/>
					</g>
					<g>
						<path class="st5" d="M386.6,301.6c0.4,0.3,1,0.2,1.3-0.2l4.1-5.6c0.3-0.4,0.2-1-0.2-1.3l0,0c-0.4-0.3-1-0.2-1.3,0.2l-4.1,5.6
							C386.1,300.7,386.2,301.3,386.6,301.6L386.6,301.6z"/>
						<path class="st5" d="M383.2,302.3c0.2,0.5,0.7,0.7,1.2,0.6l2.8-1c0.5-0.2,0.7-0.7,0.6-1.2l0,0c-0.2-0.5-0.7-0.7-1.2-0.6
							l-2.8,1C383.3,301.3,383,301.8,383.2,302.3L383.2,302.3z"/>
						<path class="st4" d="M386.1,301c0,0.6,0.5,1,1.1,1c0.6,0,1-0.5,1-1.1c0-0.6-0.5-1-1.1-1C386.5,299.9,386.1,300.4,386.1,301z"
							/>
					</g>
					<g>
						<path class="st5" d="M386,293.1c0,0.6,0.4,1,1,1.1l4.5,0.2c0.6,0,1-0.4,1.1-1l0,0c0-0.6-0.4-1-1-1.1l-4.5-0.2
							C386.5,292.1,386.1,292.6,386,293.1L386,293.1z"/>
						<path class="st5" d="M383.2,294.6c0.2,0.5,0.8,0.8,1.3,0.6l2.4-1c0.5-0.2,0.8-0.8,0.6-1.3l0,0c-0.2-0.5-0.8-0.8-1.3-0.6
							l-2.4,1C383.3,293.5,383,294.1,383.2,294.6L383.2,294.6z"/>
						<path class="st4" d="M385.8,293c0,0.6,0.4,1.1,1,1.1c0.6,0,1.1-0.4,1.1-1c0-0.6-0.4-1.1-1-1.1
							C386.4,292,385.9,292.4,385.8,293z"/>
					</g>
					<path class="st3" d="M388.2,295.7c-0.3,0.9,0.2,1.8,1.1,2.1l3.1,1.1c0.9,0.3,1.8-0.2,2.1-1.1l1.5-4.4c0.3-0.9-0.2-1.8-1.1-2.1
						l-3.1-1.1c-0.9-0.3-1.8,0.2-2.1,1.1L388.2,295.7z"/>
				</g>
				<path class="st5" d="M377.9,270.4c0,0.9,0.7,1.6,1.6,1.6h2.5c0.9,0,1.6-0.7,1.6-1.6V263c0-0.9-0.7-1.6-1.6-1.6h-2.5
					c-0.9,0-1.6,0.7-1.6,1.6V270.4z"/>
			</g>
		</g>
		<rect x="360.5" y="250.6" class="st8" width="7.3" height="14"/>
		<path class="st7" d="M370.6,267c0,1-0.8,1.7-1.7,1.7h-9.5c-1,0-1.7-0.8-1.7-1.7v-7.7c0-1,0.8-1.7,1.7-1.7h9.5c1,0,1.7,0.8,1.7,1.7
			V267z"/>
		<path class="st6" d="M381.4,262.8c0-2-1.7-3.7-3.7-3.7h-27.2c-2,0-3.7,1.7-3.7,3.7v8.4h0v8c0,9.5,7.7,17.3,17.3,17.3
			s17.3-7.7,17.3-17.3v-8h0V262.8z"/>
		<path class="st23" d="M364.2,216.3"/>
		<g class="st2">
			<path class="st3" d="M378.6,218.7v15.8c0,6.9-6.5,10.6-14.4,10.6s-14.4-3.7-14.4-10.6v-15.8c-1.5,1.2-2.9,2.7-3.9,4.3v22.4
				c3.7,5.5,10.5,8.7,18.4,8.7c7.8,0,14.6-3.2,18.4-8.7V223C381.4,221.4,380.1,220,378.6,218.7z"/>
		</g>
		<path class="st8" d="M364.2,245.2c8,0,14.4-3.7,14.4-10.6v-15.8c-3.8-3.1-8.8-5-14.4-5c-5.6,0-10.6,1.9-14.4,5v15.8
			C349.7,241.5,356.2,245.2,364.2,245.2z"/>
		<g class="st2">
			<path class="st5" d="M376.7,268.7c0,2.3-1.9,4.2-4.2,4.2c-2.3,0-4.2-1.9-4.2-4.2c0-2.3,1.9-4.2,4.2-4.2
				C374.9,264.5,376.7,266.4,376.7,268.7z"/>
			<path class="st4" d="M374.5,268.7c0,1.1-0.9,2-2,2c-1.1,0-2-0.9-2-2c0-1.1,0.9-2,2-2C373.6,266.7,374.5,267.6,374.5,268.7z"/>
			<path class="st5" d="M373.9,278.5c0,0.7-0.6,1.4-1.4,1.4c-0.7,0-1.4-0.6-1.4-1.4s0.6-1.4,1.4-1.4
				C373.3,277.1,373.9,277.7,373.9,278.5z"/>
			<path class="st5" d="M373.9,283.5c0,0.7-0.6,1.4-1.4,1.4c-0.7,0-1.4-0.6-1.4-1.4s0.6-1.4,1.4-1.4
				C373.3,282.2,373.9,282.8,373.9,283.5z"/>
			<path class="st5" d="M365.9,267.1c0,0.2-0.2,0.4-0.4,0.4H352c-0.2,0-0.4-0.2-0.4-0.4l0,0c0-0.2,0.2-0.4,0.4-0.4h13.5
				C365.7,266.6,365.9,266.8,365.9,267.1L365.9,267.1z"/>
			<path class="st5" d="M365.9,270.4c0,0.2-0.2,0.4-0.4,0.4H352c-0.2,0-0.4-0.2-0.4-0.4l0,0c0-0.2,0.2-0.4,0.4-0.4h13.5
				C365.7,269.9,365.9,270.1,365.9,270.4L365.9,270.4z"/>
		</g>
		<path class="st23" d="M364.2,207"/>
		<path class="st6" d="M369.3,214.5c0,0.7-2.3,1.3-5.2,1.3c-2.8,0-5.2-0.6-5.2-1.3c0-0.7,2.3-1.3,5.2-1.3
			C367,213.3,369.3,213.8,369.3,214.5z"/>
		<line class="st23" x1="364.2" y1="214.4" x2="364.2" y2="207"/>
		<path class="st8" d="M367.1,205.7c0,1.6-1.3,2.9-2.9,2.9s-2.9-1.3-2.9-2.9c0-1.6,1.3-2.9,2.9-2.9S367.1,204.1,367.1,205.7z"/>
		<g class="st2">
			<path class="st5" d="M360.5,233.1c0,1.1-0.9,2-2,2l0,0c-1.1,0-2-0.9-2-2v-5.2c0-1.1,0.9-2,2-2l0,0c1.1,0,2,0.9,2,2V233.1z"/>
			<path class="st5" d="M371.8,233.1c0,1.1-0.9,2-2,2l0,0c-1.1,0-2-0.9-2-2v-5.2c0-1.1,0.9-2,2-2l0,0c1.1,0,2,0.9,2,2V233.1z"/>
		</g>
	</g>
	<text transform="matrix(0.94 0 0 1 103.246 53.3527)" class="st24 st25 st26 st27">ARTIFICIAL INTELLIGENCE</text>
	<g class="st1">
		<line class="st28" x1="137" y1="43.7" x2="123.8" y2="43.7"/>
		<line class="st28" x1="370.2" y1="43.7" x2="357" y2="43.7"/>
	</g>
	<text transform="matrix(1 0 0 1 31 276.0496)"><tspan x="0" y="0" class="st29 st30 st31">+</tspan><tspan x="58.6" y="0" class="st32 st30 st31">CM</tspan><tspan x="175.8" y="0" class="st32 st30 st31 st33">	</tspan><tspan x="180" y="0" class="st32 st30 st31"> </tspan><tspan x="228.9" y="0" class="st32 st30 st31 st34">	</tspan><tspan x="252" y="0" class="st32 st30 st31 st35">			</tspan><tspan x="360" y="0" class="st32 st30 st31">S</tspan></text>
	<text transform="matrix(1 0 0 1 41.3335 331.5423)"><tspan x="0" y="0" class="st29 st30 st36">A poweful</tspan><tspan x="0" y="43.2" class="st30 st36 st37">					</tspan><tspan x="180" y="43.2" class="st30 st36"> </tspan><tspan x="197.6" y="43.2" class="st32 st30 st36">Technologies</tspan></text>
</g>
<g id="DESIGNED_BY_FREEPIK">
</g>
</svg>
